<svg width="372" height="66" viewBox="0 0 372 66" fill="none" xmlns="http://www.w3.org/2000/svg">
<path d="M0 18.5701V6.48164L5.2533e-05 3.13291V0H52.4736H101.668H185.415H273.316H332.176H351.854H372V6.48164V66H0V18.5701Z" fill="#204057"/>
<path d="M51.24 38.594V35.388C51.24 35.1967 51.1397 35.031 50.939 34.891C50.743 34.7463 50.5073 34.632 50.232 34.548C49.9567 34.4593 49.7047 34.4033 49.476 34.38V32.994C49.7047 32.9707 49.9567 32.9217 50.232 32.847C50.5073 32.7723 50.743 32.6697 50.939 32.539C51.1397 32.4037 51.24 32.238 51.24 32.042V28.836C51.24 28.164 51.3753 27.6833 51.646 27.394C51.9167 27.1047 52.3133 26.96 52.836 26.96C53.214 26.96 53.6083 26.9787 54.019 27.016C54.4297 27.0487 54.782 27.086 55.076 27.128V28.402H53.382V32.098C53.382 32.2567 53.3587 32.399 53.312 32.525C53.27 32.6463 53.2093 32.756 53.13 32.854C53.0227 32.9893 52.871 33.1153 52.675 33.232C52.4837 33.344 52.276 33.4467 52.052 33.54C51.8327 33.6287 51.6273 33.7033 51.436 33.764V33.624C51.6273 33.6847 51.8303 33.7593 52.045 33.848C52.2643 33.932 52.4697 34.03 52.661 34.142C52.8523 34.2493 53.004 34.3707 53.116 34.506C53.2093 34.5947 53.277 34.702 53.319 34.828C53.361 34.954 53.382 35.0987 53.382 35.262V39.084H55.076V40.274C54.782 40.358 54.4297 40.4187 54.019 40.456C53.6083 40.4933 53.214 40.512 52.836 40.512C52.3133 40.512 51.9167 40.3603 51.646 40.057C51.3753 39.7537 51.24 39.266 51.24 38.594ZM103.944 41.786V41.618C104.079 41.5107 104.205 41.296 104.322 40.974C104.443 40.6567 104.504 40.274 104.504 39.826C104.504 39.6207 104.464 39.4177 104.385 39.217C104.31 39.021 104.217 38.8553 104.105 38.72C103.998 38.58 103.893 38.5007 103.79 38.482V37.754L105.582 36.83C105.843 36.928 106.058 37.1053 106.226 37.362C106.399 37.614 106.525 37.8963 106.604 38.209C106.688 38.517 106.73 38.804 106.73 39.07C106.73 39.588 106.644 40.0827 106.471 40.554C106.303 41.03 106.077 41.4407 105.792 41.786C105.507 42.1313 105.19 42.3693 104.84 42.5L103.944 41.786Z" fill="#FF0DBB"/>
<path d="M56.8583 35.178C56.8583 34.4173 56.9983 33.729 57.2783 33.113C57.5583 32.497 57.9876 32.0093 58.5663 31.65C59.1496 31.286 59.8963 31.104 60.8063 31.104C61.3336 31.104 61.7933 31.1437 62.1853 31.223C62.5773 31.3023 62.8363 31.3887 62.9623 31.482L62.6823 33.386C62.5283 33.302 62.3276 33.2273 62.0803 33.162C61.8376 33.0967 61.5296 33.064 61.1563 33.064C60.8856 33.064 60.6173 33.1223 60.3513 33.239C60.0899 33.3557 59.8706 33.5563 59.6933 33.841C59.5206 34.121 59.4296 34.506 59.4203 34.996C59.4109 35.5327 59.4833 35.9597 59.6373 36.277C59.7959 36.5943 60.0083 36.823 60.2743 36.963C60.5449 37.0983 60.8436 37.166 61.1703 37.166C61.5016 37.166 61.8073 37.138 62.0873 37.082C62.3719 37.026 62.5983 36.9607 62.7663 36.886L63.0883 38.482C62.8736 38.706 62.5353 38.867 62.0733 38.965C61.6113 39.063 61.1283 39.112 60.6243 39.112C59.7656 39.112 59.0586 38.9417 58.5033 38.601C57.9479 38.2557 57.5349 37.7867 57.2643 37.194C56.9936 36.6013 56.8583 35.9293 56.8583 35.178ZM68.309 39.112C67.5903 39.112 66.979 39.0023 66.475 38.783C65.9756 38.559 65.5743 38.2533 65.271 37.866C64.9676 37.4787 64.7483 37.0353 64.613 36.536C64.4776 36.032 64.4123 35.5 64.417 34.94C64.431 34.1093 64.6106 33.4093 64.956 32.84C65.3013 32.2707 65.775 31.839 66.377 31.545C66.979 31.251 67.6696 31.104 68.449 31.104C69.4103 31.104 70.1756 31.2953 70.745 31.678C71.319 32.0607 71.7296 32.567 71.977 33.197C72.2243 33.827 72.341 34.5153 72.327 35.262C72.3176 36.0973 72.1403 36.802 71.795 37.376C71.4543 37.9453 70.983 38.377 70.381 38.671C69.779 38.965 69.0883 39.112 68.309 39.112ZM68.365 37.362C68.8643 37.362 69.2096 37.18 69.401 36.816C69.597 36.4473 69.695 35.892 69.695 35.15C69.695 34.73 69.6553 34.3473 69.576 34.002C69.4966 33.652 69.3636 33.3743 69.177 33.169C68.9903 32.959 68.7336 32.854 68.407 32.854C67.8983 32.854 67.5436 33.0383 67.343 33.407C67.147 33.7757 67.049 34.3147 67.049 35.024C67.049 35.4533 67.0886 35.8453 67.168 36.2C67.252 36.5547 67.3896 36.837 67.581 37.047C67.7723 37.257 68.0336 37.362 68.365 37.362ZM76.793 39.112C76.2236 39.112 75.764 39.0303 75.414 38.867C75.0686 38.7037 74.805 38.4727 74.623 38.174C74.4456 37.8753 74.3266 37.5253 74.266 37.124C74.2053 36.718 74.175 36.2747 74.175 35.794V31.202H76.695V35.85C76.695 36.242 76.7323 36.543 76.807 36.753C76.8816 36.9583 76.996 37.1007 77.15 37.18C77.304 37.2547 77.4976 37.292 77.731 37.292C77.885 37.292 78.0343 37.2733 78.179 37.236C78.3283 37.194 78.459 37.145 78.571 37.089C78.6876 37.033 78.7763 36.9793 78.837 36.928V31.202H81.371V39.112H79.537C79.3783 39.112 79.2593 39.0863 79.18 39.035C79.1006 38.9837 79.061 38.874 79.061 38.706V38.216L79.117 38.342C78.935 38.4913 78.711 38.6243 78.445 38.741C78.179 38.8577 77.899 38.9487 77.605 39.014C77.3156 39.0793 77.045 39.112 76.793 39.112ZM83.9531 39V31.202H86.2631L86.3191 32.112C86.4824 31.9487 86.6971 31.79 86.9631 31.636C87.2291 31.482 87.5254 31.3537 87.8521 31.251C88.1787 31.1483 88.5171 31.0947 88.8671 31.09C89.6604 31.076 90.2554 31.293 90.6521 31.741C91.0487 32.1843 91.2471 32.966 91.2471 34.086V39H88.7131V34.548C88.7131 33.9787 88.6407 33.589 88.4961 33.379C88.3514 33.1643 88.0924 33.064 87.7191 33.078C87.5977 33.078 87.4624 33.0967 87.3131 33.134C87.1637 33.1713 87.0144 33.2273 86.8651 33.302C86.7204 33.3767 86.5897 33.47 86.4731 33.582V39H83.9531ZM96.2202 39.112C95.6602 39.112 95.2122 39.0187 94.8762 38.832C94.5449 38.6453 94.3046 38.3653 94.1552 37.992C94.0106 37.614 93.9382 37.1427 93.9382 36.578V32.868H93.0422V31.524C93.3876 31.426 93.6722 31.3257 93.8962 31.223C94.1202 31.1157 94.2836 30.9547 94.3862 30.74C94.4376 30.6327 94.4936 30.5043 94.5542 30.355C94.6149 30.2057 94.6779 30.0493 94.7432 29.886C94.8086 29.7227 94.8716 29.5687 94.9322 29.424H96.4722V31.202H98.4882V32.868H96.4722V35.64C96.4722 36.1253 96.4979 36.48 96.5492 36.704C96.6052 36.928 96.6986 37.0703 96.8292 37.131C96.9599 37.1917 97.1396 37.222 97.3682 37.222C97.4849 37.222 97.6179 37.208 97.7672 37.18C97.9166 37.1473 98.0589 37.1077 98.1942 37.061C98.3296 37.0143 98.4369 36.9653 98.5162 36.914L98.8102 38.314C98.6889 38.4353 98.4952 38.559 98.2292 38.685C97.9679 38.8063 97.6622 38.909 97.3122 38.993C96.9622 39.0723 96.5982 39.112 96.2202 39.112ZM111.749 38.482L112.001 36.732C112.076 36.7973 112.23 36.886 112.463 36.998C112.701 37.1053 112.981 37.2033 113.303 37.292C113.625 37.376 113.957 37.418 114.297 37.418C114.703 37.4227 114.993 37.3807 115.165 37.292C115.343 37.1987 115.431 37.054 115.431 36.858C115.431 36.7227 115.368 36.606 115.242 36.508C115.116 36.4053 114.946 36.3097 114.731 36.221C114.517 36.1323 114.279 36.0413 114.017 35.948C113.448 35.7427 112.995 35.5163 112.659 35.269C112.328 35.0217 112.09 34.744 111.945 34.436C111.801 34.1233 111.731 33.7687 111.735 33.372C111.735 32.868 111.88 32.448 112.169 32.112C112.463 31.776 112.855 31.524 113.345 31.356C113.835 31.188 114.377 31.104 114.969 31.104C115.609 31.104 116.143 31.16 116.572 31.272C117.002 31.3793 117.303 31.482 117.475 31.58L117.251 33.358C117.158 33.274 117.011 33.1853 116.81 33.092C116.61 32.9987 116.383 32.9193 116.131 32.854C115.879 32.7887 115.627 32.756 115.375 32.756C114.941 32.756 114.633 32.8003 114.451 32.889C114.274 32.9777 114.185 33.1107 114.185 33.288C114.185 33.498 114.281 33.652 114.472 33.75C114.664 33.848 114.965 33.974 115.375 34.128C115.991 34.352 116.486 34.5783 116.859 34.807C117.237 35.0357 117.51 35.2947 117.678 35.584C117.851 35.8733 117.937 36.2233 117.937 36.634C117.937 37.446 117.636 38.062 117.034 38.482C116.437 38.902 115.641 39.112 114.647 39.112C114.218 39.112 113.81 39.077 113.422 39.007C113.035 38.9417 112.694 38.86 112.4 38.762C112.111 38.664 111.894 38.5707 111.749 38.482ZM123.378 39.112C122.118 39.112 121.157 38.755 120.494 38.041C119.832 37.3223 119.5 36.3307 119.5 35.066C119.5 34.31 119.654 33.6333 119.962 33.036C120.27 32.4387 120.714 31.9673 121.292 31.622C121.876 31.2767 122.58 31.104 123.406 31.104C123.822 31.104 124.223 31.153 124.61 31.251C124.998 31.3443 125.345 31.51 125.653 31.748C125.961 31.9813 126.209 32.3033 126.395 32.714C126.582 33.1247 126.678 33.6427 126.682 34.268C126.682 34.548 126.673 34.814 126.654 35.066C126.64 35.318 126.622 35.528 126.598 35.696H120.802L120.942 34.436H124.33C124.354 34.058 124.335 33.743 124.274 33.491C124.218 33.2343 124.113 33.043 123.959 32.917C123.81 32.791 123.607 32.728 123.35 32.728C123.056 32.728 122.807 32.8097 122.601 32.973C122.401 33.1317 122.249 33.407 122.146 33.799C122.044 34.191 121.997 34.7347 122.006 35.43C122.016 35.8827 122.097 36.249 122.251 36.529C122.41 36.8043 122.634 37.005 122.923 37.131C123.213 37.257 123.56 37.32 123.966 37.32C124.218 37.32 124.482 37.3013 124.757 37.264C125.033 37.2267 125.287 37.1777 125.52 37.117C125.758 37.0563 125.94 36.9933 126.066 36.928L126.458 38.272C126.286 38.412 126.045 38.5473 125.737 38.678C125.434 38.804 125.079 38.909 124.673 38.993C124.272 39.0723 123.84 39.112 123.378 39.112ZM131.326 39.112C130.766 39.112 130.318 39.0187 129.982 38.832C129.651 38.6453 129.411 38.3653 129.261 37.992C129.117 37.614 129.044 37.1427 129.044 36.578V32.868H128.148V31.524C128.494 31.426 128.778 31.3257 129.002 31.223C129.226 31.1157 129.39 30.9547 129.492 30.74C129.544 30.6327 129.6 30.5043 129.66 30.355C129.721 30.2057 129.784 30.0493 129.849 29.886C129.915 29.7227 129.978 29.5687 130.038 29.424H131.578V31.202H133.594V32.868H131.578V35.64C131.578 36.1253 131.604 36.48 131.655 36.704C131.711 36.928 131.805 37.0703 131.935 37.131C132.066 37.1917 132.246 37.222 132.474 37.222C132.591 37.222 132.724 37.208 132.873 37.18C133.023 37.1473 133.165 37.1077 133.3 37.061C133.436 37.0143 133.543 36.9653 133.622 36.914L133.916 38.314C133.795 38.4353 133.601 38.559 133.335 38.685C133.074 38.8063 132.768 38.909 132.418 38.993C132.068 39.0723 131.704 39.112 131.326 39.112ZM135.4 33.82C135.4 32.938 135.535 32.1657 135.806 31.503C136.076 30.8357 136.454 30.278 136.94 29.83C137.425 29.382 137.99 29.046 138.634 28.822C139.278 28.598 139.973 28.486 140.72 28.486C141.2 28.486 141.602 28.514 141.924 28.57C142.25 28.6213 142.53 28.6797 142.764 28.745C143.002 28.8103 143.226 28.864 143.436 28.906L143.1 31.146C143.002 31.0807 142.862 31.0013 142.68 30.908C142.502 30.81 142.269 30.726 141.98 30.656C141.695 30.5813 141.345 30.544 140.93 30.544C140.398 30.544 139.917 30.6653 139.488 30.908C139.058 31.146 138.718 31.4983 138.466 31.965C138.214 32.427 138.088 32.994 138.088 33.666C138.088 34.352 138.197 34.9517 138.417 35.465C138.641 35.9783 138.972 36.3797 139.411 36.669C139.849 36.9537 140.393 37.096 141.042 37.096C141.336 37.096 141.634 37.061 141.938 36.991C142.241 36.9163 142.514 36.8277 142.757 36.725C142.999 36.6223 143.179 36.522 143.296 36.424V38.566C143.118 38.6407 142.908 38.72 142.666 38.804C142.428 38.888 142.15 38.9603 141.833 39.021C141.515 39.0817 141.154 39.112 140.748 39.112C139.6 39.112 138.627 38.895 137.829 38.461C137.035 38.027 136.431 37.4133 136.016 36.62C135.605 35.8267 135.4 34.8933 135.4 33.82ZM148.694 39.112C147.975 39.112 147.364 39.0023 146.86 38.783C146.36 38.559 145.959 38.2533 145.656 37.866C145.352 37.4787 145.133 37.0353 144.998 36.536C144.862 36.032 144.797 35.5 144.802 34.94C144.816 34.1093 144.995 33.4093 145.341 32.84C145.686 32.2707 146.16 31.839 146.762 31.545C147.364 31.251 148.054 31.104 148.834 31.104C149.795 31.104 150.56 31.2953 151.13 31.678C151.704 32.0607 152.114 32.567 152.362 33.197C152.609 33.827 152.726 34.5153 152.712 35.262C152.702 36.0973 152.525 36.802 152.18 37.376C151.839 37.9453 151.368 38.377 150.766 38.671C150.164 38.965 149.473 39.112 148.694 39.112ZM148.75 37.362C149.249 37.362 149.594 37.18 149.786 36.816C149.982 36.4473 150.08 35.892 150.08 35.15C150.08 34.73 150.04 34.3473 149.961 34.002C149.881 33.652 149.748 33.3743 149.562 33.169C149.375 32.959 149.118 32.854 148.792 32.854C148.283 32.854 147.928 33.0383 147.728 33.407C147.532 33.7757 147.434 34.3147 147.434 35.024C147.434 35.4533 147.473 35.8453 147.553 36.2C147.637 36.5547 147.774 36.837 147.966 37.047C148.157 37.257 148.418 37.362 148.75 37.362ZM157.178 39.112C156.608 39.112 156.149 39.0303 155.799 38.867C155.453 38.7037 155.19 38.4727 155.008 38.174C154.83 37.8753 154.711 37.5253 154.651 37.124C154.59 36.718 154.56 36.2747 154.56 35.794V31.202H157.08V35.85C157.08 36.242 157.117 36.543 157.192 36.753C157.266 36.9583 157.381 37.1007 157.535 37.18C157.689 37.2547 157.882 37.292 158.116 37.292C158.27 37.292 158.419 37.2733 158.564 37.236C158.713 37.194 158.844 37.145 158.956 37.089C159.072 37.033 159.161 36.9793 159.222 36.928V31.202H161.756V39.112H159.922C159.763 39.112 159.644 39.0863 159.565 39.035C159.485 38.9837 159.446 38.874 159.446 38.706V38.216L159.502 38.342C159.32 38.4913 159.096 38.6243 158.83 38.741C158.564 38.8577 158.284 38.9487 157.99 39.014C157.7 39.0793 157.43 39.112 157.178 39.112ZM164.338 39V31.202H166.648L166.704 32.112C166.867 31.9487 167.082 31.79 167.348 31.636C167.614 31.482 167.91 31.3537 168.237 31.251C168.563 31.1483 168.902 31.0947 169.252 31.09C170.045 31.076 170.64 31.293 171.037 31.741C171.433 32.1843 171.632 32.966 171.632 34.086V39H169.098V34.548C169.098 33.9787 169.025 33.589 168.881 33.379C168.736 33.1643 168.477 33.064 168.104 33.078C167.982 33.078 167.847 33.0967 167.698 33.134C167.548 33.1713 167.399 33.2273 167.25 33.302C167.105 33.3767 166.974 33.47 166.858 33.582V39H164.338ZM176.605 39.112C176.045 39.112 175.597 39.0187 175.261 38.832C174.93 38.6453 174.689 38.3653 174.54 37.992C174.395 37.614 174.323 37.1427 174.323 36.578V32.868H173.427V31.524C173.772 31.426 174.057 31.3257 174.281 31.223C174.505 31.1157 174.668 30.9547 174.771 30.74C174.822 30.6327 174.878 30.5043 174.939 30.355C175 30.2057 175.063 30.0493 175.128 29.886C175.193 29.7227 175.256 29.5687 175.317 29.424H176.857V31.202H178.873V32.868H176.857V35.64C176.857 36.1253 176.883 36.48 176.934 36.704C176.99 36.928 177.083 37.0703 177.214 37.131C177.345 37.1917 177.524 37.222 177.753 37.222C177.87 37.222 178.003 37.208 178.152 37.18C178.301 37.1473 178.444 37.1077 178.579 37.061C178.714 37.0143 178.822 36.9653 178.901 36.914L179.195 38.314C179.074 38.4353 178.88 38.559 178.614 38.685C178.353 38.8063 178.047 38.909 177.697 38.993C177.347 39.0723 176.983 39.112 176.605 39.112Z" fill="white"/>
<path d="M187.675 38.594C187.675 39.266 187.539 39.7537 187.269 40.057C186.998 40.3603 186.601 40.512 186.079 40.512C185.701 40.512 185.306 40.4933 184.896 40.456C184.485 40.4187 184.133 40.358 183.839 40.274V39.084H185.533V35.262C185.533 35.0987 185.554 34.954 185.596 34.828C185.638 34.702 185.705 34.5947 185.799 34.506C185.911 34.3707 186.062 34.2493 186.254 34.142C186.445 34.03 186.648 33.932 186.863 33.848C187.082 33.7593 187.287 33.6847 187.479 33.624V33.764C187.287 33.7033 187.08 33.6287 186.856 33.54C186.636 33.4467 186.429 33.344 186.233 33.232C186.041 33.1153 185.892 32.9893 185.785 32.854C185.705 32.756 185.642 32.6463 185.596 32.525C185.554 32.399 185.533 32.2567 185.533 32.098V28.402H183.839V27.128C184.133 27.086 184.485 27.0487 184.896 27.016C185.306 26.9787 185.701 26.96 186.079 26.96C186.601 26.96 186.998 27.1047 187.269 27.394C187.539 27.6833 187.675 28.164 187.675 28.836V32.042C187.675 32.238 187.773 32.4037 187.969 32.539C188.169 32.6697 188.407 32.7723 188.683 32.847C188.958 32.9217 189.21 32.9707 189.439 32.994V34.38C189.21 34.4033 188.958 34.4593 188.683 34.548C188.407 34.632 188.169 34.7463 187.969 34.891C187.773 35.031 187.675 35.1967 187.675 35.388V38.594Z" fill="#FF0DBB"/>
<path d="M248.486 37.112C247.917 37.112 247.457 37.0303 247.107 36.867C246.762 36.7037 246.498 36.4727 246.316 36.174C246.139 35.8753 246.02 35.5253 245.959 35.124C245.898 34.718 245.868 34.2747 245.868 33.794V29.202H248.388V33.85C248.388 34.242 248.425 34.543 248.5 34.753C248.575 34.9583 248.689 35.1007 248.843 35.18C248.997 35.2547 249.191 35.292 249.424 35.292C249.578 35.292 249.727 35.2733 249.872 35.236C250.021 35.194 250.152 35.145 250.264 35.089C250.381 35.033 250.469 34.9793 250.53 34.928V29.202H253.064V37.112H251.23C251.071 37.112 250.952 37.0863 250.873 37.035C250.794 36.9837 250.754 36.874 250.754 36.706V36.216L250.81 36.342C250.628 36.4913 250.404 36.6243 250.138 36.741C249.872 36.8577 249.592 36.9487 249.298 37.014C249.009 37.0793 248.738 37.112 248.486 37.112ZM255.24 36.482L255.492 34.732C255.567 34.7973 255.721 34.886 255.954 34.998C256.192 35.1053 256.472 35.2033 256.794 35.292C257.116 35.376 257.447 35.418 257.788 35.418C258.194 35.4227 258.483 35.3807 258.656 35.292C258.833 35.1987 258.922 35.054 258.922 34.858C258.922 34.7227 258.859 34.606 258.733 34.508C258.607 34.4053 258.437 34.3097 258.222 34.221C258.007 34.1323 257.769 34.0413 257.508 33.948C256.939 33.7427 256.486 33.5163 256.15 33.269C255.819 33.0217 255.581 32.744 255.436 32.436C255.291 32.1233 255.221 31.7687 255.226 31.372C255.226 30.868 255.371 30.448 255.66 30.112C255.954 29.776 256.346 29.524 256.836 29.356C257.326 29.188 257.867 29.104 258.46 29.104C259.099 29.104 259.634 29.16 260.063 29.272C260.492 29.3793 260.793 29.482 260.966 29.58L260.742 31.358C260.649 31.274 260.502 31.1853 260.301 31.092C260.1 30.9987 259.874 30.9193 259.622 30.854C259.37 30.7887 259.118 30.756 258.866 30.756C258.432 30.756 258.124 30.8003 257.942 30.889C257.765 30.9777 257.676 31.1107 257.676 31.288C257.676 31.498 257.772 31.652 257.963 31.75C258.154 31.848 258.455 31.974 258.866 32.128C259.482 32.352 259.977 32.5783 260.35 32.807C260.728 33.0357 261.001 33.2947 261.169 33.584C261.342 33.8733 261.428 34.2233 261.428 34.634C261.428 35.446 261.127 36.062 260.525 36.482C259.928 36.902 259.132 37.112 258.138 37.112C257.709 37.112 257.3 37.077 256.913 37.007C256.526 36.9417 256.185 36.86 255.891 36.762C255.602 36.664 255.385 36.5707 255.24 36.482ZM266.869 37.112C265.609 37.112 264.648 36.755 263.985 36.041C263.323 35.3223 262.991 34.3307 262.991 33.066C262.991 32.31 263.145 31.6333 263.453 31.036C263.761 30.4387 264.205 29.9673 264.783 29.622C265.367 29.2767 266.071 29.104 266.897 29.104C267.313 29.104 267.714 29.153 268.101 29.251C268.489 29.3443 268.836 29.51 269.144 29.748C269.452 29.9813 269.7 30.3033 269.886 30.714C270.073 31.1247 270.169 31.6427 270.173 32.268C270.173 32.548 270.164 32.814 270.145 33.066C270.131 33.318 270.113 33.528 270.089 33.696H264.293L264.433 32.436H267.821C267.845 32.058 267.826 31.743 267.765 31.491C267.709 31.2343 267.604 31.043 267.45 30.917C267.301 30.791 267.098 30.728 266.841 30.728C266.547 30.728 266.298 30.8097 266.092 30.973C265.892 31.1317 265.74 31.407 265.637 31.799C265.535 32.191 265.488 32.7347 265.497 33.43C265.507 33.8827 265.588 34.249 265.742 34.529C265.901 34.8043 266.125 35.005 266.414 35.131C266.704 35.257 267.051 35.32 267.457 35.32C267.709 35.32 267.973 35.3013 268.248 35.264C268.524 35.2267 268.778 35.1777 269.011 35.117C269.249 35.0563 269.431 34.9933 269.557 34.928L269.949 36.272C269.777 36.412 269.536 36.5473 269.228 36.678C268.925 36.804 268.57 36.909 268.164 36.993C267.763 37.0723 267.331 37.112 266.869 37.112ZM275.363 37.112C274.868 37.112 274.395 37.0747 273.942 37C273.494 36.93 273.104 36.846 272.773 36.748C272.442 36.6453 272.208 36.552 272.073 36.468L272.395 34.438C272.568 34.536 272.801 34.6363 273.095 34.739C273.389 34.8417 273.713 34.9303 274.068 35.005C274.427 35.075 274.789 35.11 275.153 35.11C275.643 35.11 275.998 35.04 276.217 34.9C276.441 34.76 276.553 34.536 276.553 34.228C276.553 34.004 276.485 33.815 276.35 33.661C276.215 33.5023 275.991 33.3413 275.678 33.178C275.37 33.0147 274.957 32.8093 274.439 32.562C274 32.352 273.597 32.1047 273.228 31.82C272.859 31.5307 272.563 31.1853 272.339 30.784C272.115 30.378 272.003 29.8973 272.003 29.342C272.003 28.866 272.092 28.4507 272.269 28.096C272.451 27.7367 272.705 27.438 273.032 27.2C273.363 26.962 273.755 26.7847 274.208 26.668C274.661 26.5467 275.162 26.486 275.713 26.486C276.497 26.486 277.136 26.5583 277.631 26.703C278.126 26.8477 278.466 26.976 278.653 27.088L278.247 29.034C278.037 28.8707 277.713 28.7213 277.274 28.586C276.84 28.446 276.394 28.376 275.937 28.376C275.61 28.376 275.342 28.4133 275.132 28.488C274.922 28.558 274.766 28.6583 274.663 28.789C274.56 28.9197 274.509 29.0713 274.509 29.244C274.509 29.454 274.57 29.6407 274.691 29.804C274.817 29.9627 275.011 30.1213 275.272 30.28C275.538 30.434 275.881 30.6067 276.301 30.798C276.749 30.9987 277.148 31.204 277.498 31.414C277.853 31.624 278.154 31.8527 278.401 32.1C278.648 32.3473 278.835 32.6297 278.961 32.947C279.092 33.2597 279.157 33.6213 279.157 34.032C279.157 34.6527 279.01 35.194 278.716 35.656C278.427 36.118 278 36.4773 277.435 36.734C276.87 36.986 276.18 37.112 275.363 37.112ZM283.758 37.112C283.198 37.112 282.75 37.0187 282.414 36.832C282.083 36.6453 281.842 36.3653 281.693 35.992C281.548 35.614 281.476 35.1427 281.476 34.578V30.868H280.58V29.524C280.925 29.426 281.21 29.3257 281.434 29.223C281.658 29.1157 281.821 28.9547 281.924 28.74C281.975 28.6327 282.031 28.5043 282.092 28.355C282.153 28.2057 282.216 28.0493 282.281 27.886C282.346 27.7227 282.409 27.5687 282.47 27.424H284.01V29.202H286.026V30.868H284.01V33.64C284.01 34.1253 284.036 34.48 284.087 34.704C284.143 34.928 284.236 35.0703 284.367 35.131C284.498 35.1917 284.677 35.222 284.906 35.222C285.023 35.222 285.156 35.208 285.305 35.18C285.454 35.1473 285.597 35.1077 285.732 35.061C285.867 35.0143 285.975 34.9653 286.054 34.914L286.348 36.314C286.227 36.4353 286.033 36.559 285.767 36.685C285.506 36.8063 285.2 36.909 284.85 36.993C284.5 37.0723 284.136 37.112 283.758 37.112ZM290.365 37.112C289.852 37.112 289.404 37.007 289.021 36.797C288.643 36.5823 288.349 36.2883 288.139 35.915C287.934 35.537 287.831 35.1053 287.831 34.62C287.831 34.1627 287.955 33.766 288.202 33.43C288.454 33.0893 288.797 32.828 289.231 32.646C289.544 32.5107 289.885 32.4103 290.253 32.345C290.622 32.275 290.991 32.2283 291.359 32.205C291.733 32.1817 292.083 32.17 292.409 32.17L292.773 32.618L292.409 33.388C292.246 33.3927 292.076 33.4067 291.898 33.43C291.726 33.4487 291.562 33.4767 291.408 33.514C291.254 33.5467 291.131 33.584 291.037 33.626C290.893 33.6867 290.755 33.7777 290.624 33.899C290.498 34.0157 290.435 34.214 290.435 34.494C290.435 34.8627 290.536 35.131 290.736 35.299C290.942 35.4623 291.173 35.544 291.429 35.544C291.565 35.544 291.698 35.5277 291.828 35.495C291.964 35.4623 292.083 35.4227 292.185 35.376C292.288 35.3247 292.363 35.2733 292.409 35.222L292.815 35.74L292.535 36.342C292.321 36.5287 292.036 36.7037 291.681 36.867C291.331 37.0303 290.893 37.112 290.365 37.112ZM294.929 37H292.535V35.838H292.409V31.708C292.409 31.3627 292.314 31.1363 292.122 31.029C291.936 30.9217 291.667 30.868 291.317 30.868C291.019 30.868 290.706 30.8913 290.379 30.938C290.057 30.9847 289.745 31.05 289.441 31.134C289.138 31.2133 288.872 31.3067 288.643 31.414L288.125 29.93C288.317 29.8133 288.592 29.6897 288.951 29.559C289.315 29.4237 289.724 29.3093 290.176 29.216C290.629 29.1227 291.089 29.076 291.555 29.076C292.372 29.076 293.028 29.1717 293.522 29.363C294.017 29.5543 294.374 29.8647 294.593 30.294C294.817 30.7233 294.929 31.2973 294.929 32.016V37ZM299.958 37.112C299.398 37.112 298.95 37.0187 298.614 36.832C298.283 36.6453 298.042 36.3653 297.893 35.992C297.748 35.614 297.676 35.1427 297.676 34.578V30.868H296.78V29.524C297.125 29.426 297.41 29.3257 297.634 29.223C297.858 29.1157 298.021 28.9547 298.124 28.74C298.175 28.6327 298.231 28.5043 298.292 28.355C298.353 28.2057 298.416 28.0493 298.481 27.886C298.546 27.7227 298.609 27.5687 298.67 27.424H300.21V29.202H302.226V30.868H300.21V33.64C300.21 34.1253 300.236 34.48 300.287 34.704C300.343 34.928 300.436 35.0703 300.567 35.131C300.698 35.1917 300.877 35.222 301.106 35.222C301.223 35.222 301.356 35.208 301.505 35.18C301.654 35.1473 301.797 35.1077 301.932 35.061C302.067 35.0143 302.175 34.9653 302.254 34.914L302.548 36.314C302.427 36.4353 302.233 36.559 301.967 36.685C301.706 36.8063 301.4 36.909 301.05 36.993C300.7 37.0723 300.336 37.112 299.958 37.112ZM307.909 37.112C306.649 37.112 305.688 36.755 305.025 36.041C304.363 35.3223 304.031 34.3307 304.031 33.066C304.031 32.31 304.185 31.6333 304.493 31.036C304.801 30.4387 305.245 29.9673 305.823 29.622C306.407 29.2767 307.111 29.104 307.937 29.104C308.353 29.104 308.754 29.153 309.141 29.251C309.529 29.3443 309.876 29.51 310.184 29.748C310.492 29.9813 310.74 30.3033 310.926 30.714C311.113 31.1247 311.209 31.6427 311.213 32.268C311.213 32.548 311.204 32.814 311.185 33.066C311.171 33.318 311.153 33.528 311.129 33.696H305.333L305.473 32.436H308.861C308.885 32.058 308.866 31.743 308.805 31.491C308.749 31.2343 308.644 31.043 308.49 30.917C308.341 30.791 308.138 30.728 307.881 30.728C307.587 30.728 307.338 30.8097 307.132 30.973C306.932 31.1317 306.78 31.407 306.677 31.799C306.575 32.191 306.528 32.7347 306.537 33.43C306.547 33.8827 306.628 34.249 306.782 34.529C306.941 34.8043 307.165 35.005 307.454 35.131C307.744 35.257 308.091 35.32 308.497 35.32C308.749 35.32 309.013 35.3013 309.288 35.264C309.564 35.2267 309.818 35.1777 310.051 35.117C310.289 35.0563 310.471 34.9933 310.597 34.928L310.989 36.272C310.817 36.412 310.576 36.5473 310.268 36.678C309.965 36.804 309.61 36.909 309.204 36.993C308.803 37.0723 308.371 37.112 307.909 37.112Z" fill="white"/>
<path d="M316.417 39.464C316.268 39.3613 316.06 39.1933 315.794 38.96C315.533 38.7267 315.253 38.4163 314.954 38.029C314.656 37.6417 314.371 37.1703 314.1 36.615C313.834 36.055 313.615 35.404 313.442 34.662C313.27 33.92 313.183 33.0753 313.183 32.128C313.183 31.2787 313.265 30.504 313.428 29.804C313.596 29.0993 313.811 28.4693 314.072 27.914C314.338 27.354 314.618 26.871 314.912 26.465C315.211 26.0543 315.493 25.7207 315.759 25.464C316.03 25.2073 316.249 25.0253 316.417 24.918L317.719 25.814C317.551 25.954 317.334 26.192 317.068 26.528C316.802 26.864 316.536 27.298 316.27 27.83C316.004 28.362 315.78 28.9897 315.598 29.713C315.416 30.4363 315.325 31.2553 315.325 32.17C315.325 32.8747 315.377 33.521 315.479 34.109C315.582 34.6923 315.717 35.2243 315.885 35.705C316.058 36.181 316.249 36.6033 316.459 36.972C316.669 37.3407 316.884 37.658 317.103 37.924C317.323 38.19 317.528 38.4047 317.719 38.568L316.417 39.464ZM323.709 37.112C322.953 37.112 322.302 36.9627 321.756 36.664C321.215 36.3653 320.771 35.957 320.426 35.439C320.085 34.921 319.833 34.3353 319.67 33.682C319.511 33.024 319.434 32.338 319.439 31.624C319.453 30.5787 319.658 29.6733 320.055 28.908C320.452 28.138 320.981 27.5453 321.644 27.13C322.311 26.71 323.056 26.5 323.877 26.5C324.642 26.5 325.293 26.64 325.83 26.92C326.371 27.2 326.81 27.585 327.146 28.075C327.487 28.5603 327.734 29.118 327.888 29.748C328.047 30.378 328.124 31.0453 328.119 31.75C328.11 32.8373 327.911 33.7823 327.524 34.585C327.137 35.3877 326.612 36.0107 325.949 36.454C325.291 36.8927 324.544 37.112 323.709 37.112ZM323.765 35.348C324.297 35.348 324.708 35.0703 324.997 34.515C325.286 33.955 325.431 33.052 325.431 31.806C325.431 31.0593 325.37 30.4223 325.249 29.895C325.128 29.3677 324.946 28.964 324.703 28.684C324.46 28.404 324.157 28.264 323.793 28.264C323.261 28.264 322.85 28.5323 322.561 29.069C322.272 29.601 322.127 30.434 322.127 31.568C322.127 32.324 322.188 32.9867 322.309 33.556C322.43 34.1207 322.612 34.5617 322.855 34.879C323.098 35.1917 323.401 35.348 323.765 35.348ZM331.144 24.82C331.293 24.9227 331.498 25.0907 331.76 25.324C332.026 25.5573 332.308 25.8677 332.607 26.255C332.905 26.6423 333.188 27.116 333.454 27.676C333.724 28.2313 333.946 28.88 334.119 29.622C334.291 30.364 334.378 31.2087 334.378 32.156C334.378 33.0053 334.294 33.7823 334.126 34.487C333.962 35.187 333.748 35.817 333.482 36.377C333.22 36.9323 332.94 37.413 332.642 37.819C332.348 38.2297 332.065 38.5633 331.795 38.82C331.529 39.0767 331.312 39.2587 331.144 39.366L329.842 38.47C330.01 38.33 330.227 38.092 330.493 37.756C330.759 37.42 331.025 36.986 331.291 36.454C331.557 35.922 331.781 35.2943 331.963 34.571C332.145 33.8477 332.236 33.0287 332.236 32.114C332.236 31.4093 332.184 30.7653 332.082 30.182C331.979 29.594 331.841 29.062 331.669 28.586C331.501 28.1053 331.312 27.6807 331.102 27.312C330.892 26.9433 330.677 26.626 330.458 26.36C330.238 26.094 330.033 25.8793 329.842 25.716L331.144 24.82ZM336.853 39.786V39.618C336.989 39.5107 337.115 39.296 337.231 38.974C337.353 38.6567 337.413 38.274 337.413 37.826C337.413 37.6207 337.374 37.4177 337.294 37.217C337.22 37.021 337.126 36.8553 337.014 36.72C336.907 36.58 336.802 36.5007 336.699 36.482V35.754L338.491 34.83C338.753 34.928 338.967 35.1053 339.135 35.362C339.308 35.614 339.434 35.8963 339.513 36.209C339.597 36.517 339.639 36.804 339.639 37.07C339.639 37.588 339.553 38.0827 339.38 38.554C339.212 39.03 338.986 39.4407 338.701 39.786C338.417 40.1313 338.099 40.3693 337.749 40.5L336.853 39.786ZM338.015 32.128C337.595 32.128 337.255 31.9903 336.993 31.715C336.732 31.435 336.601 31.092 336.601 30.686C336.601 30.4107 336.667 30.1563 336.797 29.923C336.933 29.685 337.115 29.4937 337.343 29.349C337.577 29.2043 337.838 29.132 338.127 29.132C338.557 29.132 338.897 29.2697 339.149 29.545C339.401 29.8157 339.527 30.154 339.527 30.56C339.527 30.8353 339.46 31.092 339.324 31.33C339.194 31.568 339.014 31.7617 338.785 31.911C338.557 32.0557 338.3 32.128 338.015 32.128Z" fill="#F58219"/>
<path d="M213.984 32.944V30.976H221.2V32.944H213.984ZM213.984 36.912V34.944H221.2V36.912H213.984Z" fill="white"/>
<path d="M4.476 34.178C4.476 33.4173 4.616 32.729 4.896 32.113C5.176 31.497 5.60533 31.0093 6.184 30.65C6.76733 30.286 7.514 30.104 8.424 30.104C8.95133 30.104 9.411 30.1437 9.803 30.223C10.195 30.3023 10.454 30.3887 10.58 30.482L10.3 32.386C10.146 32.302 9.94533 32.2273 9.698 32.162C9.45533 32.0967 9.14733 32.064 8.774 32.064C8.50333 32.064 8.235 32.1223 7.969 32.239C7.70767 32.3557 7.48833 32.5563 7.311 32.841C7.13833 33.121 7.04733 33.506 7.038 33.996C7.02867 34.5327 7.101 34.9597 7.255 35.277C7.41367 35.5943 7.626 35.823 7.892 35.963C8.16267 36.0983 8.46133 36.166 8.788 36.166C9.11933 36.166 9.425 36.138 9.705 36.082C9.98967 36.026 10.216 35.9607 10.384 35.886L10.706 37.482C10.4913 37.706 10.153 37.867 9.691 37.965C9.229 38.063 8.746 38.112 8.242 38.112C7.38333 38.112 6.67633 37.9417 6.121 37.601C5.56567 37.2557 5.15267 36.7867 4.882 36.194C4.61133 35.6013 4.476 34.9293 4.476 34.178ZM15.9267 38.112C15.208 38.112 14.5967 38.0023 14.0927 37.783C13.5934 37.559 13.192 37.2533 12.8887 36.866C12.5854 36.4787 12.366 36.0353 12.2307 35.536C12.0954 35.032 12.03 34.5 12.0347 33.94C12.0487 33.1093 12.2284 32.4093 12.5737 31.84C12.919 31.2707 13.3927 30.839 13.9947 30.545C14.5967 30.251 15.2874 30.104 16.0667 30.104C17.028 30.104 17.7934 30.2953 18.3627 30.678C18.9367 31.0607 19.3474 31.567 19.5947 32.197C19.842 32.827 19.9587 33.5153 19.9447 34.262C19.9354 35.0973 19.758 35.802 19.4127 36.376C19.072 36.9453 18.6007 37.377 17.9987 37.671C17.3967 37.965 16.706 38.112 15.9267 38.112ZM15.9827 36.362C16.482 36.362 16.8274 36.18 17.0187 35.816C17.2147 35.4473 17.3127 34.892 17.3127 34.15C17.3127 33.73 17.273 33.3473 17.1937 33.002C17.1144 32.652 16.9814 32.3743 16.7947 32.169C16.608 31.959 16.3514 31.854 16.0247 31.854C15.516 31.854 15.1614 32.0383 14.9607 32.407C14.7647 32.7757 14.6667 33.3147 14.6667 34.024C14.6667 34.4533 14.7064 34.8453 14.7857 35.2C14.8697 35.5547 15.0074 35.837 15.1987 36.047C15.39 36.257 15.6514 36.362 15.9827 36.362ZM21.9327 38V30.202H24.2427L24.2987 31.112C24.462 30.9487 24.6767 30.79 24.9427 30.636C25.2087 30.482 25.505 30.3537 25.8317 30.251C26.1584 30.1483 26.4967 30.0947 26.8467 30.09C27.64 30.076 28.235 30.293 28.6317 30.741C29.0284 31.1843 29.2267 31.966 29.2267 33.086V38H26.6927V33.548C26.6927 32.9787 26.6204 32.589 26.4757 32.379C26.331 32.1643 26.072 32.064 25.6987 32.078C25.5774 32.078 25.442 32.0967 25.2927 32.134C25.1434 32.1713 24.994 32.2273 24.8447 32.302C24.7 32.3767 24.5694 32.47 24.4527 32.582V38H21.9327ZM31.2879 37.482L31.5399 35.732C31.6145 35.7973 31.7685 35.886 32.0019 35.998C32.2399 36.1053 32.5199 36.2033 32.8419 36.292C33.1639 36.376 33.4952 36.418 33.8359 36.418C34.2419 36.4227 34.5312 36.3807 34.7039 36.292C34.8812 36.1987 34.9699 36.054 34.9699 35.858C34.9699 35.7227 34.9069 35.606 34.7809 35.508C34.6549 35.4053 34.4845 35.3097 34.2699 35.221C34.0552 35.1323 33.8172 35.0413 33.5559 34.948C32.9865 34.7427 32.5339 34.5163 32.1979 34.269C31.8665 34.0217 31.6285 33.744 31.4839 33.436C31.3392 33.1233 31.2692 32.7687 31.2739 32.372C31.2739 31.868 31.4185 31.448 31.7079 31.112C32.0019 30.776 32.3939 30.524 32.8839 30.356C33.3739 30.188 33.9152 30.104 34.5079 30.104C35.1472 30.104 35.6815 30.16 36.1109 30.272C36.5402 30.3793 36.8412 30.482 37.0139 30.58L36.7899 32.358C36.6965 32.274 36.5495 32.1853 36.3489 32.092C36.1482 31.9987 35.9219 31.9193 35.6699 31.854C35.4179 31.7887 35.1659 31.756 34.9139 31.756C34.4799 31.756 34.1719 31.8003 33.9899 31.889C33.8125 31.9777 33.7239 32.1107 33.7239 32.288C33.7239 32.498 33.8195 32.652 34.0109 32.75C34.2022 32.848 34.5032 32.974 34.9139 33.128C35.5299 33.352 36.0245 33.5783 36.3979 33.807C36.7759 34.0357 37.0489 34.2947 37.2169 34.584C37.3895 34.8733 37.4759 35.2233 37.4759 35.634C37.4759 36.446 37.1749 37.062 36.5729 37.482C35.9755 37.902 35.1799 38.112 34.1859 38.112C33.7565 38.112 33.3482 38.077 32.9609 38.007C32.5735 37.9417 32.2329 37.86 31.9389 37.762C31.6495 37.664 31.4325 37.5707 31.2879 37.482ZM41.9649 38.112C41.4049 38.112 40.9569 38.0187 40.6209 37.832C40.2896 37.6453 40.0493 37.3653 39.8999 36.992C39.7553 36.614 39.6829 36.1427 39.6829 35.578V31.868H38.7869V30.524C39.1323 30.426 39.4169 30.3257 39.6409 30.223C39.8649 30.1157 40.0283 29.9547 40.1309 29.74C40.1823 29.6327 40.2383 29.5043 40.2989 29.355C40.3596 29.2057 40.4226 29.0493 40.4879 28.886C40.5533 28.7227 40.6163 28.5687 40.6769 28.424H42.2169V30.202H44.2329V31.868H42.2169V34.64C42.2169 35.1253 42.2426 35.48 42.2939 35.704C42.3499 35.928 42.4433 36.0703 42.5739 36.131C42.7046 36.1917 42.8843 36.222 43.1129 36.222C43.2296 36.222 43.3626 36.208 43.5119 36.18C43.6613 36.1473 43.8036 36.1077 43.9389 36.061C44.0743 36.0143 44.1816 35.9653 44.2609 35.914L44.5549 37.314C44.4336 37.4353 44.2399 37.559 43.9739 37.685C43.7126 37.8063 43.4069 37.909 43.0569 37.993C42.7069 38.0723 42.3429 38.112 41.9649 38.112Z" fill="#F58219"/>
</svg>
