<svg width="73" height="72" viewBox="0 0 73 72" fill="none" xmlns="http://www.w3.org/2000/svg">
<path fill-rule="evenodd" clip-rule="evenodd" d="M42.0128 28.575H48.3691V35.0438H51.5753C53.0378 35.0438 54.5566 34.7625 55.9628 34.3125C56.6378 34.0875 57.4253 33.75 58.1003 33.3563C57.2003 32.175 56.7503 30.7125 56.6378 29.25C56.4691 27.2813 56.8628 24.6938 58.2128 23.175L58.8878 22.3875L59.6753 23.0063C61.7003 24.6375 63.3316 26.8313 63.6691 29.4188C66.0878 28.6875 68.9003 28.8563 71.0378 30.0938L71.8816 30.6L71.4316 31.5C69.6316 34.9875 65.8628 36.1125 62.2066 35.8875C56.6941 49.5563 44.7691 56.025 30.2566 56.025C22.7753 56.025 15.9128 53.2125 11.9753 46.575L11.9191 46.4625L11.3566 45.2813C10.0066 42.3563 9.61284 39.15 9.89409 35.9438L10.0066 34.9875H15.4066V28.575H21.7628V22.275H34.4191V15.9188H42.0128V28.575Z" fill="#3A4D54"/>
<path d="M62.5999 30.9937C63.0499 27.675 60.5749 25.0875 58.9999 23.85C57.2561 25.875 56.9749 31.275 59.7311 33.525C58.1561 34.875 54.9499 36.1687 51.5749 36.1687H10.9624C10.6249 39.6562 11.2436 42.8625 12.6499 45.6187L13.0999 46.4625C13.3811 46.9687 13.7186 47.4187 14.0561 47.925C15.7436 48.0375 17.2624 48.0937 18.6686 48.0375C21.4249 47.9812 23.6749 47.6437 25.4186 47.0812C25.6999 46.9687 25.9249 47.1375 26.0374 47.3625C26.1499 47.6437 25.9811 47.8687 25.7561 47.9812C25.5311 48.0375 25.3061 48.15 25.0249 48.2062C23.6749 48.6 22.2124 48.825 20.3561 48.9375H20.0186C19.2874 48.9937 18.4999 48.9937 17.6561 48.9937C16.7561 48.9937 15.9124 48.9937 14.8999 48.9375C18.2749 52.7625 23.5624 55.0125 30.1999 55.0125C44.2624 55.0125 56.1874 48.7687 61.4186 34.8187C65.1874 35.2125 68.7874 34.2562 70.4186 31.05C67.8874 29.5312 64.5124 30.0375 62.5999 30.9937Z" fill="#00AADA"/>
<path d="M62.6005 30.9937C63.0505 27.675 60.5755 25.0875 59.0005 23.85C57.2567 25.875 56.9755 31.275 59.7317 33.525C58.1567 34.875 54.9505 36.1687 51.5755 36.1687H13.3255C13.1567 41.5125 15.1255 45.5625 18.6692 47.9812C21.4255 47.925 23.6755 47.5875 25.4192 47.025C25.7005 46.9125 25.9255 47.0812 26.038 47.3062C26.1505 47.5875 25.9817 47.8125 25.7567 47.925C25.5317 47.9812 25.3067 48.0937 25.0255 48.15C23.6755 48.5437 22.1005 48.825 20.2442 48.9375L20.188 48.8812C24.9692 51.3562 31.888 51.3 39.8755 48.2625C48.763 44.8312 57.088 38.3062 62.8817 30.8812C62.7692 30.9375 62.6567 30.9375 62.6005 30.9937Z" fill="#28B8EB"/>
<path d="M11.0186 40.3875C11.2436 42.2438 11.8061 43.9875 12.6498 45.6188L13.0998 46.4625C13.3811 46.9688 13.7186 47.4188 14.0561 47.925C15.7436 48.0375 17.2623 48.0938 18.6686 48.0375C21.4248 47.9813 23.6748 47.6438 25.4186 47.0813C25.6998 46.9688 25.9248 47.1375 26.0373 47.3625C26.1498 47.6438 25.9811 47.8688 25.7561 47.9813C25.5311 48.0375 25.3061 48.15 25.0248 48.2063C23.6748 48.6 22.0998 48.8813 20.2436 48.9938H20.0186C19.2873 49.05 18.4998 49.05 17.7123 49.05C16.8123 49.05 15.9123 49.05 14.9561 48.9938C18.3311 52.8188 23.6748 55.0688 30.3123 55.0688C42.3498 55.0688 52.8123 50.5125 58.8873 40.4438H11.0186V40.3875Z" fill="#028BB8"/>
<path d="M13.7188 40.3875C14.45 43.65 16.1375 46.2375 18.6687 47.9813C21.425 47.925 23.675 47.5875 25.4187 47.025C25.7 46.9125 25.925 47.0813 26.0375 47.3063C26.15 47.5875 25.9813 47.8125 25.7563 47.925C25.5313 47.9813 25.3062 48.0938 25.025 48.15C23.675 48.5438 22.1 48.825 20.1875 48.9375C24.9688 51.4125 31.8875 51.3563 39.8188 48.3188C44.6 46.4625 49.2687 43.7063 53.4312 40.3875H13.7188Z" fill="#019BC6"/>
<path fill-rule="evenodd" clip-rule="evenodd" d="M16.4746 29.6438H21.9871V35.1562H16.4746V29.6438ZM16.9246 30.0938H17.3746V34.65H16.9246V30.0938ZM17.7121 30.0938H18.1621V34.65H17.7121V30.0938ZM18.5559 30.0938H19.0059V34.65H18.5559V30.0938ZM19.3996 30.0938H19.8496V34.65H19.3996V30.0938ZM20.2434 30.0938H20.6934V34.65H20.2434V30.0938ZM21.0871 30.0938H21.5371V34.65H21.0871V30.0938ZM22.7746 23.3438H28.2871V28.8562H22.7746V23.3438ZM23.2809 23.7937H23.7309V28.35H23.2809V23.7937ZM24.0684 23.7937H24.5184V28.35H24.0684V23.7937ZM24.9121 23.7937H25.3621V28.35H24.9121V23.7937ZM25.7559 23.7937H26.2059V28.35H25.7559V23.7937ZM26.5434 23.7937H26.9934V28.35H26.5434V23.7937ZM27.3871 23.7937H27.8371V28.35H27.3871V23.7937Z" fill="#00ACD3"/>
<path fill-rule="evenodd" clip-rule="evenodd" d="M22.7754 29.6437H28.2879V35.1562H22.7754V29.6437ZM23.2816 30.0937H23.7316V34.65H23.2816V30.0937ZM24.0691 30.0937H24.5191V34.65H24.0691V30.0937ZM24.9129 30.0937H25.3629V34.65H24.9129V30.0937ZM25.7566 30.0937H26.2066V34.65H25.7566V30.0937ZM26.5441 30.0937H26.9941V34.65H26.5441V30.0937ZM27.3879 30.0937H27.8379V34.65H27.3879V30.0937Z" fill="#23C2EE"/>
<path fill-rule="evenodd" clip-rule="evenodd" d="M29.1309 29.6437H34.6434V35.1562H29.1309V29.6437ZM29.5809 30.0937H30.0309V34.65H29.5809V30.0937ZM30.4246 30.0937H30.8746V34.65H30.4246V30.0937ZM31.2684 30.0937H31.7184V34.65H31.2684V30.0937ZM32.0559 30.0937H32.5059V34.65H32.0559V30.0937ZM32.8996 30.0937H33.3496V34.65H32.8996V30.0937ZM33.7434 30.0937H34.1934V34.65H33.7434V30.0937Z" fill="#00ACD3"/>
<path fill-rule="evenodd" clip-rule="evenodd" d="M29.1309 23.3438H34.6434V28.8562H29.1309V23.3438ZM29.5809 23.7937H30.0309V28.35H29.5809V23.7937ZM30.4246 23.7937H30.8746V28.35H30.4246V23.7937ZM31.2684 23.7937H31.7184V28.35H31.2684V23.7937ZM32.0559 23.7937H32.5059V28.35H32.0559V23.7937ZM32.8996 23.7937H33.3496V28.35H32.8996V23.7937ZM33.7434 23.7937H34.1934V28.35H33.7434V23.7937ZM35.4871 29.6438H40.9996V35.1562H35.4871V29.6438ZM35.9371 30.0938H36.3871V34.65H35.9371V30.0938ZM36.7809 30.0938H37.2309V34.65H36.7809V30.0938ZM37.5684 30.0938H38.0184V34.65H37.5684V30.0938ZM38.4121 30.0938H38.8621V34.65H38.4121V30.0938ZM39.2559 30.0938H39.7059V34.65H39.2559V30.0938ZM40.0996 30.0938H40.5496V34.65H40.0996V30.0938Z" fill="#23C2EE"/>
<path fill-rule="evenodd" clip-rule="evenodd" d="M35.4873 23.3438H40.9998V28.8562H35.4873V23.3438ZM35.9373 23.7937H36.3873V28.35H35.9373V23.7937ZM36.7811 23.7937H37.2311V28.35H36.7811V23.7937ZM37.5686 23.7937H38.0186V28.35H37.5686V23.7937ZM38.4123 23.7937H38.8623V28.35H38.4123V23.7937ZM39.2561 23.7937H39.7061V28.35H39.2561V23.7937ZM40.0998 23.7937H40.5498V28.35H40.0998V23.7937Z" fill="#00ACD3"/>
<path fill-rule="evenodd" clip-rule="evenodd" d="M35.4873 16.9875H40.9998V22.5H35.4873V16.9875ZM35.9373 17.4375H36.3873V21.9937H35.9373V17.4375ZM36.7811 17.4375H37.2311V21.9937H36.7811V17.4375ZM37.5686 17.4375H38.0186V21.9937H37.5686V17.4375ZM38.4123 17.4375H38.8623V21.9937H38.4123V17.4375ZM39.2561 17.4375H39.7061V21.9937H39.2561V17.4375ZM40.0998 17.4375H40.5498V21.9937H40.0998V17.4375Z" fill="#23C2EE"/>
<path fill-rule="evenodd" clip-rule="evenodd" d="M41.8438 29.6437H47.3563V35.1562H41.8438V29.6437ZM42.2938 30.0937H42.7437V34.65H42.2938V30.0937ZM43.0812 30.0937H43.5312V34.65H43.0812V30.0937ZM43.925 30.0937H44.375V34.65H43.925V30.0937ZM44.7687 30.0937H45.2188V34.65H44.7687V30.0937ZM45.6125 30.0937H46.0625V34.65H45.6125V30.0937ZM46.4562 30.0937H46.9062V34.65H46.4562V30.0937Z" fill="#00ACD3"/>
<path fill-rule="evenodd" clip-rule="evenodd" d="M27.9504 44.0438C28.7941 44.0438 29.4691 44.7188 29.4691 45.5625C29.4691 46.4063 28.7941 47.0813 27.9504 47.0813C27.1066 47.0813 26.4316 46.4063 26.4316 45.5625C26.4316 44.7188 27.1066 44.0438 27.9504 44.0438Z" fill="#D4EEF1"/>
<path fill-rule="evenodd" clip-rule="evenodd" d="M27.9504 44.4938C28.0629 44.4938 28.2316 44.4938 28.3441 44.55C28.2316 44.6063 28.1191 44.775 28.1191 44.9438C28.1191 45.1688 28.3441 45.3938 28.5691 45.3938C28.7379 45.3938 28.9066 45.2813 28.9629 45.1688C29.0191 45.2813 29.0191 45.45 29.0191 45.5625C29.0191 46.1813 28.5129 46.6313 27.9504 46.6313C27.3316 46.6313 26.8816 46.125 26.8816 45.5625C26.8816 45 27.3316 44.4938 27.9504 44.4938ZM1.11914 40.95H71.6566C70.1379 40.5563 66.8191 40.05 67.3254 38.025C64.5129 41.2313 57.8191 40.275 56.0754 38.7C54.1629 41.4563 43.1379 40.3875 42.4066 38.25C40.0441 41.0625 32.6754 41.0625 30.3129 38.25C29.5254 40.3875 18.5004 41.4563 16.6441 38.7C14.9566 40.275 8.20664 41.2313 5.39414 38.025C6.01289 39.9938 2.63789 40.5563 1.11914 40.95Z" fill="#3A4D54"/>
<path d="M31.9996 55.0125C28.2309 53.2125 26.2059 50.7938 25.0246 48.15C23.6184 48.5438 21.9309 48.825 20.0184 48.9375C19.2871 48.9938 18.4996 48.9938 17.7121 48.9938C16.7559 48.9938 15.7996 48.9938 14.7871 48.9375C18.1621 52.3125 22.4371 54.9563 30.2559 55.0125H31.9996Z" fill="#BFDBE0"/>
<path d="M26.4311 50.5688C25.9248 49.8375 25.4186 48.9938 25.0248 48.15C23.6186 48.5438 21.9311 48.825 20.0186 48.9375C21.3123 49.6125 23.2248 50.2875 26.4311 50.5688Z" fill="#D4EEF1"/>
</svg>
