<svg width="73" height="72" viewBox="0 0 73 72" fill="none" xmlns="http://www.w3.org/2000/svg">
<path d="M71.1418 32.7931L39.7057 1.35776C37.8965 -0.452588 34.9603 -0.452588 33.1482 1.35776L26.621 7.88621L34.9015 16.1668C36.8265 15.5172 39.0326 15.9529 40.5663 17.4867C42.108 19.0301 42.5404 21.2551 41.8748 23.1864L49.8553 31.1675C51.7859 30.5019 54.0144 30.932 55.5555 32.4765C57.7114 34.6308 57.7114 38.1232 55.5555 40.2786C55.0431 40.7912 54.4348 41.1979 53.7653 41.4753C53.0957 41.7527 52.3781 41.8955 51.6533 41.8955C50.9286 41.8955 50.211 41.7527 49.5414 41.4753C48.8719 41.1979 48.2635 40.7912 47.7512 40.2786C46.9816 39.5083 46.457 38.5275 46.2434 37.4598C46.0298 36.392 46.1367 35.2849 46.5506 34.2778L39.1085 26.8356L39.1074 46.4226C39.6474 46.6885 40.1404 47.0407 40.5669 47.4653C42.7217 49.6196 42.7217 53.1108 40.5669 55.2696C38.4115 57.4239 34.9181 57.4239 32.7649 55.2696C30.6101 53.1114 30.6101 49.6201 32.7649 47.4653C33.2817 46.9488 33.8956 46.5398 34.5713 46.2618V26.4934C33.8948 26.2166 33.2807 25.8072 32.7649 25.2893C31.1326 23.6581 30.7396 21.2625 31.5769 19.2571L23.4133 11.0934L1.85815 32.6477C0.988526 33.5176 0.5 34.6972 0.5 35.9273C0.5 37.1573 0.988526 38.337 1.85815 39.2069L33.2948 70.6422C35.1051 72.4526 38.0402 72.4526 39.8534 70.6422L71.1423 39.3529C72.0118 38.4828 72.5001 37.303 72.5 36.0729C72.4999 34.8428 72.0113 33.6631 71.1418 32.7931Z" fill="#F34F29"/>
</svg>
