<svg width="52" height="56" viewBox="0 0 52 56" fill="none" xmlns="http://www.w3.org/2000/svg">
<g clip-path="url(#clip0_770_135)">
<path d="M39.8125 0H12.1875C5.45653 0 0 5.87626 0 13.125V42.875C0 50.1237 5.45653 56 12.1875 56H39.8125C46.5435 56 52 50.1237 52 42.875V13.125C52 5.87626 46.5435 0 39.8125 0Z" fill="url(#paint0_radial_770_135)"/>
<path d="M39.8125 0H12.1875C5.45653 0 0 5.87626 0 13.125V42.875C0 50.1237 5.45653 56 12.1875 56H39.8125C46.5435 56 52 50.1237 52 42.875V13.125C52 5.87626 46.5435 0 39.8125 0Z" fill="url(#paint1_radial_770_135)"/>
<path d="M26.0018 6.125C20.4854 6.125 19.7929 6.15103 17.6264 6.25713C15.4639 6.36388 13.9878 6.73247 12.6963 7.27344C11.3602 7.83212 10.2269 8.57959 9.09797 9.79584C7.96798 11.0119 7.27391 12.2323 6.7535 13.6706C6.24975 15.0618 5.90708 16.6521 5.80978 18.9798C5.71289 21.3132 5.6875 22.0592 5.6875 28.0002C5.6875 33.9412 5.71188 34.6846 5.81019 37.0177C5.90972 39.3466 6.25198 40.9362 6.75391 42.327C7.27309 43.766 7.96717 44.9864 9.09655 46.2022C10.2253 47.4191 11.3585 48.1683 12.6937 48.727C13.9862 49.268 15.4625 49.6366 17.6245 49.7433C19.7913 49.8494 20.4831 49.8754 25.9994 49.8754C31.5165 49.8754 32.2067 49.8494 34.3732 49.7433C36.5357 49.6366 38.0134 49.268 39.3059 48.727C40.6415 48.1683 41.7731 47.4191 42.9016 46.2022C44.0316 44.9864 44.7255 43.766 45.2461 42.3277C45.7454 40.9362 46.0882 39.3461 46.1898 37.0182C46.2871 34.685 46.3125 33.9412 46.3125 28.0002C46.3125 22.0592 46.2871 21.3137 46.1898 18.9803C46.0882 16.6515 45.7454 15.062 45.2461 13.6712C44.7255 12.2323 44.0316 11.0119 42.9016 9.79584C41.7718 8.57916 40.6419 7.83169 39.3047 7.27366C38.0098 6.73247 36.5328 6.36366 34.3704 6.25713C32.2036 6.15103 31.5138 6.125 25.9955 6.125H26.0018ZM24.1796 10.0671C24.7205 10.0662 25.324 10.0671 26.0018 10.0671C31.4255 10.0671 32.0682 10.0881 34.2099 10.1929C36.1904 10.2904 37.2653 10.6468 37.9813 10.9462C38.9293 11.3426 39.6051 11.8167 40.3156 12.5825C41.0266 13.3481 41.4665 14.0772 41.8356 15.0981C42.1137 15.8681 42.445 17.0257 42.5352 19.1586C42.6325 21.4646 42.6536 22.1572 42.6536 27.9952C42.6536 33.8332 42.6325 34.526 42.5352 36.8318C42.4446 38.9646 42.1137 40.1222 41.8356 40.8925C41.4676 41.9134 41.0266 42.6403 40.3156 43.4055C39.6047 44.1711 38.9297 44.6449 37.9813 45.0415C37.2661 45.3423 36.1904 45.6977 34.2099 45.7953C32.0686 45.9001 31.4255 45.9228 26.0018 45.9228C20.578 45.9228 19.9351 45.9001 17.794 45.7953C15.8135 45.6969 14.7385 45.3405 14.0219 45.0411C13.0741 44.6445 12.3969 44.1707 11.686 43.405C10.975 42.6394 10.5351 41.9121 10.166 40.8907C9.88792 40.1205 9.55663 38.9629 9.46644 36.8301C9.36914 34.524 9.34964 33.8314 9.34964 27.9897C9.34964 22.148 9.36914 21.4592 9.46644 19.1531C9.55703 17.0203 9.88792 15.8627 10.166 15.0916C10.5343 14.0707 10.975 13.3416 11.6862 12.5759C12.3973 11.8103 13.0741 11.3363 14.0221 10.939C14.7381 10.6382 15.8135 10.2828 17.794 10.1848C19.6678 10.0936 20.394 10.0662 24.1796 10.0616V10.0671ZM36.8446 13.6992C35.4989 13.6992 34.4071 14.8739 34.4071 16.3233C34.4071 17.7726 35.4989 18.9483 36.8446 18.9483C38.1903 18.9483 39.2821 17.7726 39.2821 16.3233C39.2821 14.8741 38.1903 13.6983 36.8446 13.6983V13.6992ZM26.0018 16.7663C20.2412 16.7663 15.5705 21.7963 15.5705 28.0002C15.5705 34.2042 20.2412 39.2317 26.0018 39.2317C31.7627 39.2317 36.4317 34.2042 36.4317 28.0002C36.4317 21.7965 31.7623 16.7663 26.0014 16.7663H26.0018ZM26.0018 20.7084C29.7412 20.7084 32.7728 23.9728 32.7728 28.0002C32.7728 32.0272 29.7412 35.292 26.0018 35.292C22.2625 35.292 19.2311 32.0272 19.2311 28.0002C19.2311 23.9728 22.2623 20.7084 26.0018 20.7084Z" fill="white"/>
</g>
<defs>
<radialGradient id="paint0_radial_770_135" cx="0" cy="0" r="1" gradientUnits="userSpaceOnUse" gradientTransform="translate(13.8125 60.3131) rotate(-90) scale(55.5002 47.9324)">
<stop stop-color="#FFDD55"/>
<stop offset="0.1" stop-color="#FFDD55"/>
<stop offset="0.5" stop-color="#FF543E"/>
<stop offset="1" stop-color="#C837AB"/>
</radialGradient>
<radialGradient id="paint1_radial_770_135" cx="0" cy="0" r="1" gradientUnits="userSpaceOnUse" gradientTransform="translate(-8.7102 4.03397) rotate(79.4708) scale(24.743 95.2115)">
<stop stop-color="#3771C8"/>
<stop offset="0.128" stop-color="#3771C8"/>
<stop offset="1" stop-color="#6600FF" stop-opacity="0"/>
</radialGradient>
<clipPath id="clip0_770_135">
<rect width="52" height="56" fill="white"/>
</clipPath>
</defs>
</svg>
