<svg width="45" height="44" viewBox="0 0 65 64" fill="none" xmlns="http://www.w3.org/2000/svg">
<g clip-path="url(#clip0_565_158)">
<path d="M49.5 0H15.5C7.21573 0 0.5 6.71573 0.5 15V49C0.5 57.2843 7.21573 64 15.5 64H49.5C57.7843 64 64.5 57.2843 64.5 49V15C64.5 6.71573 57.7843 0 49.5 0Z" fill="#242938"/>
<path d="M25.9085 45.6547C25.9085 45.6547 23.9885 46.8232 27.2448 47.1574C31.1768 47.6584 33.2558 47.5747 37.5965 46.7404C37.5965 46.7404 38.765 47.4927 40.3515 48.0764C30.5828 52.2504 18.2273 47.8259 25.9085 45.6547ZM24.6563 40.2284C24.6563 40.2284 22.5688 41.8149 25.8248 42.1482C30.0818 42.5654 33.4225 42.6492 39.183 41.4814C39.183 41.4814 39.9353 42.3167 41.1868 42.7339C29.416 46.2402 16.2243 43.0672 24.6563 40.2292V40.2284ZM47.6988 49.7459C47.6988 49.7459 49.1178 50.9144 46.1123 51.8334C40.5183 53.5029 22.6525 54.0047 17.6433 51.8334C15.891 51.0812 19.23 49.9954 20.3148 49.8297C21.4003 49.5792 21.9843 49.5792 21.9843 49.5792C20.0643 48.2432 9.21053 52.3342 16.474 53.5114C36.4273 56.7682 52.8748 52.0924 47.698 49.7544L47.6988 49.7459ZM26.8268 34.5507C26.8268 34.5507 17.7263 36.7219 23.5698 37.4724C26.0745 37.8057 31 37.7229 35.592 37.3887C39.349 37.0552 43.1145 36.3869 43.1145 36.3869C43.1145 36.3869 41.7783 36.9714 40.8603 37.5554C31.5855 39.9787 13.8028 38.8932 18.8958 36.3884C23.2383 34.3009 26.8268 34.5507 26.8268 34.5507ZM43.1058 43.6509C52.4575 38.8084 48.115 34.1334 45.1095 34.7182C44.3573 34.8849 44.024 35.0517 44.024 35.0517C44.024 35.0517 44.2743 34.5507 44.859 34.3849C50.7863 32.2974 55.4623 40.6464 42.9393 43.9024C42.9393 43.9024 43.023 43.8187 43.1058 43.6519V43.6509ZM27.7448 56.8409C36.7615 57.4257 50.5368 56.5074 50.871 52.2487C50.871 52.2487 50.2043 53.9182 43.441 55.1707C35.7605 56.5897 26.242 56.4229 20.649 55.5039C20.649 55.5039 21.8175 56.5057 27.7455 56.8399L27.7448 56.8409Z" fill="white"/>
<path d="M37.4212 7C37.4212 7 42.5972 12.2598 32.4957 20.19C24.3972 26.618 30.6579 30.292 32.4957 34.4652C27.7369 30.2082 24.3152 26.4505 26.6514 22.944C30.0827 17.7708 39.5154 15.266 37.4212 7ZM34.7499 30.9605C37.1707 33.7155 34.0832 36.2202 34.0832 36.2202C34.0832 36.2202 40.2609 33.0488 37.4229 29.1235C34.8344 25.3665 32.8309 23.5295 43.6844 17.2673C43.6844 17.2673 26.5694 21.5243 34.7517 30.9587L34.7499 30.9605Z" fill="#F58219"/>
</g>
<defs>
<clipPath id="clip0_565_158">
<rect width="64" height="64" fill="white" transform="translate(0.5)"/>
</clipPath>
</defs>
</svg>
