<svg width="59" height="60" viewBox="0 0 59 60" fill="none" xmlns="http://www.w3.org/2000/svg">
<path d="M3.6875 4.1875H55.3125V55.8125H3.6875V4.1875Z" fill="#F5DE19"/>
<path d="M38.3663 44.5194C38.8061 45.4129 39.4895 46.1639 40.3377 46.6858C41.1858 47.2078 42.1642 47.4794 43.16 47.4694C45.1697 47.4694 46.4548 46.4646 46.4548 45.0726C46.4548 43.4132 45.1347 42.8195 42.9222 41.8515L41.709 41.3316C38.2059 39.84 35.8827 37.9723 35.8827 34.023C35.8827 30.3852 38.6484 27.6141 42.9867 27.6141C44.3911 27.5127 45.7943 27.827 47.0212 28.5178C48.2481 29.2087 49.2445 30.2455 49.886 31.4989L46.0934 33.9234C45.8464 33.3019 45.4163 32.7702 44.8601 32.3988C44.304 32.0273 43.648 31.8337 42.9793 31.8436C42.6876 31.8144 42.3929 31.8463 42.1142 31.9373C41.8354 32.0282 41.5787 32.1763 41.3603 32.3719C41.1419 32.5676 40.9667 32.8066 40.8458 33.0737C40.7249 33.3408 40.6609 33.6302 40.658 33.9234C40.658 35.3781 41.5596 35.9681 43.6412 36.8734L44.8544 37.3933C48.977 39.1615 51.3075 40.9628 51.3075 45.0136C51.3075 49.3814 47.8763 51.7746 43.2688 51.7746C41.4735 51.889 39.6835 51.4814 38.1148 50.601C36.5461 49.7206 35.2656 48.405 34.428 46.8131L38.3663 44.5194ZM21.2286 44.9398C21.9901 46.2913 22.6833 47.4344 24.3501 47.4344C25.9431 47.4344 26.9498 46.8112 26.9498 44.3867V27.8906H31.8007V44.4512C31.8007 49.4736 28.8507 51.7598 24.5566 51.7598C23.0387 51.8428 21.5313 51.4645 20.2324 50.6748C18.9335 49.885 17.9041 48.7206 17.2793 47.3348L21.2286 44.9398Z" fill="black"/>
</svg>
