<svg width="92" height="56" viewBox="0 0 92 56" fill="none" xmlns="http://www.w3.org/2000/svg">
<g clip-path="url(#clip0_624_165)">
<path d="M45.4807 55.8384C45.1693 55.8384 44.8786 55.756 44.6085 55.6117L41.8465 53.9834C41.4311 53.7566 41.6388 53.6742 41.7635 53.633C42.3241 53.4475 42.428 53.4061 43.0095 53.0766C43.0718 53.0352 43.155 53.0559 43.2172 53.0971L45.3355 54.3544C45.4185 54.3956 45.5224 54.3956 45.5846 54.3544L53.8709 49.593C53.9539 49.5518 53.9956 49.4692 53.9956 49.3663V39.8641C53.9956 39.7609 53.9539 39.6786 53.8709 39.6373L45.5846 34.8965C45.5016 34.8552 45.3977 34.8552 45.3355 34.8965L37.0492 39.6373C36.9662 39.6785 36.9245 39.7816 36.9245 39.8639V49.3661C36.9245 49.4487 36.9662 49.5516 37.0492 49.593L39.3129 50.8915C40.5382 51.5098 41.3066 50.7884 41.3066 50.067V40.6884C41.3066 40.5648 41.4104 40.4411 41.5558 40.4411H42.6149C42.7396 40.4411 42.8641 40.5442 42.8641 40.6884V50.067C42.8641 51.6953 41.9711 52.6435 40.4135 52.6435C39.9359 52.6435 39.5622 52.6435 38.5029 52.1281L36.3224 50.8915C35.7824 50.5824 35.4502 50.0051 35.4502 49.3868V39.8846C35.4502 39.2663 35.7824 38.689 36.3224 38.3799L44.6085 33.6185C45.1278 33.33 45.834 33.33 46.3531 33.6185L54.6392 38.3799C55.1792 38.689 55.5116 39.2663 55.5116 39.8846V49.3868C55.5116 50.0051 55.1792 50.5824 54.6392 50.8915L46.3531 55.6529C46.083 55.7767 45.7714 55.8384 45.4807 55.8384ZM48.0353 49.3044C44.4011 49.3044 43.6535 47.6554 43.6535 46.2538C43.6535 46.1301 43.7573 46.0065 43.9027 46.0065H44.9826C45.1071 46.0065 45.211 46.0889 45.211 46.2126C45.3772 47.305 45.8548 47.8409 48.0562 47.8409C49.8006 47.8409 50.5484 47.4493 50.5484 46.5217C50.5484 45.9858 50.3405 45.5943 47.6201 45.3263C45.3564 45.0994 43.9442 44.6049 43.9442 42.8116C43.9442 41.142 45.3565 40.1525 47.7239 40.1525C50.382 40.1525 51.6905 41.0596 51.8567 43.0381C51.8567 43.1001 51.836 43.1619 51.7944 43.2238C51.7527 43.265 51.6905 43.3062 51.6282 43.3062H50.5483C50.4444 43.3062 50.3405 43.2238 50.3199 43.1207C50.0706 41.9871 49.4268 41.616 47.7239 41.616C45.8133 41.616 45.5848 42.2757 45.5848 42.7702C45.5848 43.368 45.8548 43.5535 48.4299 43.8833C50.9844 44.2132 52.189 44.6873 52.189 46.4598C52.1681 48.2738 50.673 49.3044 48.0353 49.3044Z" fill="#539E43"/>
<path d="M19.7711 18.6747C19.7711 18.3038 19.5634 17.9532 19.2312 17.7677L10.4258 12.7384C10.2802 12.6558 10.1142 12.6146 9.94816 12.5939H9.86497C9.69894 12.5939 9.53273 12.6558 9.38736 12.7384L0.581953 17.7677C0.249531 17.9532 0.0419922 18.3036 0.0419922 18.6747L0.0628359 32.1962C0.0628359 32.3817 0.166695 32.5672 0.332727 32.6498C0.498938 32.7529 0.706477 32.7529 0.852023 32.6498L6.08542 29.6816C6.41766 29.4961 6.62538 29.1457 6.62538 28.7747V22.4467C6.62538 22.0758 6.83292 21.7253 7.16534 21.5398L9.38736 20.2618C9.55357 20.1587 9.74045 20.1174 9.92732 20.1174C10.1142 20.1174 10.3011 20.1587 10.4466 20.2618L12.6686 21.5398C13.0011 21.7253 13.2086 22.0756 13.2086 22.4467V28.7747C13.2086 29.1457 13.4163 29.4961 13.7486 29.6816L18.982 32.6498C19.0628 32.7003 19.1564 32.7271 19.2519 32.7271C19.3475 32.7271 19.4411 32.7003 19.5219 32.6498C19.6881 32.5672 19.792 32.3817 19.792 32.1962L19.7711 18.6747ZM62.0953 0.0618689C61.9292 -0.0207044 61.7215 -0.0207044 61.576 0.0618689C61.4099 0.164952 61.3061 0.329742 61.3061 0.515219V13.9133C61.3061 14.0369 61.2439 14.1605 61.1192 14.2431C60.9946 14.3048 60.87 14.3048 60.7455 14.2431L58.5441 12.9857C58.3827 12.8946 58.2002 12.8467 58.0145 12.8467C57.8288 12.8467 57.6463 12.8946 57.4849 12.9857L48.6794 18.0357C48.3472 18.2212 48.1395 18.5717 48.1395 18.9426V29.0219C48.1395 29.3928 48.3472 29.7435 48.6794 29.929L57.4849 34.9789C57.6463 35.0701 57.8288 35.118 58.0145 35.118C58.2002 35.118 58.3827 35.0701 58.5441 34.9789L67.3495 29.929C67.6818 29.7435 67.8895 29.393 67.8895 29.0219V3.89573C67.8895 3.50409 67.6818 3.15382 67.3495 2.96816L62.0953 0.0618689ZM61.2854 25.7034C61.2854 25.8065 61.2439 25.8889 61.1607 25.9301L58.1495 27.6615C58.1075 27.6819 58.0613 27.6925 58.0145 27.6925C57.9677 27.6925 57.9215 27.6819 57.8794 27.6615L54.8682 25.9301C54.7851 25.8889 54.7435 25.7858 54.7435 25.7034V22.2405C54.7435 22.1375 54.7851 22.0551 54.8682 22.0139L57.8794 20.2823C57.9215 20.2619 57.9677 20.2513 58.0145 20.2513C58.0613 20.2513 58.1075 20.2619 58.1495 20.2823L61.1607 22.0139C61.2439 22.0549 61.2854 22.1582 61.2854 22.2405V25.7034ZM91.3982 22.1582C91.7306 21.9727 91.9175 21.6222 91.9175 21.2511V18.7983C91.9175 18.4274 91.7098 18.0769 91.3982 17.8914L82.6551 12.8622C82.4937 12.771 82.3112 12.7231 82.1255 12.7231C81.9398 12.7231 81.7573 12.771 81.5959 12.8622L72.7905 17.912C72.458 18.0974 72.2505 18.4479 72.2505 18.8188V28.8983C72.2505 29.2693 72.4582 29.6197 72.7905 29.8052L81.5335 34.7521C81.8659 34.9376 82.2605 34.9376 82.5721 34.7521L87.8677 31.8255C88.0339 31.7429 88.1377 31.5574 88.1377 31.3719C88.1377 31.1865 88.0339 31.001 87.8677 30.9184L79.0208 25.8684C78.8546 25.7653 78.7507 25.6005 78.7507 25.4151V22.2614C78.7507 22.0759 78.8546 21.8905 79.0208 21.8079L81.7827 20.2413C81.8636 20.1908 81.9572 20.164 82.0527 20.164C82.1483 20.164 82.2418 20.1908 82.3227 20.2413L85.0849 21.8079C85.2511 21.911 85.3547 22.0758 85.3547 22.2614V24.7349C85.3547 24.9203 85.4586 25.1058 85.6248 25.1882C85.7057 25.2387 85.7993 25.2655 85.8948 25.2655C85.9903 25.2655 86.0839 25.2387 86.1648 25.1882L91.3982 22.1582Z" fill="#333333"/>
<path d="M81.99 21.6839C82.0208 21.6638 82.057 21.653 82.0939 21.653C82.1308 21.653 82.1669 21.6638 82.1977 21.6839L83.88 22.6527C83.9421 22.6941 83.9836 22.7558 83.9836 22.8382V24.7759C83.9836 24.8583 83.9423 24.9202 83.88 24.9614L82.1977 25.9301C82.1669 25.9503 82.1308 25.9611 82.0939 25.9611C82.057 25.9611 82.0208 25.9503 81.99 25.9301L80.308 24.9614C80.2456 24.9202 80.2041 24.8583 80.2041 24.7759V22.8384C80.2041 22.7558 80.2454 22.6939 80.308 22.6529L81.99 21.6839Z" fill="#539E43"/>
<path d="M34.4953 12.9034C34.3339 12.8123 34.1514 12.7643 33.9657 12.7643C33.78 12.7643 33.5976 12.8123 33.4362 12.9034L24.6931 17.9118C24.3607 18.0973 24.1738 18.4477 24.1738 18.8187V28.857C24.1738 29.2279 24.3815 29.5784 24.6931 29.7638L33.4362 34.7726C33.5976 34.8637 33.78 34.9117 33.9657 34.9117C34.1514 34.9117 34.3339 34.8637 34.4953 34.7726L43.2385 29.7638C43.5707 29.5784 43.7578 29.2279 43.7578 28.857V18.8189C43.7578 18.4479 43.5499 18.0975 43.2385 17.912L34.4953 12.9034Z" fill="url(#paint0_linear_624_165)"/>
<mask id="mask0_624_165" style="mask-type:luminance" maskUnits="userSpaceOnUse" x="24" y="12" width="20" height="23">
<path d="M34.4953 12.9034C34.3339 12.8123 34.1514 12.7643 33.9657 12.7643C33.78 12.7643 33.5976 12.8123 33.4362 12.9034L24.6931 17.9118C24.3607 18.0973 24.1738 18.4477 24.1738 18.8187V28.857C24.1738 29.2279 24.3815 29.5784 24.6931 29.7638L33.4362 34.7726C33.5976 34.8637 33.78 34.9117 33.9657 34.9117C34.1514 34.9117 34.3339 34.8637 34.4953 34.7726L43.2385 29.7638C43.5707 29.5784 43.7578 29.2279 43.7578 28.857V18.8189C43.7578 18.4479 43.5499 18.0975 43.2385 17.912L34.4953 12.9034Z" fill="white"/>
</mask>
<g mask="url(#mask0_624_165)">
<path d="M43.2588 17.912L34.4742 12.9034C34.3879 12.8601 34.2975 12.8256 34.2042 12.8003L24.3604 29.5375C24.4419 29.6363 24.5404 29.72 24.6513 29.7849L33.4358 34.7937C33.6851 34.9379 33.9758 34.9791 34.2457 34.8966L43.4874 18.1183C43.425 18.0359 43.3418 17.9737 43.2588 17.912Z" fill="url(#paint1_linear_624_165)"/>
</g>
<mask id="mask1_624_165" style="mask-type:luminance" maskUnits="userSpaceOnUse" x="24" y="12" width="20" height="23">
<path d="M34.4953 12.9034C34.3339 12.8123 34.1514 12.7643 33.9657 12.7643C33.78 12.7643 33.5976 12.8123 33.4362 12.9034L24.6931 17.9118C24.3607 18.0973 24.1738 18.4477 24.1738 18.8187V28.857C24.1738 29.2279 24.3815 29.5784 24.6931 29.7638L33.4362 34.7726C33.5976 34.8637 33.78 34.9117 33.9657 34.9117C34.1514 34.9117 34.3339 34.8637 34.4953 34.7726L43.2385 29.7638C43.5707 29.5784 43.7578 29.2279 43.7578 28.857V18.8189C43.7578 18.4479 43.5499 18.0975 43.2385 17.912L34.4953 12.9034Z" fill="white"/>
</mask>
<g mask="url(#mask1_624_165)">
<path fill-rule="evenodd" clip-rule="evenodd" d="M43.2804 29.764C43.5296 29.6197 43.7165 29.3723 43.7997 29.1045L34.1632 12.7796C33.914 12.7384 33.644 12.7589 33.4157 12.9032L24.6934 17.8914L34.1009 34.917C34.2377 34.8949 34.3707 34.8533 34.4955 34.7934L43.2804 29.764Z" fill="url(#paint2_linear_624_165)"/>
<path fill-rule="evenodd" clip-rule="evenodd" d="M43.2796 29.764L34.5157 34.7728C34.3919 34.8353 34.2586 34.8771 34.1211 34.8964L34.2873 35.2056L44.0064 29.6199V29.4961L43.7572 29.0838C43.7157 29.3724 43.5288 29.6197 43.2796 29.764Z" fill="url(#paint3_linear_624_165)"/>
<path fill-rule="evenodd" clip-rule="evenodd" d="M43.2796 29.764L34.5157 34.7728C34.3919 34.8353 34.2586 34.8771 34.1211 34.8964L34.2873 35.2056L44.0064 29.6199V29.4961L43.7572 29.0838C43.7157 29.3724 43.5288 29.6197 43.2796 29.764Z" fill="url(#paint4_linear_624_165)"/>
</g>
</g>
<defs>
<linearGradient id="paint0_linear_624_165" x1="1359.57" y1="400.054" x2="411.457" y2="1901.05" gradientUnits="userSpaceOnUse">
<stop stop-color="#41873F"/>
<stop offset="0.3288" stop-color="#418B3D"/>
<stop offset="0.6352" stop-color="#419637"/>
<stop offset="0.9319" stop-color="#3FA92D"/>
<stop offset="1" stop-color="#3FAE2A"/>
</linearGradient>
<linearGradient id="paint1_linear_624_165" x1="852.12" y1="1234.15" x2="3243.95" y2="-75.1278" gradientUnits="userSpaceOnUse">
<stop offset="0.1376" stop-color="#41873F"/>
<stop offset="0.4032" stop-color="#54A044"/>
<stop offset="0.7136" stop-color="#66B848"/>
<stop offset="0.9081" stop-color="#6CC04A"/>
</linearGradient>
<linearGradient id="paint2_linear_624_165" x1="-59.1644" y1="1120.51" x2="1963.97" y2="1120.51" gradientUnits="userSpaceOnUse">
<stop offset="0.09192" stop-color="#6CC04A"/>
<stop offset="0.2864" stop-color="#66B848"/>
<stop offset="0.5968" stop-color="#54A044"/>
<stop offset="0.8624" stop-color="#41873F"/>
</linearGradient>
<linearGradient id="paint3_linear_624_165" x1="-992.579" y1="336.859" x2="1030.53" y2="336.859" gradientUnits="userSpaceOnUse">
<stop offset="0.09192" stop-color="#6CC04A"/>
<stop offset="0.2864" stop-color="#66B848"/>
<stop offset="0.5968" stop-color="#54A044"/>
<stop offset="0.8624" stop-color="#41873F"/>
</linearGradient>
<linearGradient id="paint4_linear_624_165" x1="1325.27" y1="-1263.05" x2="820.112" y2="1403.93" gradientUnits="userSpaceOnUse">
<stop stop-color="#41873F"/>
<stop offset="0.3288" stop-color="#418B3D"/>
<stop offset="0.6352" stop-color="#419637"/>
<stop offset="0.9319" stop-color="#3FA92D"/>
<stop offset="1" stop-color="#3FAE2A"/>
</linearGradient>
<clipPath id="clip0_624_165">
<rect width="92" height="56" fill="white"/>
</clipPath>
</defs>
</svg>
