<svg width="372" height="168" viewBox="0 0 372 168" fill="none" xmlns="http://www.w3.org/2000/svg">
<path d="M0 47.2694V16.4987L5.2533e-05 7.97468V0H52.4736H101.668H185.415H273.316H332.176H351.854H372V16.4987V168H0V47.2694Z" fill="#204057"/>
<path d="M170.16 92.246V86.292C170.16 85.9367 169.974 85.629 169.601 85.369C169.237 85.1003 168.799 84.888 168.288 84.732C167.777 84.5673 167.309 84.4633 166.884 84.42V81.846C167.309 81.8027 167.777 81.7117 168.288 81.573C168.799 81.4343 169.237 81.2437 169.601 81.001C169.974 80.7497 170.16 80.442 170.16 80.078V74.124C170.16 72.876 170.411 71.9833 170.914 71.446C171.417 70.9087 172.153 70.64 173.124 70.64C173.826 70.64 174.558 70.6747 175.321 70.744C176.084 70.8047 176.738 70.874 177.284 70.952V73.318H174.138V80.182C174.138 80.4767 174.095 80.741 174.008 80.975C173.93 81.2003 173.817 81.404 173.67 81.586C173.471 81.8373 173.189 82.0713 172.825 82.288C172.47 82.496 172.084 82.6867 171.668 82.86C171.261 83.0247 170.879 83.1633 170.524 83.276V83.016C170.879 83.1287 171.256 83.2673 171.655 83.432C172.062 83.588 172.444 83.77 172.799 83.978C173.154 84.1773 173.436 84.4027 173.644 84.654C173.817 84.8187 173.943 85.018 174.021 85.252C174.099 85.486 174.138 85.7547 174.138 86.058V93.156H177.284V95.366C176.738 95.522 176.084 95.6347 175.321 95.704C174.558 95.7733 173.826 95.808 173.124 95.808C172.153 95.808 171.417 95.5263 170.914 94.963C170.411 94.3997 170.16 93.494 170.16 92.246Z" fill="#FF0DBB"/>
<path d="M189.59 93.208C187.597 93.208 186.002 92.8613 184.806 92.168C183.61 91.4747 182.748 90.504 182.219 89.256C181.69 88.008 181.426 86.552 181.426 84.888L181.478 73.682H186.288L186.236 84.316C186.227 85.668 186.344 86.7123 186.587 87.449C186.838 88.177 187.207 88.684 187.692 88.97C188.186 89.2473 188.793 89.386 189.512 89.386C190.24 89.386 190.847 89.2387 191.332 88.944C191.817 88.6493 192.181 88.1337 192.424 87.397C192.667 86.6603 192.788 85.6333 192.788 84.316V73.682H197.572V84.966C197.572 87.5487 196.935 89.568 195.661 91.024C194.396 92.48 192.372 93.208 189.59 93.208ZM201.444 92.038L201.912 88.788C202.051 88.9093 202.337 89.074 202.77 89.282C203.212 89.4813 203.732 89.6633 204.33 89.828C204.928 89.984 205.543 90.062 206.176 90.062C206.93 90.0707 207.467 89.9927 207.788 89.828C208.117 89.6547 208.282 89.386 208.282 89.022C208.282 88.7707 208.165 88.554 207.931 88.372C207.697 88.1813 207.381 88.0037 206.982 87.839C206.583 87.6743 206.141 87.5053 205.656 87.332C204.599 86.9507 203.758 86.5303 203.134 86.071C202.519 85.6117 202.077 85.096 201.808 84.524C201.539 83.9433 201.409 83.2847 201.418 82.548C201.418 81.612 201.687 80.832 202.224 80.208C202.77 79.584 203.498 79.116 204.408 78.804C205.318 78.492 206.323 78.336 207.424 78.336C208.611 78.336 209.604 78.44 210.401 78.648C211.198 78.8473 211.757 79.038 212.078 79.22L211.662 82.522C211.489 82.366 211.216 82.2013 210.843 82.028C210.47 81.8547 210.05 81.7073 209.582 81.586C209.114 81.4647 208.646 81.404 208.178 81.404C207.372 81.404 206.8 81.4863 206.462 81.651C206.133 81.8157 205.968 82.0627 205.968 82.392C205.968 82.782 206.146 83.068 206.501 83.25C206.856 83.432 207.415 83.666 208.178 83.952C209.322 84.368 210.241 84.7883 210.934 85.213C211.636 85.6377 212.143 86.1187 212.455 86.656C212.776 87.1933 212.936 87.8433 212.936 88.606C212.936 90.114 212.377 91.258 211.259 92.038C210.15 92.818 208.672 93.208 206.826 93.208C206.029 93.208 205.27 93.143 204.551 93.013C203.832 92.8917 203.199 92.74 202.653 92.558C202.116 92.376 201.713 92.2027 201.444 92.038ZM223.041 93.208C220.701 93.208 218.916 92.545 217.685 91.219C216.454 89.8843 215.839 88.0427 215.839 85.694C215.839 84.29 216.125 83.0333 216.697 81.924C217.269 80.8147 218.092 79.9393 219.167 79.298C220.25 78.6567 221.559 78.336 223.093 78.336C223.864 78.336 224.61 78.427 225.329 78.609C226.048 78.7823 226.694 79.09 227.266 79.532C227.838 79.9653 228.297 80.5633 228.644 81.326C228.991 82.0887 229.168 83.0507 229.177 84.212C229.177 84.732 229.16 85.226 229.125 85.694C229.099 86.162 229.064 86.552 229.021 86.864H218.257L218.517 84.524H224.809C224.852 83.822 224.818 83.237 224.705 82.769C224.601 82.2923 224.406 81.937 224.12 81.703C223.843 81.469 223.466 81.352 222.989 81.352C222.443 81.352 221.979 81.5037 221.598 81.807C221.225 82.1017 220.944 82.613 220.753 83.341C220.562 84.069 220.476 85.0787 220.493 86.37C220.51 87.2107 220.662 87.891 220.948 88.411C221.243 88.9223 221.659 89.295 222.196 89.529C222.733 89.763 223.379 89.88 224.133 89.88C224.601 89.88 225.091 89.8453 225.602 89.776C226.113 89.7067 226.586 89.6157 227.019 89.503C227.461 89.3903 227.799 89.2733 228.033 89.152L228.761 91.648C228.44 91.908 227.994 92.1593 227.422 92.402C226.859 92.636 226.2 92.831 225.446 92.987C224.701 93.1343 223.899 93.208 223.041 93.208ZM238.815 93.208C237.897 93.208 237.017 93.1387 236.176 93C235.344 92.87 234.621 92.714 234.005 92.532C233.39 92.3413 232.957 92.168 232.705 92.012L233.303 88.242C233.624 88.424 234.057 88.6103 234.603 88.801C235.149 88.9917 235.752 89.1563 236.41 89.295C237.078 89.425 237.749 89.49 238.425 89.49C239.335 89.49 239.994 89.36 240.401 89.1C240.817 88.84 241.025 88.424 241.025 87.852C241.025 87.436 240.9 87.085 240.648 86.799C240.397 86.5043 239.981 86.2053 239.4 85.902C238.828 85.5987 238.061 85.2173 237.099 84.758C236.285 84.368 235.535 83.9087 234.85 83.38C234.166 82.8427 233.615 82.2013 233.199 81.456C232.783 80.702 232.575 79.8093 232.575 78.778C232.575 77.894 232.74 77.1227 233.069 76.464C233.407 75.7967 233.88 75.242 234.486 74.8C235.102 74.358 235.83 74.0287 236.67 73.812C237.511 73.5867 238.443 73.474 239.465 73.474C240.921 73.474 242.109 73.6083 243.027 73.877C243.946 74.1457 244.579 74.384 244.925 74.592L244.171 78.206C243.781 77.9027 243.179 77.6253 242.364 77.374C241.558 77.114 240.731 76.984 239.881 76.984C239.275 76.984 238.776 77.0533 238.386 77.192C237.996 77.322 237.706 77.5083 237.515 77.751C237.325 77.9937 237.229 78.2753 237.229 78.596C237.229 78.986 237.342 79.3327 237.567 79.636C237.801 79.9307 238.161 80.2253 238.646 80.52C239.14 80.806 239.777 81.1267 240.557 81.482C241.389 81.8547 242.13 82.236 242.78 82.626C243.439 83.016 243.998 83.4407 244.457 83.9C244.917 84.3593 245.263 84.8837 245.497 85.473C245.74 86.0537 245.861 86.7253 245.861 87.488C245.861 88.6407 245.588 89.646 245.042 90.504C244.505 91.362 243.712 92.0293 242.663 92.506C241.615 92.974 240.332 93.208 238.815 93.208ZM254.406 93.208C253.366 93.208 252.534 93.0347 251.91 92.688C251.294 92.3413 250.848 91.8213 250.571 91.128C250.302 90.426 250.168 89.5507 250.168 88.502V81.612H248.504V79.116C249.145 78.934 249.674 78.7477 250.09 78.557C250.506 78.3577 250.809 78.0587 251 77.66C251.095 77.4607 251.199 77.2223 251.312 76.945C251.424 76.6677 251.541 76.3773 251.663 76.074C251.784 75.7707 251.901 75.4847 252.014 75.216H254.874V78.518H258.618V81.612H254.874V86.76C254.874 87.6613 254.921 88.32 255.017 88.736C255.121 89.152 255.294 89.4163 255.537 89.529C255.779 89.6417 256.113 89.698 256.538 89.698C256.754 89.698 257.001 89.672 257.279 89.62C257.556 89.5593 257.82 89.4857 258.072 89.399C258.323 89.3123 258.522 89.2213 258.67 89.126L259.216 91.726C258.99 91.9513 258.631 92.181 258.137 92.415C257.651 92.6403 257.084 92.831 256.434 92.987C255.784 93.1343 255.108 93.208 254.406 93.208ZM266.677 93.208C265.723 93.208 264.891 93.013 264.181 92.623C263.479 92.2243 262.933 91.6783 262.543 90.985C262.161 90.283 261.971 89.4813 261.971 88.58C261.971 87.7307 262.2 86.994 262.66 86.37C263.128 85.7373 263.765 85.252 264.571 84.914C265.151 84.6627 265.784 84.4763 266.469 84.355C267.153 84.225 267.838 84.1383 268.523 84.095C269.216 84.0517 269.866 84.03 270.473 84.03L271.149 84.862L270.473 86.292C270.169 86.3007 269.853 86.3267 269.524 86.37C269.203 86.4047 268.9 86.4567 268.614 86.526C268.328 86.5867 268.098 86.656 267.925 86.734C267.656 86.8467 267.4 87.0157 267.158 87.241C266.924 87.4577 266.807 87.826 266.807 88.346C266.807 89.0307 266.993 89.529 267.366 89.841C267.747 90.1443 268.176 90.296 268.653 90.296C268.904 90.296 269.151 90.2657 269.394 90.205C269.645 90.1443 269.866 90.0707 270.057 89.984C270.247 89.8887 270.386 89.7933 270.473 89.698L271.227 90.66L270.707 91.778C270.308 92.1247 269.779 92.4497 269.121 92.753C268.471 93.0563 267.656 93.208 266.677 93.208ZM275.153 93H270.707V90.842H270.473V83.172C270.473 82.5307 270.295 82.1103 269.94 81.911C269.593 81.7117 269.095 81.612 268.445 81.612C267.89 81.612 267.309 81.6553 266.703 81.742C266.105 81.8287 265.524 81.95 264.961 82.106C264.397 82.2533 263.903 82.4267 263.479 82.626L262.517 79.87C262.872 79.6533 263.383 79.4237 264.051 79.181C264.727 78.9297 265.485 78.7173 266.326 78.544C267.166 78.3707 268.02 78.284 268.887 78.284C270.403 78.284 271.621 78.4617 272.54 78.817C273.458 79.1723 274.121 79.7487 274.529 80.546C274.945 81.3433 275.153 82.4093 275.153 83.744V93ZM284.492 93.208C283.452 93.208 282.62 93.0347 281.996 92.688C281.38 92.3413 280.934 91.8213 280.657 91.128C280.388 90.426 280.254 89.5507 280.254 88.502V81.612H278.59V79.116C279.231 78.934 279.76 78.7477 280.176 78.557C280.592 78.3577 280.895 78.0587 281.086 77.66C281.181 77.4607 281.285 77.2223 281.398 76.945C281.51 76.6677 281.627 76.3773 281.749 76.074C281.87 75.7707 281.987 75.4847 282.1 75.216H284.96V78.518H288.704V81.612H284.96V86.76C284.96 87.6613 285.007 88.32 285.103 88.736C285.207 89.152 285.38 89.4163 285.623 89.529C285.865 89.6417 286.199 89.698 286.624 89.698C286.84 89.698 287.087 89.672 287.365 89.62C287.642 89.5593 287.906 89.4857 288.158 89.399C288.409 89.3123 288.608 89.2213 288.756 89.126L289.302 91.726C289.076 91.9513 288.717 92.181 288.223 92.415C287.737 92.6403 287.17 92.831 286.52 92.987C285.87 93.1343 285.194 93.208 284.492 93.208ZM299.259 93.208C296.919 93.208 295.133 92.545 293.903 91.219C292.672 89.8843 292.057 88.0427 292.057 85.694C292.057 84.29 292.343 83.0333 292.915 81.924C293.487 80.8147 294.31 79.9393 295.385 79.298C296.468 78.6567 297.777 78.336 299.311 78.336C300.082 78.336 300.827 78.427 301.547 78.609C302.266 78.7823 302.912 79.09 303.484 79.532C304.056 79.9653 304.515 80.5633 304.862 81.326C305.208 82.0887 305.386 83.0507 305.395 84.212C305.395 84.732 305.377 85.226 305.343 85.694C305.317 86.162 305.282 86.552 305.239 86.864H294.475L294.735 84.524H301.027C301.07 83.822 301.035 83.237 300.923 82.769C300.819 82.2923 300.624 81.937 300.338 81.703C300.06 81.469 299.683 81.352 299.207 81.352C298.661 81.352 298.197 81.5037 297.816 81.807C297.443 82.1017 297.161 82.613 296.971 83.341C296.78 84.069 296.693 85.0787 296.711 86.37C296.728 87.2107 296.88 87.891 297.166 88.411C297.46 88.9223 297.876 89.295 298.414 89.529C298.951 89.763 299.597 89.88 300.351 89.88C300.819 89.88 301.308 89.8453 301.82 89.776C302.331 89.7067 302.803 89.6157 303.237 89.503C303.679 89.3903 304.017 89.2733 304.251 89.152L304.979 91.648C304.658 91.908 304.212 92.1593 303.64 92.402C303.076 92.636 302.418 92.831 301.664 92.987C300.918 93.1343 300.117 93.208 299.259 93.208Z" fill="white"/>
<path d="M321.578 92.246C321.578 93.494 321.327 94.3997 320.824 94.963C320.321 95.5263 319.585 95.808 318.614 95.808C317.912 95.808 317.18 95.7733 316.417 95.704C315.654 95.6347 315 95.522 314.454 95.366V93.156H317.6V86.058C317.6 85.7547 317.639 85.486 317.717 85.252C317.795 85.018 317.921 84.8187 318.094 84.654C318.302 84.4027 318.584 84.1773 318.939 83.978C319.294 83.77 319.671 83.588 320.07 83.432C320.477 83.2673 320.859 83.1287 321.214 83.016V83.276C320.859 83.1633 320.473 83.0247 320.057 82.86C319.65 82.6867 319.264 82.496 318.9 82.288C318.545 82.0713 318.267 81.8373 318.068 81.586C317.921 81.404 317.804 81.2003 317.717 80.975C317.639 80.741 317.6 80.4767 317.6 80.182V73.318H314.454V70.952C315 70.874 315.654 70.8047 316.417 70.744C317.18 70.6747 317.912 70.64 318.614 70.64C319.585 70.64 320.321 70.9087 320.824 71.446C321.327 71.9833 321.578 72.876 321.578 74.124V80.078C321.578 80.442 321.76 80.7497 322.124 81.001C322.497 81.2437 322.939 81.4343 323.45 81.573C323.961 81.7117 324.429 81.8027 324.854 81.846V84.42C324.429 84.4633 323.961 84.5673 323.45 84.732C322.939 84.888 322.497 85.1003 322.124 85.369C321.76 85.629 321.578 85.9367 321.578 86.292V92.246Z" fill="#FF0DBB"/>
<path d="M152.44 66V52.626H155.806V58.044H160.396V52.626H163.744V66H160.396V60.456H155.806V66H152.44ZM171.45 66.144C170.526 66.144 169.74 66.003 169.092 65.721C168.45 65.433 167.934 65.04 167.544 64.542C167.154 64.044 166.872 63.474 166.698 62.832C166.524 62.184 166.44 61.5 166.446 60.78C166.464 59.712 166.695 58.812 167.139 58.08C167.583 57.348 168.192 56.793 168.966 56.415C169.74 56.037 170.628 55.848 171.63 55.848C172.866 55.848 173.85 56.094 174.582 56.586C175.32 57.078 175.848 57.729 176.166 58.539C176.484 59.349 176.634 60.234 176.616 61.194C176.604 62.268 176.376 63.174 175.932 63.912C175.494 64.644 174.888 65.199 174.114 65.577C173.34 65.955 172.452 66.144 171.45 66.144ZM171.522 63.894C172.164 63.894 172.608 63.66 172.854 63.192C173.106 62.718 173.232 62.004 173.232 61.05C173.232 60.51 173.181 60.018 173.079 59.574C172.977 59.124 172.806 58.767 172.566 58.503C172.326 58.233 171.996 58.098 171.576 58.098C170.922 58.098 170.466 58.335 170.208 58.809C169.956 59.283 169.83 59.976 169.83 60.888C169.83 61.44 169.881 61.944 169.983 62.4C170.091 62.856 170.268 63.219 170.514 63.489C170.76 63.759 171.096 63.894 171.522 63.894ZM180.688 66.144L177.682 55.974H180.85L181.768 60.024L182.632 64.2H181.948L182.92 60.024L184.108 55.974H187.024L188.212 60.024L189.112 64.182H188.464L189.31 60.024L190.264 55.974H193.288L190.12 66.144H187.276L185.818 61.212L185.17 58.008H185.71L185.044 61.212L183.64 66.144H180.688ZM199.353 66V52.626C199.491 52.626 199.629 52.626 199.767 52.626C199.905 52.626 200.043 52.626 200.181 52.626C200.319 52.626 200.457 52.626 200.595 52.626C200.817 52.626 201.135 52.614 201.549 52.59C201.969 52.566 202.419 52.542 202.899 52.518C203.385 52.494 203.835 52.482 204.249 52.482C206.517 52.482 208.179 53.049 209.235 54.183C210.291 55.317 210.819 56.916 210.819 58.98C210.819 60.498 210.552 61.794 210.018 62.868C209.484 63.936 208.713 64.752 207.705 65.316C206.697 65.874 205.479 66.15 204.051 66.144C203.397 66.132 202.776 66.105 202.188 66.063C201.606 66.021 201.057 66 200.541 66C200.409 66 200.277 66 200.145 66C200.013 66 199.881 66 199.749 66C199.617 66 199.485 66 199.353 66ZM202.719 63.534C202.893 63.588 203.118 63.627 203.394 63.651C203.67 63.669 203.955 63.678 204.249 63.678C204.873 63.672 205.416 63.513 205.878 63.201C206.346 62.889 206.706 62.409 206.958 61.761C207.216 61.113 207.345 60.282 207.345 59.268C207.345 58.194 207.228 57.339 206.994 56.703C206.76 56.061 206.403 55.599 205.923 55.317C205.449 55.035 204.849 54.894 204.123 54.894C203.901 54.894 203.652 54.909 203.376 54.939C203.1 54.963 202.881 54.99 202.719 55.02V63.534ZM217.818 66.144C216.894 66.144 216.108 66.003 215.46 65.721C214.818 65.433 214.302 65.04 213.912 64.542C213.522 64.044 213.24 63.474 213.066 62.832C212.892 62.184 212.808 61.5 212.814 60.78C212.832 59.712 213.063 58.812 213.507 58.08C213.951 57.348 214.56 56.793 215.334 56.415C216.108 56.037 216.996 55.848 217.998 55.848C219.234 55.848 220.218 56.094 220.95 56.586C221.688 57.078 222.216 57.729 222.534 58.539C222.852 59.349 223.002 60.234 222.984 61.194C222.972 62.268 222.744 63.174 222.3 63.912C221.862 64.644 221.256 65.199 220.482 65.577C219.708 65.955 218.82 66.144 217.818 66.144ZM217.89 63.894C218.532 63.894 218.976 63.66 219.222 63.192C219.474 62.718 219.6 62.004 219.6 61.05C219.6 60.51 219.549 60.018 219.447 59.574C219.345 59.124 219.174 58.767 218.934 58.503C218.694 58.233 218.364 58.098 217.944 58.098C217.29 58.098 216.834 58.335 216.576 58.809C216.324 59.283 216.198 59.976 216.198 60.888C216.198 61.44 216.249 61.944 216.351 62.4C216.459 62.856 216.636 63.219 216.882 63.489C217.128 63.759 217.464 63.894 217.89 63.894ZM229.81 66.144C228.19 66.144 226.954 65.685 226.102 64.767C225.25 63.843 224.824 62.568 224.824 60.942C224.824 59.97 225.022 59.1 225.418 58.332C225.814 57.564 226.384 56.958 227.128 56.514C227.878 56.07 228.784 55.848 229.846 55.848C230.38 55.848 230.896 55.911 231.394 56.037C231.892 56.157 232.339 56.37 232.735 56.676C233.131 56.976 233.449 57.39 233.689 57.918C233.929 58.446 234.052 59.112 234.058 59.916C234.058 60.276 234.046 60.618 234.022 60.942C234.004 61.266 233.98 61.536 233.95 61.752H226.498L226.678 60.132H231.034C231.064 59.646 231.04 59.241 230.962 58.917C230.89 58.587 230.755 58.341 230.557 58.179C230.365 58.017 230.104 57.936 229.774 57.936C229.396 57.936 229.075 58.041 228.811 58.251C228.553 58.455 228.358 58.809 228.226 59.313C228.094 59.817 228.034 60.516 228.046 61.41C228.058 61.992 228.163 62.463 228.361 62.823C228.565 63.177 228.853 63.435 229.225 63.597C229.597 63.759 230.044 63.84 230.566 63.84C230.89 63.84 231.229 63.816 231.583 63.768C231.937 63.72 232.264 63.657 232.564 63.579C232.87 63.501 233.104 63.42 233.266 63.336L233.77 65.064C233.548 65.244 233.239 65.418 232.843 65.586C232.453 65.748 231.997 65.883 231.475 65.991C230.959 66.093 230.404 66.144 229.81 66.144ZM236.285 65.334L236.609 63.084C236.705 63.168 236.903 63.282 237.203 63.426C237.509 63.564 237.869 63.69 238.283 63.804C238.697 63.912 239.123 63.966 239.561 63.966C240.083 63.972 240.455 63.918 240.677 63.804C240.905 63.684 241.019 63.498 241.019 63.246C241.019 63.072 240.938 62.922 240.776 62.796C240.614 62.664 240.395 62.541 240.119 62.427C239.843 62.313 239.537 62.196 239.201 62.076C238.469 61.812 237.887 61.521 237.455 61.203C237.029 60.885 236.723 60.528 236.537 60.132C236.351 59.73 236.261 59.274 236.267 58.764C236.267 58.116 236.453 57.576 236.825 57.144C237.203 56.712 237.707 56.388 238.337 56.172C238.967 55.956 239.663 55.848 240.425 55.848C241.247 55.848 241.934 55.92 242.486 56.064C243.038 56.202 243.425 56.334 243.647 56.46L243.359 58.746C243.239 58.638 243.05 58.524 242.792 58.404C242.534 58.284 242.243 58.182 241.919 58.098C241.595 58.014 241.271 57.972 240.947 57.972C240.389 57.972 239.993 58.029 239.759 58.143C239.531 58.257 239.417 58.428 239.417 58.656C239.417 58.926 239.54 59.124 239.786 59.25C240.032 59.376 240.419 59.538 240.947 59.736C241.739 60.024 242.375 60.315 242.855 60.609C243.341 60.903 243.692 61.236 243.908 61.608C244.13 61.98 244.241 62.43 244.241 62.958C244.241 64.002 243.854 64.794 243.08 65.334C242.312 65.874 241.289 66.144 240.011 66.144C239.459 66.144 238.934 66.099 238.436 66.009C237.938 65.925 237.5 65.82 237.122 65.694C236.75 65.568 236.471 65.448 236.285 65.334Z" fill="white"/>
<path d="M269.78 113.1L265.88 98.14H269.6L271.16 106.44L271.8 111.3H271.42L272.16 106.44L274.12 98.14H277.5L279.52 106.44L280.32 111.32H279.88L280.52 106.44L282.06 98.14H285.64L281.72 113.1H278.06L276.16 105.34L275.18 98.9H276.14L275.26 105.34L273.38 113.1H269.78ZM292.081 113.16C291.054 113.16 290.181 113.003 289.461 112.69C288.748 112.37 288.174 111.933 287.741 111.38C287.308 110.827 286.994 110.193 286.801 109.48C286.608 108.76 286.514 108 286.521 107.2C286.541 106.013 286.798 105.013 287.291 104.2C287.784 103.387 288.461 102.77 289.321 102.35C290.181 101.93 291.168 101.72 292.281 101.72C293.654 101.72 294.748 101.993 295.561 102.54C296.381 103.087 296.968 103.81 297.321 104.71C297.674 105.61 297.841 106.593 297.821 107.66C297.808 108.853 297.554 109.86 297.061 110.68C296.574 111.493 295.901 112.11 295.041 112.53C294.181 112.95 293.194 113.16 292.081 113.16ZM292.161 110.66C292.874 110.66 293.368 110.4 293.641 109.88C293.921 109.353 294.061 108.56 294.061 107.5C294.061 106.9 294.004 106.353 293.891 105.86C293.778 105.36 293.588 104.963 293.321 104.67C293.054 104.37 292.688 104.22 292.221 104.22C291.494 104.22 290.988 104.483 290.701 105.01C290.421 105.537 290.281 106.307 290.281 107.32C290.281 107.933 290.338 108.493 290.451 109C290.571 109.507 290.768 109.91 291.041 110.21C291.314 110.51 291.688 110.66 292.161 110.66ZM303.981 106.44L303.841 103.82C303.974 103.413 304.198 103.05 304.511 102.73C304.831 102.41 305.211 102.16 305.651 101.98C306.098 101.793 306.581 101.7 307.101 101.7C307.261 101.7 307.421 101.71 307.581 101.73C307.741 101.75 307.854 101.78 307.921 101.82V105.4C307.834 105.34 307.698 105.28 307.511 105.22C307.324 105.153 307.061 105.12 306.721 105.12C306.188 105.12 305.738 105.2 305.371 105.36C305.011 105.513 304.718 105.693 304.491 105.9C304.271 106.107 304.101 106.287 303.981 106.44ZM300.581 113V101.86H303.741L303.921 103.84L304.201 104.14V113H300.581ZM321.658 101.86L314.138 109.96L314.238 109.22L314.278 111.16V113H310.718V106.38V96.78H314.278V102.92L314.118 107.02L313.698 106.52L317.538 101.86H321.658ZM315.138 108.34L317.498 105.84L321.918 113H317.898L315.138 108.34ZM323.185 112.26L323.545 109.76C323.652 109.853 323.872 109.98 324.205 110.14C324.545 110.293 324.945 110.433 325.405 110.56C325.865 110.68 326.338 110.74 326.825 110.74C327.405 110.747 327.818 110.687 328.065 110.56C328.318 110.427 328.445 110.22 328.445 109.94C328.445 109.747 328.355 109.58 328.175 109.44C327.995 109.293 327.752 109.157 327.445 109.03C327.138 108.903 326.798 108.773 326.425 108.64C325.612 108.347 324.965 108.023 324.485 107.67C324.012 107.317 323.672 106.92 323.465 106.48C323.258 106.033 323.158 105.527 323.165 104.96C323.165 104.24 323.372 103.64 323.785 103.16C324.205 102.68 324.765 102.32 325.465 102.08C326.165 101.84 326.938 101.72 327.785 101.72C328.698 101.72 329.462 101.8 330.075 101.96C330.688 102.113 331.118 102.26 331.365 102.4L331.045 104.94C330.912 104.82 330.702 104.693 330.415 104.56C330.128 104.427 329.805 104.313 329.445 104.22C329.085 104.127 328.725 104.08 328.365 104.08C327.745 104.08 327.305 104.143 327.045 104.27C326.792 104.397 326.665 104.587 326.665 104.84C326.665 105.14 326.802 105.36 327.075 105.5C327.348 105.64 327.778 105.82 328.365 106.04C329.245 106.36 329.952 106.683 330.485 107.01C331.025 107.337 331.415 107.707 331.655 108.12C331.902 108.533 332.025 109.033 332.025 109.62C332.025 110.78 331.595 111.66 330.735 112.26C329.882 112.86 328.745 113.16 327.325 113.16C326.712 113.16 326.128 113.11 325.575 113.01C325.022 112.917 324.535 112.8 324.115 112.66C323.702 112.52 323.392 112.387 323.185 112.26Z" fill="#F58219"/>
<path d="M112.598 76.3367C111.736 76.0412 110.867 75.7674 109.991 75.5157C110.138 74.9151 110.274 74.3218 110.394 73.7388C112.367 64.1666 111.077 56.4551 106.67 53.916C102.444 51.482 95.5337 54.02 88.5544 60.0885C87.8666 60.6876 87.194 61.304 86.5373 61.9371C86.0977 61.5161 85.6504 61.1033 85.1955 60.6989C77.8808 54.2103 70.549 51.4756 66.1465 54.0219C61.9247 56.4636 60.6746 63.713 62.4515 72.7848C62.6283 73.6833 62.8279 74.5771 63.0502 75.4654C62.0124 75.7601 61.0109 76.0736 60.0526 76.4075C51.4767 79.3947 46 84.076 46 88.9318C46 93.947 51.8795 98.9773 60.8116 102.027C61.5358 102.274 62.2659 102.502 63.0015 102.712C62.7626 103.669 62.5505 104.632 62.3655 105.6C60.6714 114.515 61.9943 121.593 66.2048 124.019C70.5534 126.525 77.8523 123.95 84.9591 117.743C85.5354 117.238 86.099 116.719 86.6493 116.186C87.3605 116.872 88.0906 117.538 88.8389 118.182C95.7232 124.101 102.522 126.49 106.728 124.058C111.073 121.545 112.485 113.941 110.652 104.69C110.508 103.965 110.346 103.244 110.166 102.527C110.679 102.375 111.182 102.219 111.672 102.057C120.958 98.9833 127 94.014 127 88.9318C127 84.0583 121.346 79.3454 112.598 76.3367ZM110.584 98.7756C110.141 98.922 109.687 99.0633 109.224 99.2008C108.199 95.9584 106.815 92.5109 105.122 88.9486C106.738 85.4714 108.068 82.0678 109.064 78.8466C109.893 79.0862 110.697 79.3388 111.472 79.6053C118.968 82.1835 123.54 85.9948 123.54 88.9318C123.54 92.0601 118.602 96.1212 110.584 98.7756ZM107.258 105.361C108.068 109.452 108.184 113.151 107.647 116.042C107.164 118.64 106.194 120.372 104.995 121.066C102.442 122.542 96.9832 120.623 91.0958 115.562C90.3998 114.962 89.7207 114.344 89.0591 113.706C91.3416 111.212 93.6226 108.313 95.8489 105.093C99.7647 104.746 103.464 104.179 106.819 103.404C106.981 104.053 107.127 104.706 107.258 105.361ZM73.6147 120.811C71.1208 121.691 69.1344 121.716 67.9336 121.024C65.3786 119.552 64.3164 113.869 65.7653 106.245C65.9375 105.345 66.1347 104.449 66.3566 103.559C69.6745 104.292 73.347 104.819 77.272 105.137C79.5134 108.288 81.8602 111.184 84.2254 113.72C83.7227 114.206 83.2082 114.679 82.6822 115.14C79.5394 117.884 76.3902 119.832 73.6147 120.811ZM61.9311 98.7563C57.9814 97.4075 54.7195 95.6546 52.4838 93.7418C50.4746 92.0231 49.4605 90.3164 49.4605 88.9318C49.4605 85.985 53.8576 82.2265 61.1916 79.672C62.0817 79.3622 63.0132 79.0698 63.9798 78.7954C64.9936 82.0893 66.3231 85.5333 67.9276 89.0159C66.3022 92.5501 64.9537 96.0491 63.9301 99.3819C63.2587 99.1898 62.5922 98.9812 61.9311 98.7563ZM65.8475 72.1207C64.3253 64.3484 65.3362 58.4854 67.8804 57.0139C70.5901 55.4467 76.5822 57.6813 82.898 63.284C83.3099 63.6502 83.715 64.0238 84.1133 64.4047C81.7599 66.9295 79.4346 69.8039 77.2132 72.9359C73.4036 73.2887 69.757 73.8552 66.4044 74.6142C66.1978 73.7879 66.0122 72.9563 65.8475 72.1207ZM100.787 80.7407C99.9954 79.3742 99.1742 78.0248 98.3241 76.6935C100.909 77.0201 103.385 77.4535 105.71 77.9833C105.012 80.2188 104.142 82.5559 103.118 84.952C102.369 83.5329 101.592 82.1288 100.787 80.7407ZM86.5389 66.8757C88.1349 68.6033 89.7334 70.5319 91.3056 72.6245C88.1162 72.4741 84.9215 72.4734 81.7321 72.6226C83.3059 70.5493 84.918 68.6232 86.5389 66.8757ZM72.1991 80.7641C71.4044 82.1411 70.6419 83.5363 69.9124 84.9488C68.905 82.5612 68.0428 80.2135 67.3388 77.9463C69.6498 77.4298 72.1143 77.0074 74.6822 76.6869C73.8227 78.0263 72.9947 79.3859 72.1991 80.7641ZM74.756 101.423C72.1029 101.127 69.6014 100.726 67.291 100.224C68.0061 97.9161 68.8872 95.5184 69.9165 93.0796C70.6489 94.4931 71.4145 95.8892 72.2127 97.2668C73.0334 98.683 73.8833 100.07 74.756 101.423ZM86.6345 111.232C84.9942 109.464 83.3584 107.508 81.7609 105.405C83.3119 105.465 84.893 105.496 86.5 105.496C88.151 105.496 89.783 105.459 91.3894 105.388C89.8121 107.529 88.2197 109.488 86.6345 111.232ZM103.15 92.955C104.233 95.4207 105.146 97.8058 105.87 100.074C103.522 100.609 100.986 101.041 98.3143 101.361C99.1704 100.005 99.9995 98.632 100.801 97.2431C101.616 95.8313 102.399 94.4016 103.15 92.955ZM97.8036 95.5158C96.5767 97.6453 95.2807 99.7343 93.9178 101.78C91.4491 101.954 88.9749 102.041 86.5 102.04C83.9792 102.04 81.5274 101.961 79.1663 101.808C77.7679 99.7678 76.4472 97.6751 75.2071 95.5348C73.9729 93.4058 72.8204 91.2308 71.7514 89.0144C72.8176 86.7974 73.967 84.6213 75.197 82.4907L75.1967 82.4911C76.4263 80.3599 77.7364 78.2762 79.1243 76.2443C81.5331 76.0623 84.0032 75.9674 86.4997 75.9674C89.0075 75.9674 91.4812 76.0632 93.8894 76.2466C95.2632 78.2753 96.565 80.3519 97.7922 82.4724C99.0263 84.5983 100.191 86.7638 101.284 88.9654C100.202 91.1894 99.0412 93.3743 97.8036 95.5158ZM104.942 56.9109C107.654 58.4738 108.709 64.7761 107.005 73.0409C106.896 73.5681 106.774 74.1052 106.641 74.6499C103.28 73.8748 99.6309 73.2985 95.8103 72.9403C93.5847 69.7738 91.2784 66.895 88.9632 64.4028C89.57 63.8184 90.1912 63.2493 90.8262 62.6958C96.8063 57.4966 102.395 55.4438 104.942 56.9109ZM86.5 81.7055C90.4946 81.7055 93.733 84.9409 93.733 88.9318C93.733 92.9228 90.4946 96.1582 86.5 96.1582C82.5054 96.1582 79.267 92.9228 79.267 88.9318C79.267 84.9409 82.5054 81.7055 86.5 81.7055Z" fill="#00D8FF"/>
</svg>
