<svg width="372" height="168" viewBox="0 0 372 168" fill="none" xmlns="http://www.w3.org/2000/svg">
<path d="M0 47.2694V16.4987L5.2533e-05 7.97468V0H52.4736H101.668H185.415H273.316H332.176H351.854H372V16.4987V168H0V47.2694Z" fill="#204057"/>
<path d="M262.799 92.206C262.128 92.0008 261.452 91.8107 260.771 91.6359C260.885 91.2188 260.991 90.8068 261.084 90.402C262.619 83.7546 261.616 78.3993 258.188 76.6361C254.901 74.9458 249.526 76.7084 244.098 80.9225C243.563 81.3386 243.04 81.7667 242.529 82.2063C242.187 81.914 241.839 81.6273 241.485 81.3464C235.796 76.8405 230.094 74.9414 226.67 76.7097C223.386 78.4053 222.414 83.4396 223.796 89.7395C223.933 90.3634 224.088 90.9841 224.261 91.601C223.454 91.8056 222.675 92.0234 221.93 92.2552C215.26 94.3297 211 97.5806 211 100.953C211 104.435 215.573 107.929 222.52 110.047C223.083 110.218 223.651 110.376 224.223 110.522C224.038 111.187 223.873 111.855 223.729 112.528C222.411 118.719 223.44 123.634 226.715 125.319C230.097 127.059 235.774 125.271 241.302 120.96C241.75 120.61 242.188 120.249 242.616 119.879C243.169 120.356 243.737 120.818 244.319 121.266C249.674 125.375 254.962 127.035 258.233 125.346C261.612 123.601 262.711 118.32 261.285 111.896C261.173 111.393 261.047 110.892 260.907 110.394C261.306 110.289 261.697 110.18 262.078 110.067C269.301 107.933 274 104.482 274 100.953C274 97.5683 269.603 94.2954 262.799 92.206ZM261.232 107.789C260.888 107.89 260.534 107.988 260.174 108.084C259.377 105.832 258.301 103.438 256.984 100.964C258.24 98.5496 259.275 96.186 260.05 93.949C260.694 94.1154 261.32 94.2908 261.923 94.4759C267.753 96.2663 271.309 98.9131 271.309 100.953C271.309 103.125 267.468 105.945 261.232 107.789ZM258.645 112.362C259.275 115.203 259.365 117.771 258.947 119.779C258.572 121.583 257.818 122.786 256.885 123.268C254.899 124.293 250.654 122.961 246.075 119.446C245.533 119.029 245.005 118.6 244.49 118.157C246.266 116.425 248.04 114.412 249.771 112.176C252.817 111.935 255.694 111.541 258.304 111.003C258.429 111.453 258.543 111.907 258.645 112.362ZM232.478 123.091C230.538 123.702 228.993 123.719 228.059 123.239C226.072 122.217 225.246 118.27 226.373 112.976C226.507 112.35 226.66 111.728 226.833 111.11C229.413 111.62 232.27 111.986 235.323 112.207C237.066 114.394 238.891 116.406 240.731 118.167C240.34 118.504 239.94 118.833 239.531 119.153C237.086 121.059 234.637 122.411 232.478 123.091ZM223.391 107.775C220.319 106.839 217.782 105.621 216.043 104.293C214.48 103.099 213.692 101.914 213.692 100.953C213.692 98.9063 217.111 96.2962 222.816 94.5222C223.508 94.3071 224.232 94.104 224.984 93.9135C225.773 96.2009 226.807 98.5926 228.055 101.011C226.791 103.465 225.742 105.895 224.946 108.21C224.423 108.076 223.905 107.931 223.391 107.775ZM226.437 89.2782C225.253 83.8808 226.039 79.8093 228.018 78.7875C230.126 77.6991 234.786 79.2509 239.698 83.1417C240.019 83.396 240.334 83.6554 240.644 83.9199C238.813 85.6732 237.005 87.6694 235.277 89.8444C232.314 90.0894 229.478 90.4828 226.87 91.0098C226.709 90.436 226.565 89.8585 226.437 89.2782ZM253.612 95.2644C252.996 94.3154 252.358 93.3783 251.697 92.4539C253.707 92.6806 255.633 92.9816 257.441 93.3495C256.898 94.902 256.221 96.5249 255.425 98.1889C254.843 97.2034 254.238 96.2284 253.612 95.2644ZM242.53 85.6359C243.772 86.8356 245.015 88.1749 246.238 89.6282C243.757 89.5236 241.272 89.5232 238.792 89.6268C240.016 88.187 241.27 86.8494 242.53 85.6359ZM231.377 95.2806C230.759 96.2369 230.166 97.2058 229.599 98.1867C228.815 96.5286 228.144 94.8982 227.597 93.3238C229.394 92.9651 231.311 92.6718 233.308 92.4492C232.64 93.3794 231.996 94.3236 231.377 95.2806ZM233.366 109.627C231.302 109.421 229.357 109.143 227.56 108.794C228.116 107.192 228.801 105.527 229.602 103.833C230.171 104.815 230.767 105.784 231.388 106.741C232.026 107.724 232.687 108.688 233.366 109.627ZM242.605 116.439C241.329 115.211 240.057 113.853 238.814 112.392C240.02 112.434 241.25 112.456 242.5 112.456C243.784 112.456 245.053 112.43 246.303 112.381C245.076 113.868 243.838 115.228 242.605 116.439ZM255.45 103.747C256.292 105.459 257.002 107.115 257.566 108.69C255.739 109.062 253.767 109.361 251.689 109.584C252.355 108.642 253 107.689 253.623 106.724C254.257 105.744 254.866 104.751 255.45 103.747ZM251.292 105.525C250.337 107.004 249.329 108.454 248.269 109.875C246.349 109.996 244.425 110.056 242.5 110.055C240.539 110.055 238.632 110.001 236.796 109.895C235.708 108.478 234.681 107.024 233.717 105.538C232.757 104.06 231.86 102.549 231.029 101.01C231.858 99.4704 232.752 97.9593 233.709 96.4797L233.709 96.4799C234.665 94.9999 235.684 93.5529 236.763 92.1419C238.637 92.0155 240.558 91.9496 242.5 91.9496C244.45 91.9496 246.374 92.0161 248.247 92.1434C249.316 93.5523 250.328 94.9944 251.283 96.4669C252.243 97.9433 253.148 99.4471 253.999 100.976C253.157 102.52 252.254 104.038 251.292 105.525ZM256.844 78.7159C258.953 79.8012 259.774 84.1778 258.448 89.9173C258.363 90.2834 258.268 90.6564 258.165 91.0346C255.551 90.4964 252.713 90.0962 249.741 89.8475C248.01 87.6485 246.217 85.6493 244.416 83.9186C244.888 83.5128 245.371 83.1175 245.865 82.7332C250.516 79.1227 254.863 77.6971 256.844 78.7159ZM242.5 95.9344C245.607 95.9344 248.126 98.1812 248.126 100.953C248.126 103.724 245.607 105.971 242.5 105.971C239.393 105.971 236.874 103.724 236.874 100.953C236.874 98.1812 239.393 95.9344 242.5 95.9344Z" fill="#00D8FF"/>
<path d="M127.84 47.64C127.84 46.2667 128.037 45.0933 128.43 44.12C128.823 43.1467 129.37 42.3567 130.07 41.75C130.77 41.1367 131.583 40.69 132.51 40.41C133.443 40.1233 134.447 39.98 135.52 39.98C136.247 39.98 136.857 40.0167 137.35 40.09C137.843 40.1567 138.28 40.2367 138.66 40.33C139.04 40.4167 139.42 40.4933 139.8 40.56L139.7 43.68C139.313 43.48 138.793 43.3 138.14 43.14C137.493 42.98 136.673 42.9 135.68 42.9C134.82 42.9 134.087 43.08 133.48 43.44C132.88 43.7933 132.42 44.3067 132.1 44.98C131.78 45.6467 131.62 46.4467 131.62 47.38C131.62 48.34 131.75 49.1967 132.01 49.95C132.277 50.7033 132.663 51.2967 133.17 51.73C133.677 52.1633 134.3 52.38 135.04 52.38C135.56 52.38 135.99 52.3533 136.33 52.3C136.67 52.24 136.96 52.1667 137.2 52.08V49.06L137.56 49.5L135.08 49.32V46.66H140.6V54.16C140.313 54.1667 140.02 54.2233 139.72 54.33C139.42 54.43 139.073 54.5467 138.68 54.68C138.287 54.8067 137.803 54.9167 137.23 55.01C136.657 55.11 135.947 55.16 135.1 55.16C133.627 55.16 132.347 54.8633 131.26 54.27C130.173 53.6767 129.33 52.82 128.73 51.7C128.137 50.5733 127.84 49.22 127.84 47.64ZM148.687 55.16C147.66 55.16 146.787 55.0033 146.067 54.69C145.353 54.37 144.78 53.9333 144.347 53.38C143.913 52.8267 143.6 52.1933 143.407 51.48C143.213 50.76 143.12 50 143.127 49.2C143.147 48.0133 143.403 47.0133 143.897 46.2C144.39 45.3867 145.067 44.77 145.927 44.35C146.787 43.93 147.773 43.72 148.887 43.72C150.26 43.72 151.353 43.9933 152.167 44.54C152.987 45.0867 153.573 45.81 153.927 46.71C154.28 47.61 154.447 48.5933 154.427 49.66C154.413 50.8533 154.16 51.86 153.667 52.68C153.18 53.4933 152.507 54.11 151.647 54.53C150.787 54.95 149.8 55.16 148.687 55.16ZM148.767 52.66C149.48 52.66 149.973 52.4 150.247 51.88C150.527 51.3533 150.667 50.56 150.667 49.5C150.667 48.9 150.61 48.3533 150.497 47.86C150.383 47.36 150.193 46.9633 149.927 46.67C149.66 46.37 149.293 46.22 148.827 46.22C148.1 46.22 147.593 46.4833 147.307 47.01C147.027 47.5367 146.887 48.3067 146.887 49.32C146.887 49.9333 146.943 50.4933 147.057 51C147.177 51.5067 147.373 51.91 147.647 52.21C147.92 52.51 148.293 52.66 148.767 52.66ZM161.791 55.16C160.765 55.16 159.891 55.0033 159.171 54.69C158.458 54.37 157.885 53.9333 157.451 53.38C157.018 52.8267 156.705 52.1933 156.511 51.48C156.318 50.76 156.225 50 156.231 49.2C156.251 48.0133 156.508 47.0133 157.001 46.2C157.495 45.3867 158.171 44.77 159.031 44.35C159.891 43.93 160.878 43.72 161.991 43.72C163.365 43.72 164.458 43.9933 165.271 44.54C166.091 45.0867 166.678 45.81 167.031 46.71C167.385 47.61 167.551 48.5933 167.531 49.66C167.518 50.8533 167.265 51.86 166.771 52.68C166.285 53.4933 165.611 54.11 164.751 54.53C163.891 54.95 162.905 55.16 161.791 55.16ZM161.871 52.66C162.585 52.66 163.078 52.4 163.351 51.88C163.631 51.3533 163.771 50.56 163.771 49.5C163.771 48.9 163.715 48.3533 163.601 47.86C163.488 47.36 163.298 46.9633 163.031 46.67C162.765 46.37 162.398 46.22 161.931 46.22C161.205 46.22 160.698 46.4833 160.411 47.01C160.131 47.5367 159.991 48.3067 159.991 49.32C159.991 49.9333 160.048 50.4933 160.161 51C160.281 51.5067 160.478 51.91 160.751 52.21C161.025 52.51 161.398 52.66 161.871 52.66ZM177.551 55V53.68L177.251 53.46V46.16L177.331 46.08L177.251 42.8V38.76H180.811V55H177.551ZM174.131 55.16C173.345 55.16 172.621 54.9667 171.961 54.58C171.301 54.1867 170.771 53.5967 170.371 52.81C169.971 52.0167 169.771 51.02 169.771 49.82C169.771 48.56 170.001 47.4733 170.461 46.56C170.928 45.6467 171.581 44.9467 172.421 44.46C173.268 43.9667 174.258 43.72 175.391 43.72C176.085 43.72 176.645 43.7867 177.071 43.92C177.498 44.0533 177.771 44.1667 177.891 44.26L177.271 46.54C177.125 46.42 176.905 46.3367 176.611 46.29C176.325 46.2433 176.011 46.22 175.671 46.22C175.251 46.22 174.878 46.3467 174.551 46.6C174.231 46.8467 173.978 47.2233 173.791 47.73C173.605 48.2367 173.511 48.8733 173.511 49.64C173.505 50.68 173.671 51.41 174.011 51.83C174.351 52.25 174.805 52.46 175.371 52.46C175.725 52.46 176.078 52.4067 176.431 52.3C176.791 52.1867 177.071 52.06 177.271 51.92L177.631 53.74C177.478 53.9067 177.251 54.1033 176.951 54.33C176.658 54.55 176.278 54.7433 175.811 54.91C175.351 55.0767 174.791 55.16 174.131 55.16ZM189.123 55V40.14H198.523V42.92H192.823V46.06H197.223V48.76H192.823V52.16H199.103V55H189.123ZM200.728 55L204.748 49.12L204.828 49.78L200.748 43.86H204.668L206.268 46.4L207.128 47.84H206.348L207.088 46.4L208.568 43.86H212.468L208.328 49.7V48.9L212.548 55H208.588L206.828 52.16L206.088 50.86H206.948L206.308 52.16L204.728 55H200.728ZM218.44 55.16C217.64 55.16 217 55.0267 216.52 54.76C216.047 54.4933 215.704 54.0933 215.49 53.56C215.284 53.02 215.18 52.3467 215.18 51.54V46.24H213.9V44.32C214.394 44.18 214.8 44.0367 215.12 43.89C215.44 43.7367 215.674 43.5067 215.82 43.2C215.894 43.0467 215.974 42.8633 216.06 42.65C216.147 42.4367 216.237 42.2133 216.33 41.98C216.424 41.7467 216.514 41.5267 216.6 41.32H218.8V43.86H221.68V46.24H218.8V50.2C218.8 50.8933 218.837 51.4 218.91 51.72C218.99 52.04 219.124 52.2433 219.31 52.33C219.497 52.4167 219.754 52.46 220.08 52.46C220.247 52.46 220.437 52.44 220.65 52.4C220.864 52.3533 221.067 52.2967 221.26 52.23C221.454 52.1633 221.607 52.0933 221.72 52.02L222.14 54.02C221.967 54.1933 221.69 54.37 221.31 54.55C220.937 54.7233 220.5 54.87 220 54.99C219.5 55.1033 218.98 55.16 218.44 55.16ZM229.8 55.16C228 55.16 226.626 54.65 225.68 53.63C224.733 52.6033 224.26 51.1867 224.26 49.38C224.26 48.3 224.48 47.3333 224.92 46.48C225.36 45.6267 225.993 44.9533 226.82 44.46C227.653 43.9667 228.66 43.72 229.84 43.72C230.433 43.72 231.006 43.79 231.56 43.93C232.113 44.0633 232.61 44.3 233.05 44.64C233.49 44.9733 233.843 45.4333 234.11 46.02C234.376 46.6067 234.513 47.3467 234.52 48.24C234.52 48.64 234.506 49.02 234.48 49.38C234.46 49.74 234.433 50.04 234.4 50.28H226.12L226.32 48.48H231.16C231.193 47.94 231.166 47.49 231.08 47.13C231 46.7633 230.85 46.49 230.63 46.31C230.416 46.13 230.126 46.04 229.76 46.04C229.34 46.04 228.983 46.1567 228.69 46.39C228.403 46.6167 228.186 47.01 228.04 47.57C227.893 48.13 227.826 48.9067 227.84 49.9C227.853 50.5467 227.97 51.07 228.19 51.47C228.416 51.8633 228.736 52.15 229.15 52.33C229.563 52.51 230.06 52.6 230.64 52.6C231 52.6 231.376 52.5733 231.77 52.52C232.163 52.4667 232.526 52.3967 232.86 52.31C233.2 52.2233 233.46 52.1333 233.64 52.04L234.2 53.96C233.953 54.16 233.61 54.3533 233.17 54.54C232.736 54.72 232.23 54.87 231.65 54.99C231.076 55.1033 230.46 55.16 229.8 55.16ZM237.574 55V43.86H240.874L240.954 45.16C241.187 44.9267 241.494 44.7 241.874 44.48C242.254 44.26 242.677 44.0767 243.144 43.93C243.61 43.7833 244.094 43.7067 244.594 43.7C245.727 43.68 246.577 43.99 247.144 44.63C247.71 45.2633 247.994 46.38 247.994 47.98V55H244.374V48.64C244.374 47.8267 244.27 47.27 244.064 46.97C243.857 46.6633 243.487 46.52 242.954 46.54C242.78 46.54 242.587 46.5667 242.374 46.62C242.16 46.6733 241.947 46.7533 241.734 46.86C241.527 46.9667 241.34 47.1 241.174 47.26V55H237.574ZM250.938 54.26L251.298 51.76C251.405 51.8533 251.625 51.98 251.958 52.14C252.298 52.2933 252.698 52.4333 253.158 52.56C253.618 52.68 254.091 52.74 254.578 52.74C255.158 52.7467 255.571 52.6867 255.818 52.56C256.071 52.4267 256.198 52.22 256.198 51.94C256.198 51.7467 256.108 51.58 255.928 51.44C255.748 51.2933 255.505 51.1567 255.198 51.03C254.891 50.9033 254.551 50.7733 254.178 50.64C253.365 50.3467 252.718 50.0233 252.238 49.67C251.765 49.3167 251.425 48.92 251.218 48.48C251.011 48.0333 250.911 47.5267 250.918 46.96C250.918 46.24 251.125 45.64 251.538 45.16C251.958 44.68 252.518 44.32 253.218 44.08C253.918 43.84 254.691 43.72 255.538 43.72C256.451 43.72 257.215 43.8 257.828 43.96C258.441 44.1133 258.871 44.26 259.118 44.4L258.798 46.94C258.665 46.82 258.455 46.6933 258.168 46.56C257.881 46.4267 257.558 46.3133 257.198 46.22C256.838 46.1267 256.478 46.08 256.118 46.08C255.498 46.08 255.058 46.1433 254.798 46.27C254.545 46.3967 254.418 46.5867 254.418 46.84C254.418 47.14 254.555 47.36 254.828 47.5C255.101 47.64 255.531 47.82 256.118 48.04C256.998 48.36 257.705 48.6833 258.238 49.01C258.778 49.3367 259.168 49.7067 259.408 50.12C259.655 50.5333 259.778 51.0333 259.778 51.62C259.778 52.78 259.348 53.66 258.488 54.26C257.635 54.86 256.498 55.16 255.078 55.16C254.465 55.16 253.881 55.11 253.328 55.01C252.775 54.9167 252.288 54.8 251.868 54.66C251.455 54.52 251.145 54.3867 250.938 54.26ZM262.651 55V43.86H266.271V55H262.651ZM264.291 42.52C263.711 42.52 263.231 42.3467 262.851 42C262.478 41.6467 262.291 41.2 262.291 40.66C262.291 40.2933 262.391 39.9567 262.591 39.65C262.791 39.3433 263.054 39.1 263.381 38.92C263.714 38.7333 264.078 38.64 264.471 38.64C265.064 38.64 265.541 38.8133 265.901 39.16C266.268 39.5 266.451 39.9467 266.451 40.5C266.451 41.0467 266.241 41.52 265.821 41.92C265.401 42.32 264.891 42.52 264.291 42.52ZM274.713 55.16C273.686 55.16 272.813 55.0033 272.093 54.69C271.38 54.37 270.806 53.9333 270.373 53.38C269.94 52.8267 269.626 52.1933 269.433 51.48C269.24 50.76 269.146 50 269.153 49.2C269.173 48.0133 269.43 47.0133 269.923 46.2C270.416 45.3867 271.093 44.77 271.953 44.35C272.813 43.93 273.8 43.72 274.913 43.72C276.286 43.72 277.38 43.9933 278.193 44.54C279.013 45.0867 279.6 45.81 279.953 46.71C280.306 47.61 280.473 48.5933 280.453 49.66C280.44 50.8533 280.186 51.86 279.693 52.68C279.206 53.4933 278.533 54.11 277.673 54.53C276.813 54.95 275.826 55.16 274.713 55.16ZM274.793 52.66C275.506 52.66 276 52.4 276.273 51.88C276.553 51.3533 276.693 50.56 276.693 49.5C276.693 48.9 276.636 48.3533 276.523 47.86C276.41 47.36 276.22 46.9633 275.953 46.67C275.686 46.37 275.32 46.22 274.853 46.22C274.126 46.22 273.62 46.4833 273.333 47.01C273.053 47.5367 272.913 48.3067 272.913 49.32C272.913 49.9333 272.97 50.4933 273.083 51C273.203 51.5067 273.4 51.91 273.673 52.21C273.946 52.51 274.32 52.66 274.793 52.66ZM283.293 55V43.86H286.593L286.673 45.16C286.906 44.9267 287.213 44.7 287.593 44.48C287.973 44.26 288.396 44.0767 288.863 43.93C289.33 43.7833 289.813 43.7067 290.313 43.7C291.446 43.68 292.296 43.99 292.863 44.63C293.43 45.2633 293.713 46.38 293.713 47.98V55H290.093V48.64C290.093 47.8267 289.99 47.27 289.783 46.97C289.576 46.6633 289.206 46.52 288.673 46.54C288.5 46.54 288.306 46.5667 288.093 46.62C287.88 46.6733 287.666 46.7533 287.453 46.86C287.246 46.9667 287.06 47.1 286.893 47.26V55H283.293ZM296.658 54.26L297.018 51.76C297.124 51.8533 297.344 51.98 297.678 52.14C298.018 52.2933 298.418 52.4333 298.878 52.56C299.338 52.68 299.811 52.74 300.298 52.74C300.878 52.7467 301.291 52.6867 301.538 52.56C301.791 52.4267 301.918 52.22 301.918 51.94C301.918 51.7467 301.828 51.58 301.648 51.44C301.468 51.2933 301.224 51.1567 300.918 51.03C300.611 50.9033 300.271 50.7733 299.898 50.64C299.084 50.3467 298.438 50.0233 297.958 49.67C297.484 49.3167 297.144 48.92 296.938 48.48C296.731 48.0333 296.631 47.5267 296.638 46.96C296.638 46.24 296.844 45.64 297.258 45.16C297.678 44.68 298.238 44.32 298.938 44.08C299.638 43.84 300.411 43.72 301.258 43.72C302.171 43.72 302.934 43.8 303.548 43.96C304.161 44.1133 304.591 44.26 304.838 44.4L304.518 46.94C304.384 46.82 304.174 46.6933 303.888 46.56C303.601 46.4267 303.278 46.3133 302.918 46.22C302.558 46.1267 302.198 46.08 301.838 46.08C301.218 46.08 300.778 46.1433 300.518 46.27C300.264 46.3967 300.138 46.5867 300.138 46.84C300.138 47.14 300.274 47.36 300.548 47.5C300.821 47.64 301.251 47.82 301.838 48.04C302.718 48.36 303.424 48.6833 303.958 49.01C304.498 49.3367 304.888 49.7067 305.128 50.12C305.374 50.5333 305.498 51.0333 305.498 51.62C305.498 52.78 305.068 53.66 304.208 54.26C303.354 54.86 302.218 55.16 300.798 55.16C300.184 55.16 299.601 55.11 299.048 55.01C298.494 54.9167 298.008 54.8 297.588 54.66C297.174 54.52 296.864 54.3867 296.658 54.26ZM132.955 81V66.14H142.235V68.92H136.675V72.46H140.895V75.22H136.675V81H132.955ZM148.998 81.16C147.972 81.16 147.098 81.0033 146.378 80.69C145.665 80.37 145.092 79.9333 144.658 79.38C144.225 78.8267 143.912 78.1933 143.718 77.48C143.525 76.76 143.432 76 143.438 75.2C143.458 74.0133 143.715 73.0133 144.208 72.2C144.702 71.3867 145.378 70.77 146.238 70.35C147.098 69.93 148.085 69.72 149.198 69.72C150.572 69.72 151.665 69.9933 152.478 70.54C153.298 71.0867 153.885 71.81 154.238 72.71C154.592 73.61 154.758 74.5933 154.738 75.66C154.725 76.8533 154.472 77.86 153.978 78.68C153.492 79.4933 152.818 80.11 151.958 80.53C151.098 80.95 150.112 81.16 148.998 81.16ZM149.078 78.66C149.792 78.66 150.285 78.4 150.558 77.88C150.838 77.3533 150.978 76.56 150.978 75.5C150.978 74.9 150.922 74.3533 150.808 73.86C150.695 73.36 150.505 72.9633 150.238 72.67C149.972 72.37 149.605 72.22 149.138 72.22C148.412 72.22 147.905 72.4833 147.618 73.01C147.338 73.5367 147.198 74.3067 147.198 75.32C147.198 75.9333 147.255 76.4933 147.368 77C147.488 77.5067 147.685 77.91 147.958 78.21C148.232 78.51 148.605 78.66 149.078 78.66ZM160.898 74.44L160.758 71.82C160.892 71.4133 161.115 71.05 161.428 70.73C161.748 70.41 162.128 70.16 162.568 69.98C163.015 69.7933 163.498 69.7 164.018 69.7C164.178 69.7 164.338 69.71 164.498 69.73C164.658 69.75 164.772 69.78 164.838 69.82V73.4C164.752 73.34 164.615 73.28 164.428 73.22C164.242 73.1533 163.978 73.12 163.638 73.12C163.105 73.12 162.655 73.2 162.288 73.36C161.928 73.5133 161.635 73.6933 161.408 73.9C161.188 74.1067 161.018 74.2867 160.898 74.44ZM157.498 81V69.86H160.658L160.838 71.84L161.118 72.14V81H157.498Z" fill="white"/>
<path d="M63.222 118.47L63.12 106.434C64.956 106.842 66.86 107.199 68.832 107.505C70.838 107.811 72.674 107.964 74.34 107.964C77.978 107.964 81.174 107.505 83.928 106.587C86.716 105.635 88.892 104.275 90.456 102.507C92.02 100.705 92.802 98.546 92.802 96.03C92.802 94.67 92.428 93.31 91.68 91.95C90.932 90.59 89.674 89.485 87.906 88.635C86.172 87.785 83.826 87.428 80.868 87.564L74.136 89.094L71.688 77.67C74 77.262 76.142 76.752 78.114 76.14C80.12 75.528 81.786 74.848 83.112 74.1C85.356 72.808 86.971 71.38 87.957 69.816C88.977 68.252 89.538 66.552 89.64 64.716C89.81 62.302 89.062 60.449 87.396 59.157C85.73 57.831 83.486 57.168 80.664 57.168C77.298 57.168 74.391 57.712 71.943 58.8C69.495 59.888 67.404 61.044 65.67 62.268L60.366 50.742C61.318 49.722 63.069 48.634 65.619 47.478C68.169 46.288 71.11 45.285 74.442 44.469C77.808 43.619 81.174 43.194 84.54 43.194C89.606 43.194 93.924 43.908 97.494 45.336C101.064 46.764 103.784 48.821 105.654 51.507C107.558 54.159 108.51 57.372 108.51 61.146C108.51 64.546 107.847 67.555 106.521 70.173C105.195 72.791 103.359 75.069 101.013 77.007C98.701 78.945 96.032 80.594 93.006 81.954V80.22C97.732 80.39 101.523 81.342 104.379 83.076C107.235 84.81 109.292 87.02 110.55 89.706C111.842 92.358 112.488 95.146 112.488 98.07C112.488 102.218 111.094 106.043 108.306 109.545C105.518 113.047 101.608 115.852 96.576 117.96C91.544 120.068 85.662 121.122 78.93 121.122C75.53 121.122 72.504 120.816 69.852 120.204C67.234 119.592 65.024 119.014 63.222 118.47Z" fill="#F58219"/>
</svg>
