<svg width="35" height="28" viewBox="0 0 35 28" fill="none" xmlns="http://www.w3.org/2000/svg">
<g clip-path="url(#clip0_695_176)">
<path d="M30.0232 17.3688L34.0154 20.6938L16.4607 27.7375C16.4607 27.7375 14.1638 28.6563 13.0701 27.2125C8.69505 21.525 30.0232 17.3688 30.0232 17.3688Z" fill="#256382"/>
<path d="M15.9691 23.5812C15.9691 23.5812 12.6331 24.5875 13.2347 26.4687C13.8909 28.4375 16.5706 27.2562 16.5706 27.2562L33.2503 20.6937C33.2503 20.6937 32.3206 18.5937 34.0159 17.1937L15.9691 23.5812Z" fill="#D9E3E8"/>
<path d="M18.8125 3.8938L34.7812 17.0625L15.9141 23.3188L3.82812 7.3063L18.8125 3.8938Z" fill="#42ADE2"/>
<path d="M33.1953 18.6375L22.0391 22.4875L32.9766 18.2438L33.1953 18.6375ZM33.0312 19.775L21.1641 23.9313L32.8125 19.3813L33.0312 19.775ZM33.1406 20.4313L17.9922 25.9875L32.9219 20.0375L33.1406 20.4313Z" fill="#94989B"/>
<path d="M13.0156 27.1687C11.1562 23.8875 15.9141 23.3187 15.9141 23.3187L3.82812 7.30621C3.82812 7.30621 1.09375 7.26246 1.09375 9.66871C1.09375 10.675 1.64062 11.4187 1.64062 11.4187L13.0156 27.1687Z" fill="#428BC1"/>
<path d="M4.75781 14.0875L0.765625 17.4125L18.3203 24.4563C18.3203 24.4563 20.6172 25.375 21.7109 23.9313C26.0859 18.2438 4.75781 14.0875 4.75781 14.0875Z" fill="#547725"/>
<path d="M18.7578 20.3C18.7578 20.3 22.0937 21.3062 21.4922 23.1875C20.8359 25.1562 18.2109 23.975 18.2109 23.975L1.53125 17.4125C1.53125 17.4125 2.46094 15.3125 0.765625 13.9125L18.7578 20.3Z" fill="#D9E3E8"/>
<path d="M15.9688 0.612549L0 13.7813L18.8672 20.0375L30.9531 4.02505L15.9688 0.612549Z" fill="#83BF4F"/>
<path d="M1.75 14.9625L12.6875 19.2063L1.53125 15.3563L1.75 14.9625ZM1.96875 16.1L13.5625 20.65L1.69531 16.4938L1.96875 16.1ZM1.85938 16.7563L16.7344 22.7063L1.58594 17.15L1.85938 16.7563Z" fill="#94989B"/>
<path d="M21.7656 23.8875C23.625 20.6062 18.8672 20.0375 18.8672 20.0375L30.9531 4.02496C30.9531 4.02496 33.6875 3.98121 33.6875 6.38746C33.6875 7.39371 33.1406 8.13746 33.1406 8.13746L21.7656 23.8875Z" fill="#699635"/>
<path d="M31.0078 11.375L34.3438 14.175L19.5235 20.0813C19.5235 20.0813 17.5547 20.825 16.625 19.6438C13.0157 14.875 31.0078 11.375 31.0078 11.375Z" fill="#962C2C"/>
<path d="M19.1402 16.625C19.1402 16.625 16.2964 17.4563 16.8433 19.075C17.3902 20.7375 19.6324 19.7313 19.6324 19.7313L33.687 14.175C33.687 14.175 32.9214 12.425 34.3433 11.2438L19.1402 16.625Z" fill="#D9E3E8"/>
<path d="M21.5469 0L35 11.1125L19.0859 16.4062L8.85938 2.8875L21.5469 0Z" fill="#ED4C5C"/>
<path d="M21.9297 2.53748L24.5547 4.85623L14.875 7.78748L12.5781 4.81248L21.9297 2.53748Z" fill="white"/>
<path d="M33.6875 12.4687L24.2813 15.6625L33.4688 12.075L33.6875 12.4687ZM33.5781 13.4312L23.5156 16.8875L33.3594 13.0375L33.5781 13.4312ZM33.6875 13.9562L20.8906 18.6375L33.4141 13.5625L33.6875 13.9562Z" fill="#94989B"/>
<path d="M16.6797 19.6438C15.1484 16.8875 19.1406 16.4063 19.1406 16.4063L8.85938 2.88753C8.85938 2.88753 6.50781 2.84378 6.50781 4.85628C6.50781 5.68753 6.94531 6.34378 6.94531 6.34378L16.6797 19.6438Z" fill="#C94747"/>
</g>
<defs>
<clipPath id="clip0_695_176">
<rect width="35" height="28" fill="white"/>
</clipPath>
</defs>
</svg>
