<svg width="115" height="110" viewBox="0 0 115 110" fill="none" xmlns="http://www.w3.org/2000/svg">
<g filter="url(#filter0_d_683_135)">
<rect x="6" y="2" width="103" height="98" rx="8" stroke="#FF6F61" stroke-width="4"/>
<g clip-path="url(#clip0_683_135)">
<path d="M83.222 31.5555H69.0276L66.9664 26.2666C66.6844 25.5357 66.1883 24.9071 65.5429 24.463C64.8976 24.0189 64.1332 23.78 63.3498 23.7777H48.6498C47.8631 23.7761 47.0944 24.0131 46.4452 24.4575C45.796 24.9019 45.2969 25.5327 45.0137 26.2666L42.972 31.5555H28.7776C27.7462 31.5555 26.757 31.9652 26.0277 32.6945C25.2984 33.4238 24.8887 34.413 24.8887 35.4444V74.3333C24.8887 75.3647 25.2984 76.3538 26.0277 77.0831C26.757 77.8124 27.7462 78.2222 28.7776 78.2222H83.222C84.2534 78.2222 85.2426 77.8124 85.9719 77.0831C86.7012 76.3538 87.1109 75.3647 87.1109 74.3333V35.4444C87.1109 34.413 86.7012 33.4238 85.9719 32.6945C85.2426 31.9652 84.2534 31.5555 83.222 31.5555ZM32.997 42.5027C32.5844 42.5027 32.1888 42.3388 31.8971 42.0471C31.6053 41.7554 31.4414 41.3597 31.4414 40.9472C31.4414 40.5346 31.6053 40.1389 31.8971 39.8472C32.1888 39.5555 32.5844 39.3916 32.997 39.3916H37.6637C38.0762 39.3916 38.4719 39.5555 38.7636 39.8472C39.0553 40.1389 39.2192 40.5346 39.2192 40.9472C39.2192 41.3597 39.0553 41.7554 38.7636 42.0471C38.4719 42.3388 38.0762 42.5027 37.6637 42.5027H32.997ZM55.9998 70.4444C52.5386 70.4444 49.1552 69.418 46.2773 67.4951C43.3994 65.5722 41.1564 62.8391 39.8319 59.6413C38.5074 56.4436 38.1608 52.925 38.836 49.5303C39.5113 46.1356 41.178 43.0174 43.6254 40.57C46.0728 38.1226 49.191 36.4559 52.5857 35.7806C55.9804 35.1054 59.499 35.452 62.6967 36.7765C65.8945 38.101 68.6276 40.344 70.5505 43.2219C72.4734 46.0998 73.4998 49.4832 73.4998 52.9444C73.4998 57.5857 71.656 62.0369 68.3741 65.3188C65.0923 68.6006 60.6411 70.4444 55.9998 70.4444Z" fill="#E91E63"/>
<path d="M42.6025 53.0611C42.6065 55.6846 43.361 58.2523 44.7771 60.4608C46.1932 62.6694 48.2117 64.4266 50.5942 65.525L52.7136 62.1416C51.4227 61.5923 50.2659 60.77 49.3228 59.7312C48.3796 58.6925 47.6725 57.4619 47.2499 56.1241C46.8273 54.7862 46.6993 53.3727 46.8746 51.9807C47.05 50.5887 47.5246 49.2511 48.2657 48.0598C49.0069 46.8686 49.9971 45.8518 51.1684 45.0794C52.3397 44.3071 53.6643 43.7973 55.0512 43.5853C56.4381 43.3732 57.8544 43.4638 59.203 43.8509C60.5516 44.238 61.8004 44.9124 62.8637 45.8278L64.9831 42.4055C62.9692 40.7704 60.5332 39.7394 57.9574 39.432C55.3815 39.1245 52.7713 39.5532 50.4291 40.6683C48.0869 41.7835 46.1086 43.5394 44.7235 45.7327C43.3383 47.9261 42.6029 50.467 42.6025 53.0611Z" fill="#E91E63"/>
</g>
</g>
<defs>
<filter id="filter0_d_683_135" x="0" y="0" width="115" height="110" filterUnits="userSpaceOnUse" color-interpolation-filters="sRGB">
<feFlood flood-opacity="0" result="BackgroundImageFix"/>
<feColorMatrix in="SourceAlpha" type="matrix" values="0 0 0 0 0 0 0 0 0 0 0 0 0 0 0 0 0 0 127 0" result="hardAlpha"/>
<feOffset dy="4"/>
<feGaussianBlur stdDeviation="2"/>
<feComposite in2="hardAlpha" operator="out"/>
<feColorMatrix type="matrix" values="0 0 0 0 0 0 0 0 0 0 0 0 0 0 0 0 0 0 0.25 0"/>
<feBlend mode="normal" in2="BackgroundImageFix" result="effect1_dropShadow_683_135"/>
<feBlend mode="normal" in="SourceGraphic" in2="effect1_dropShadow_683_135" result="shape"/>
</filter>
<clipPath id="clip0_683_135">
<rect width="70" height="70" fill="white" transform="translate(21 16)"/>
</clipPath>
</defs>
</svg>
