<svg width="158" height="85" viewBox="0 0 158 85" fill="none" xmlns="http://www.w3.org/2000/svg">
<ellipse cx="19.5" cy="62.5" rx="19.5" ry="16.5" fill="#AFDEEB"/>
<ellipse cx="39.5" cy="46.5" rx="19.5" ry="16.5" fill="#AFDEEB"/>
<ellipse cx="50.0339" cy="61.5898" rx="19.5" ry="16.5" transform="rotate(9.84012 50.0339 61.5898)" fill="#AFDEEB"/>
<ellipse cx="61.0339" cy="40.5898" rx="19.5" ry="16.5" transform="rotate(9.84012 61.0339 40.5898)" fill="#AFDEEB"/>
<ellipse cx="72.0339" cy="19.5898" rx="19.5" ry="16.5" transform="rotate(9.84012 72.0339 19.5898)" fill="#AFDEEB"/>
<ellipse cx="92.0339" cy="38.5898" rx="19.5" ry="16.5" transform="rotate(9.84012 92.0339 38.5898)" fill="#AFDEEB"/>
<ellipse cx="113.034" cy="44.5898" rx="19.5" ry="16.5" transform="rotate(9.84012 113.034 44.5898)" fill="#AFDEEB"/>
<ellipse cx="117.034" cy="63.5898" rx="19.5" ry="16.5" transform="rotate(9.84012 117.034 63.5898)" fill="#AFDEEB"/>
<ellipse cx="98.0339" cy="64.5898" rx="19.5" ry="16.5" transform="rotate(9.84012 98.0339 64.5898)" fill="#AFDEEB"/>
<ellipse cx="74.0339" cy="62.5898" rx="19.5" ry="16.5" transform="rotate(9.84012 74.0339 62.5898)" fill="#AFDEEB"/>
<ellipse cx="135.034" cy="60.5898" rx="19.5" ry="16.5" transform="rotate(9.84012 135.034 60.5898)" fill="#AFDEEB"/>
<path d="M133.5 61.0616C129.5 65.0616 126.232 67.5617 118.5 67.5617C110.768 67.5617 111 65.0616 104 63.0615C104 56.7102 110.768 65.0616 118.5 65.0616C126.232 65.0616 133.5 54.7103 133.5 61.0616Z" fill="white"/>
<path d="M134.03 62.2301C129.622 65.7755 126.103 67.9087 118.416 67.0751C110.729 66.2415 111.229 63.7809 104.486 61.0378C105.171 54.7236 110.999 63.7559 118.686 64.5895C126.373 65.4232 134.714 55.9158 134.03 62.2301Z" fill="white"/>
</svg>
