<svg width="47" height="68" viewBox="0 0 47 68" fill="none" xmlns="http://www.w3.org/2000/svg">
<g clip-path="url(#clip0_565_144)">
<path d="M23.4717 67.3307L4.34453 61.9629L0.0820312 13.6338H46.9186L42.6517 61.9555L23.4717 67.3307Z" fill="#264DE4"/>
<path d="M38.9984 58.8786L42.6446 17.5854H23.5V63.2221L38.9984 58.8786Z" fill="#2965F1"/>
<path d="M9.85291 35.51L10.3784 41.4374H23.4996V35.51H9.85291ZM8.79688 23.5129L9.32985 29.4403H23.4996V23.5129H8.79688ZM23.4996 50.9041L23.4739 50.9109L16.9438 49.1285L16.5264 44.4012H10.6403L11.4617 53.708L23.4726 57.0785L23.4996 57.071V50.9041Z" fill="#EBEBEB"/>
<path d="M11.1045 0.5H18.2059V3.50219H14.0743V6.50439H18.2063V9.5064H11.1045V0.5ZM19.6264 0.5H26.728V3.11059H22.5962V3.63267H26.728V9.63706H19.6265V6.89562H23.7583V6.37354H19.6262L19.6264 0.5ZM28.1484 0.5H35.25V3.11059H31.1182V3.63267H35.25V9.63706H28.1484V6.89562H32.2802V6.37354H28.1486L28.1484 0.5Z" fill="black"/>
<path d="M37.1091 35.51L38.1675 23.5129H23.4797V29.4403H31.7418L31.2082 35.51H23.4797V41.4374H30.6999L30.0191 49.1248L23.4795 50.9091V57.0757L35.4999 53.708L35.5881 52.7066L36.9661 37.1017L37.1091 35.51Z" fill="white"/>
</g>
<defs>
<clipPath id="clip0_565_144">
<rect width="47" height="67" fill="white" transform="translate(0 0.5)"/>
</clipPath>
</defs>
</svg>
