<svg width="49" height="74" viewBox="0 0 49 74" fill="none" xmlns="http://www.w3.org/2000/svg">
<g clip-path="url(#clip0_624_135)">
<path d="M12.25 74C19.012 74 24.5 68.4746 24.5 61.6666V49.3333H12.25C5.488 49.3333 0 54.8586 0 61.6666C0 68.4746 5.488 74 12.25 74Z" fill="#0ACF83"/>
<path d="M0 37C0 30.192 5.488 24.6667 12.25 24.6667H24.5V49.3334H12.25C5.488 49.3334 0 43.808 0 37Z" fill="#A259FF"/>
<path d="M0 12.3333C0 5.52533 5.488 0 12.25 0H24.5V24.6667H12.25C5.488 24.6667 0 19.1413 0 12.3333Z" fill="#F24E1E"/>
<path d="M24.5 0H36.75C43.512 0 49 5.52533 49 12.3333C49 19.1413 43.512 24.6667 36.75 24.6667H24.5V0Z" fill="#FF7262"/>
<path d="M49 37C49 43.808 43.512 49.3334 36.75 49.3334C29.988 49.3334 24.5 43.808 24.5 37C24.5 30.192 29.988 24.6667 36.75 24.6667C43.512 24.6667 49 30.192 49 37Z" fill="#1ABCFE"/>
</g>
<defs>
<clipPath id="clip0_624_135">
<rect width="49" height="74" fill="white"/>
</clipPath>
</defs>
</svg>
