<svg width="72" height="64" viewBox="0 0 72 64" fill="none" xmlns="http://www.w3.org/2000/svg">
<g clip-path="url(#clip0_565_155)">
<path d="M58.8761 20.9309C58.1205 20.6726 57.3585 20.4334 56.5908 20.2133C56.7198 19.6883 56.8385 19.1697 56.9439 18.6602C58.674 10.293 57.5429 3.55231 53.6798 1.33294C49.9759 -0.79469 43.9184 1.42385 37.8008 6.72828C37.1979 7.25199 36.6083 7.7908 36.0327 8.34418C35.6474 7.9762 35.2553 7.61536 34.8565 7.26185C28.4449 1.59019 22.0183 -0.800216 18.1593 1.42551C14.4587 3.55977 13.3629 9.89652 14.9205 17.8262C15.0754 18.6116 15.2504 19.3929 15.4452 20.1694C14.5355 20.4269 13.6577 20.701 12.8177 20.9928C5.30054 23.604 0.5 27.696 0.5 31.9404C0.5 36.3242 5.6536 40.7212 13.483 43.3874C14.1178 43.6026 14.7578 43.8021 15.4025 43.9856C15.1931 44.8219 15.0072 45.6639 14.8451 46.5106C13.3602 54.3027 14.5197 60.4897 18.2103 62.6104C22.0222 64.8005 28.4199 62.5496 34.6493 57.1241C35.1545 56.6831 35.6485 56.2295 36.1309 55.7638C36.7542 56.363 37.3942 56.9448 38.0501 57.5085C44.0846 62.6817 50.0441 64.7706 53.7311 62.6441C57.5393 60.4477 58.7771 53.8012 57.1702 45.7148C57.0436 45.0813 56.9017 44.4509 56.7445 43.8242C57.1938 43.6916 57.6348 43.5551 58.0646 43.4131C66.2041 40.7265 71.5 36.3828 71.5 31.9404C71.5 27.6805 66.5444 23.5609 58.8761 20.9309ZM57.1109 40.5449C56.7226 40.6728 56.3243 40.7964 55.9183 40.9166C55.0197 38.0824 53.8071 35.0689 52.3231 31.9551C53.7392 28.9156 54.9051 25.9405 55.7785 23.1249C56.5049 23.3343 57.2096 23.5551 57.8891 23.788C64.4594 26.0417 68.467 29.3732 68.467 31.9404C68.467 34.6749 64.1387 38.2247 57.1109 40.5449ZM54.1949 46.3017C54.9054 49.8772 55.0066 53.1101 54.536 55.6376C54.1133 57.9086 53.263 59.4225 52.2113 60.029C49.974 61.3194 45.189 59.6422 40.0284 55.2178C39.4184 54.6938 38.823 54.1529 38.2432 53.5959C40.2439 51.416 42.2433 48.8819 44.1947 46.0674C47.6271 45.764 50.8698 45.2677 53.8105 44.5905C53.9521 45.1578 54.0803 45.7283 54.1949 46.3017ZM24.7055 59.8061C22.5194 60.575 20.7783 60.5972 19.7257 59.9926C17.4862 58.7058 16.5552 53.7379 17.8251 47.0743C17.9761 46.2868 18.1489 45.5037 18.3435 44.7258C21.2517 45.3669 24.4708 45.8278 27.9113 46.1058C29.876 48.8598 31.933 51.3911 34.0062 53.6077C33.5656 54.0325 33.1146 54.4463 32.6536 54.849C29.8987 57.2479 27.1383 58.95 24.7055 59.8061ZM14.4643 40.5281C11.0022 39.349 8.14304 37.8168 6.18333 36.1449C4.4222 34.6425 3.53331 33.1507 3.53331 31.9404C3.53331 29.3646 7.38755 26.0792 13.8161 23.8463C14.5963 23.5755 15.4128 23.3199 16.2601 23.0801C17.1487 25.9593 18.3141 28.9698 19.7205 32.0139C18.2958 35.1031 17.1137 38.1617 16.2165 41.0749C15.628 40.9069 15.0438 40.7246 14.4643 40.5281ZM17.8972 17.2457C16.5629 10.4519 17.449 5.32709 19.6792 4.04084C22.0543 2.67086 27.3067 4.62414 32.8427 9.52156C33.2037 9.84164 33.5589 10.1682 33.908 10.5011C31.8451 12.708 29.8069 15.2206 27.8597 17.9583C24.5205 18.2667 21.3241 18.7618 18.3853 19.4253C18.2043 18.703 18.0415 17.9761 17.8972 17.2457ZM48.5235 24.7805C47.8293 23.586 47.1095 22.4065 46.3643 21.2429C48.6297 21.5283 50.8002 21.9071 52.8384 22.3702C52.2266 24.3243 51.4639 26.3672 50.5661 28.4616C49.9099 27.2212 49.2289 25.9939 48.5235 24.7805ZM36.0341 12.6611C37.433 14.1711 38.8342 15.8569 40.2123 17.6861C37.4167 17.5546 34.6164 17.554 31.8207 17.6845C33.2002 15.8721 34.6133 14.1885 36.0341 12.6611ZM23.4646 24.801C22.768 26.0046 22.0997 27.2242 21.4603 28.4589C20.5772 26.3718 19.8214 24.3197 19.2043 22.3379C21.2301 21.8864 23.3903 21.5173 25.6412 21.2371C24.8878 22.4078 24.1621 23.5963 23.4646 24.801ZM25.7058 42.8588C23.3803 42.6002 21.1876 42.2501 19.1625 41.8107C19.7893 39.7936 20.5617 37.6978 21.4639 35.566C22.1059 36.8016 22.7769 38.0219 23.4765 39.2261C24.196 40.464 24.9409 41.6764 25.7058 42.8588ZM36.1179 51.4329C34.6801 49.8877 33.2463 48.1781 31.8459 46.3395C33.2055 46.3926 34.5914 46.4197 36 46.4197C37.4472 46.4197 38.8777 46.3873 40.2858 46.3249C38.9032 48.1967 37.5074 49.9087 36.1179 51.4329ZM50.5947 35.4571C51.5437 37.6124 52.3436 39.6972 52.9787 41.6797C50.9203 42.1478 48.6976 42.5247 46.3557 42.8046C47.1062 41.6194 47.8329 40.4194 48.5354 39.2053C49.2496 37.9713 49.9362 36.7216 50.5947 35.4571ZM45.9081 37.6955C44.8326 39.5569 43.6967 41.3829 42.502 43.1707C40.3381 43.3234 38.1694 43.3993 36 43.3982C33.7904 43.3982 31.6413 43.3296 29.5717 43.1959C28.3459 41.4122 27.1883 39.583 26.1013 37.7121C25.0195 35.8512 24.0092 33.9499 23.0722 32.0126C24.0068 30.0747 25.0143 28.1726 26.0924 26.3102L26.0922 26.3105C27.1699 24.4476 28.3183 22.6262 29.5348 20.8502C31.6463 20.6911 33.8115 20.6082 35.9997 20.6082C38.1979 20.6082 40.3662 20.6919 42.4771 20.8522C43.6813 22.6255 44.8224 24.4407 45.8981 26.2942C46.9799 28.1525 48.0007 30.0453 48.9589 31.9697C48.0105 33.9138 46.9929 35.8236 45.9081 37.6955ZM52.165 3.95076C54.5424 5.31686 55.467 10.8258 53.9733 18.05C53.8779 18.5109 53.7708 18.9804 53.6543 19.4565C50.7084 18.779 47.5098 18.2752 44.1608 17.9622C42.21 15.1943 40.1884 12.6779 38.1591 10.4994C38.691 9.98867 39.2355 9.49115 39.7921 9.00734C45.0339 4.46277 49.9329 2.66838 52.165 3.95076ZM36 25.6239C39.5015 25.6239 42.3401 28.452 42.3401 31.9404C42.3401 35.4289 39.5015 38.257 36 38.257C32.4985 38.257 29.6599 35.4289 29.6599 31.9404C29.6599 28.452 32.4985 25.6239 36 25.6239Z" fill="#00D8FF"/>
</g>
<defs>
<clipPath id="clip0_565_155">
<rect width="71" height="62.9356" fill="white" transform="translate(0.5 0.532227)"/>
</clipPath>
</defs>
</svg>
