<svg width="372" height="66" viewBox="0 0 372 66" fill="none" xmlns="http://www.w3.org/2000/svg">
<path d="M0 18.5701V6.48164L5.2533e-05 3.13291V0H52.4736H101.668H185.415H273.316H332.176H351.854H372V6.48164V66H0V18.5701Z" fill="#204057"/>
<path d="M70.24 36.594V33.388C70.24 33.1967 70.1397 33.031 69.939 32.891C69.743 32.7463 69.5073 32.632 69.232 32.548C68.9567 32.4593 68.7047 32.4033 68.476 32.38V30.994C68.7047 30.9707 68.9567 30.9217 69.232 30.847C69.5073 30.7723 69.743 30.6697 69.939 30.539C70.1397 30.4037 70.24 30.238 70.24 30.042V26.836C70.24 26.164 70.3753 25.6833 70.646 25.394C70.9167 25.1047 71.3133 24.96 71.836 24.96C72.214 24.96 72.6083 24.9787 73.019 25.016C73.4297 25.0487 73.782 25.086 74.076 25.128V26.402H72.382V30.098C72.382 30.2567 72.3587 30.399 72.312 30.525C72.27 30.6463 72.2093 30.756 72.13 30.854C72.0227 30.9893 71.871 31.1153 71.675 31.232C71.4837 31.344 71.276 31.4467 71.052 31.54C70.8327 31.6287 70.6273 31.7033 70.436 31.764V31.624C70.6273 31.6847 70.8303 31.7593 71.045 31.848C71.2643 31.932 71.4697 32.03 71.661 32.142C71.8523 32.2493 72.004 32.3707 72.116 32.506C72.2093 32.5947 72.277 32.702 72.319 32.828C72.361 32.954 72.382 33.0987 72.382 33.262V37.084H74.076V38.274C73.782 38.358 73.4297 38.4187 73.019 38.456C72.6083 38.4933 72.214 38.512 71.836 38.512C71.3133 38.512 70.9167 38.3603 70.646 38.057C70.3753 37.7537 70.24 37.266 70.24 36.594ZM122.944 39.786V39.618C123.079 39.5107 123.205 39.296 123.322 38.974C123.443 38.6567 123.504 38.274 123.504 37.826C123.504 37.6207 123.464 37.4177 123.385 37.217C123.31 37.021 123.217 36.8553 123.105 36.72C122.998 36.58 122.893 36.5007 122.79 36.482V35.754L124.582 34.83C124.843 34.928 125.058 35.1053 125.226 35.362C125.399 35.614 125.525 35.8963 125.604 36.209C125.688 36.517 125.73 36.804 125.73 37.07C125.73 37.588 125.644 38.0827 125.471 38.554C125.303 39.03 125.077 39.4407 124.792 39.786C124.507 40.1313 124.19 40.3693 123.84 40.5L122.944 39.786Z" fill="#FF0DBB"/>
<path d="M75.8583 33.178C75.8583 32.4173 75.9983 31.729 76.2783 31.113C76.5583 30.497 76.9876 30.0093 77.5663 29.65C78.1496 29.286 78.8963 29.104 79.8063 29.104C80.3336 29.104 80.7933 29.1437 81.1853 29.223C81.5773 29.3023 81.8363 29.3887 81.9623 29.482L81.6823 31.386C81.5283 31.302 81.3276 31.2273 81.0803 31.162C80.8376 31.0967 80.5296 31.064 80.1563 31.064C79.8856 31.064 79.6173 31.1223 79.3513 31.239C79.0899 31.3557 78.8706 31.5563 78.6933 31.841C78.5206 32.121 78.4296 32.506 78.4203 32.996C78.4109 33.5327 78.4833 33.9597 78.6373 34.277C78.7959 34.5943 79.0083 34.823 79.2743 34.963C79.5449 35.0983 79.8436 35.166 80.1703 35.166C80.5016 35.166 80.8073 35.138 81.0873 35.082C81.3719 35.026 81.5983 34.9607 81.7663 34.886L82.0883 36.482C81.8736 36.706 81.5353 36.867 81.0733 36.965C80.6113 37.063 80.1283 37.112 79.6243 37.112C78.7656 37.112 78.0586 36.9417 77.5033 36.601C76.9479 36.2557 76.5349 35.7867 76.2643 35.194C75.9936 34.6013 75.8583 33.9293 75.8583 33.178ZM87.309 37.112C86.5903 37.112 85.979 37.0023 85.475 36.783C84.9756 36.559 84.5743 36.2533 84.271 35.866C83.9676 35.4787 83.7483 35.0353 83.613 34.536C83.4776 34.032 83.4123 33.5 83.417 32.94C83.431 32.1093 83.6106 31.4093 83.956 30.84C84.3013 30.2707 84.775 29.839 85.377 29.545C85.979 29.251 86.6696 29.104 87.449 29.104C88.4103 29.104 89.1756 29.2953 89.745 29.678C90.319 30.0607 90.7296 30.567 90.977 31.197C91.2243 31.827 91.341 32.5153 91.327 33.262C91.3176 34.0973 91.1403 34.802 90.795 35.376C90.4543 35.9453 89.983 36.377 89.381 36.671C88.779 36.965 88.0883 37.112 87.309 37.112ZM87.365 35.362C87.8643 35.362 88.2096 35.18 88.401 34.816C88.597 34.4473 88.695 33.892 88.695 33.15C88.695 32.73 88.6553 32.3473 88.576 32.002C88.4966 31.652 88.3636 31.3743 88.177 31.169C87.9903 30.959 87.7336 30.854 87.407 30.854C86.8983 30.854 86.5436 31.0383 86.343 31.407C86.147 31.7757 86.049 32.3147 86.049 33.024C86.049 33.4533 86.0886 33.8453 86.168 34.2C86.252 34.5547 86.3896 34.837 86.581 35.047C86.7723 35.257 87.0336 35.362 87.365 35.362ZM95.793 37.112C95.2236 37.112 94.764 37.0303 94.414 36.867C94.0686 36.7037 93.805 36.4727 93.623 36.174C93.4456 35.8753 93.3266 35.5253 93.266 35.124C93.2053 34.718 93.175 34.2747 93.175 33.794V29.202H95.695V33.85C95.695 34.242 95.7323 34.543 95.807 34.753C95.8816 34.9583 95.996 35.1007 96.15 35.18C96.304 35.2547 96.4976 35.292 96.731 35.292C96.885 35.292 97.0343 35.2733 97.179 35.236C97.3283 35.194 97.459 35.145 97.571 35.089C97.6876 35.033 97.7763 34.9793 97.837 34.928V29.202H100.371V37.112H98.537C98.3783 37.112 98.2593 37.0863 98.18 37.035C98.1006 36.9837 98.061 36.874 98.061 36.706V36.216L98.117 36.342C97.935 36.4913 97.711 36.6243 97.445 36.741C97.179 36.8577 96.899 36.9487 96.605 37.014C96.3156 37.0793 96.045 37.112 95.793 37.112ZM102.953 37V29.202H105.263L105.319 30.112C105.482 29.9487 105.697 29.79 105.963 29.636C106.229 29.482 106.525 29.3537 106.852 29.251C107.179 29.1483 107.517 29.0947 107.867 29.09C108.66 29.076 109.255 29.293 109.652 29.741C110.049 30.1843 110.247 30.966 110.247 32.086V37H107.713V32.548C107.713 31.9787 107.641 31.589 107.496 31.379C107.351 31.1643 107.092 31.064 106.719 31.078C106.598 31.078 106.462 31.0967 106.313 31.134C106.164 31.1713 106.014 31.2273 105.865 31.302C105.72 31.3767 105.59 31.47 105.473 31.582V37H102.953ZM115.22 37.112C114.66 37.112 114.212 37.0187 113.876 36.832C113.545 36.6453 113.305 36.3653 113.155 35.992C113.011 35.614 112.938 35.1427 112.938 34.578V30.868H112.042V29.524C112.388 29.426 112.672 29.3257 112.896 29.223C113.12 29.1157 113.284 28.9547 113.386 28.74C113.438 28.6327 113.494 28.5043 113.554 28.355C113.615 28.2057 113.678 28.0493 113.743 27.886C113.809 27.7227 113.872 27.5687 113.932 27.424H115.472V29.202H117.488V30.868H115.472V33.64C115.472 34.1253 115.498 34.48 115.549 34.704C115.605 34.928 115.699 35.0703 115.829 35.131C115.96 35.1917 116.14 35.222 116.368 35.222C116.485 35.222 116.618 35.208 116.767 35.18C116.917 35.1473 117.059 35.1077 117.194 35.061C117.33 35.0143 117.437 34.9653 117.516 34.914L117.81 36.314C117.689 36.4353 117.495 36.559 117.229 36.685C116.968 36.8063 116.662 36.909 116.312 36.993C115.962 37.0723 115.598 37.112 115.22 37.112ZM130.749 36.482L131.001 34.732C131.076 34.7973 131.23 34.886 131.463 34.998C131.701 35.1053 131.981 35.2033 132.303 35.292C132.625 35.376 132.957 35.418 133.297 35.418C133.703 35.4227 133.993 35.3807 134.165 35.292C134.343 35.1987 134.431 35.054 134.431 34.858C134.431 34.7227 134.368 34.606 134.242 34.508C134.116 34.4053 133.946 34.3097 133.731 34.221C133.517 34.1323 133.279 34.0413 133.017 33.948C132.448 33.7427 131.995 33.5163 131.659 33.269C131.328 33.0217 131.09 32.744 130.945 32.436C130.801 32.1233 130.731 31.7687 130.735 31.372C130.735 30.868 130.88 30.448 131.169 30.112C131.463 29.776 131.855 29.524 132.345 29.356C132.835 29.188 133.377 29.104 133.969 29.104C134.609 29.104 135.143 29.16 135.572 29.272C136.002 29.3793 136.303 29.482 136.475 29.58L136.251 31.358C136.158 31.274 136.011 31.1853 135.81 31.092C135.61 30.9987 135.383 30.9193 135.131 30.854C134.879 30.7887 134.627 30.756 134.375 30.756C133.941 30.756 133.633 30.8003 133.451 30.889C133.274 30.9777 133.185 31.1107 133.185 31.288C133.185 31.498 133.281 31.652 133.472 31.75C133.664 31.848 133.965 31.974 134.375 32.128C134.991 32.352 135.486 32.5783 135.859 32.807C136.237 33.0357 136.51 33.2947 136.678 33.584C136.851 33.8733 136.937 34.2233 136.937 34.634C136.937 35.446 136.636 36.062 136.034 36.482C135.437 36.902 134.641 37.112 133.647 37.112C133.218 37.112 132.81 37.077 132.422 37.007C132.035 36.9417 131.694 36.86 131.4 36.762C131.111 36.664 130.894 36.5707 130.749 36.482ZM142.378 37.112C141.118 37.112 140.157 36.755 139.494 36.041C138.832 35.3223 138.5 34.3307 138.5 33.066C138.5 32.31 138.654 31.6333 138.962 31.036C139.27 30.4387 139.714 29.9673 140.292 29.622C140.876 29.2767 141.58 29.104 142.406 29.104C142.822 29.104 143.223 29.153 143.61 29.251C143.998 29.3443 144.345 29.51 144.653 29.748C144.961 29.9813 145.209 30.3033 145.395 30.714C145.582 31.1247 145.678 31.6427 145.682 32.268C145.682 32.548 145.673 32.814 145.654 33.066C145.64 33.318 145.622 33.528 145.598 33.696H139.802L139.942 32.436H143.33C143.354 32.058 143.335 31.743 143.274 31.491C143.218 31.2343 143.113 31.043 142.959 30.917C142.81 30.791 142.607 30.728 142.35 30.728C142.056 30.728 141.807 30.8097 141.601 30.973C141.401 31.1317 141.249 31.407 141.146 31.799C141.044 32.191 140.997 32.7347 141.006 33.43C141.016 33.8827 141.097 34.249 141.251 34.529C141.41 34.8043 141.634 35.005 141.923 35.131C142.213 35.257 142.56 35.32 142.966 35.32C143.218 35.32 143.482 35.3013 143.757 35.264C144.033 35.2267 144.287 35.1777 144.52 35.117C144.758 35.0563 144.94 34.9933 145.066 34.928L145.458 36.272C145.286 36.412 145.045 36.5473 144.737 36.678C144.434 36.804 144.079 36.909 143.673 36.993C143.272 37.0723 142.84 37.112 142.378 37.112ZM150.326 37.112C149.766 37.112 149.318 37.0187 148.982 36.832C148.651 36.6453 148.411 36.3653 148.261 35.992C148.117 35.614 148.044 35.1427 148.044 34.578V30.868H147.148V29.524C147.494 29.426 147.778 29.3257 148.002 29.223C148.226 29.1157 148.39 28.9547 148.492 28.74C148.544 28.6327 148.6 28.5043 148.66 28.355C148.721 28.2057 148.784 28.0493 148.849 27.886C148.915 27.7227 148.978 27.5687 149.038 27.424H150.578V29.202H152.594V30.868H150.578V33.64C150.578 34.1253 150.604 34.48 150.655 34.704C150.711 34.928 150.805 35.0703 150.935 35.131C151.066 35.1917 151.246 35.222 151.474 35.222C151.591 35.222 151.724 35.208 151.873 35.18C152.023 35.1473 152.165 35.1077 152.3 35.061C152.436 35.0143 152.543 34.9653 152.622 34.914L152.916 36.314C152.795 36.4353 152.601 36.559 152.335 36.685C152.074 36.8063 151.768 36.909 151.418 36.993C151.068 37.0723 150.704 37.112 150.326 37.112ZM154.4 31.82C154.4 30.938 154.535 30.1657 154.806 29.503C155.076 28.8357 155.454 28.278 155.94 27.83C156.425 27.382 156.99 27.046 157.634 26.822C158.278 26.598 158.973 26.486 159.72 26.486C160.2 26.486 160.602 26.514 160.924 26.57C161.25 26.6213 161.53 26.6797 161.764 26.745C162.002 26.8103 162.226 26.864 162.436 26.906L162.1 29.146C162.002 29.0807 161.862 29.0013 161.68 28.908C161.502 28.81 161.269 28.726 160.98 28.656C160.695 28.5813 160.345 28.544 159.93 28.544C159.398 28.544 158.917 28.6653 158.488 28.908C158.058 29.146 157.718 29.4983 157.466 29.965C157.214 30.427 157.088 30.994 157.088 31.666C157.088 32.352 157.197 32.9517 157.417 33.465C157.641 33.9783 157.972 34.3797 158.411 34.669C158.849 34.9537 159.393 35.096 160.042 35.096C160.336 35.096 160.634 35.061 160.938 34.991C161.241 34.9163 161.514 34.8277 161.757 34.725C161.999 34.6223 162.179 34.522 162.296 34.424V36.566C162.118 36.6407 161.908 36.72 161.666 36.804C161.428 36.888 161.15 36.9603 160.833 37.021C160.515 37.0817 160.154 37.112 159.748 37.112C158.6 37.112 157.627 36.895 156.829 36.461C156.035 36.027 155.431 35.4133 155.016 34.62C154.605 33.8267 154.4 32.8933 154.4 31.82ZM167.694 37.112C166.975 37.112 166.364 37.0023 165.86 36.783C165.36 36.559 164.959 36.2533 164.656 35.866C164.352 35.4787 164.133 35.0353 163.998 34.536C163.862 34.032 163.797 33.5 163.802 32.94C163.816 32.1093 163.995 31.4093 164.341 30.84C164.686 30.2707 165.16 29.839 165.762 29.545C166.364 29.251 167.054 29.104 167.834 29.104C168.795 29.104 169.56 29.2953 170.13 29.678C170.704 30.0607 171.114 30.567 171.362 31.197C171.609 31.827 171.726 32.5153 171.712 33.262C171.702 34.0973 171.525 34.802 171.18 35.376C170.839 35.9453 170.368 36.377 169.766 36.671C169.164 36.965 168.473 37.112 167.694 37.112ZM167.75 35.362C168.249 35.362 168.594 35.18 168.786 34.816C168.982 34.4473 169.08 33.892 169.08 33.15C169.08 32.73 169.04 32.3473 168.961 32.002C168.881 31.652 168.748 31.3743 168.562 31.169C168.375 30.959 168.118 30.854 167.792 30.854C167.283 30.854 166.928 31.0383 166.728 31.407C166.532 31.7757 166.434 32.3147 166.434 33.024C166.434 33.4533 166.473 33.8453 166.553 34.2C166.637 34.5547 166.774 34.837 166.966 35.047C167.157 35.257 167.418 35.362 167.75 35.362ZM176.178 37.112C175.608 37.112 175.149 37.0303 174.799 36.867C174.453 36.7037 174.19 36.4727 174.008 36.174C173.83 35.8753 173.711 35.5253 173.651 35.124C173.59 34.718 173.56 34.2747 173.56 33.794V29.202H176.08V33.85C176.08 34.242 176.117 34.543 176.192 34.753C176.266 34.9583 176.381 35.1007 176.535 35.18C176.689 35.2547 176.882 35.292 177.116 35.292C177.27 35.292 177.419 35.2733 177.564 35.236C177.713 35.194 177.844 35.145 177.956 35.089C178.072 35.033 178.161 34.9793 178.222 34.928V29.202H180.756V37.112H178.922C178.763 37.112 178.644 37.0863 178.565 37.035C178.485 36.9837 178.446 36.874 178.446 36.706V36.216L178.502 36.342C178.32 36.4913 178.096 36.6243 177.83 36.741C177.564 36.8577 177.284 36.9487 176.99 37.014C176.7 37.0793 176.43 37.112 176.178 37.112ZM183.338 37V29.202H185.648L185.704 30.112C185.867 29.9487 186.082 29.79 186.348 29.636C186.614 29.482 186.91 29.3537 187.237 29.251C187.563 29.1483 187.902 29.0947 188.252 29.09C189.045 29.076 189.64 29.293 190.037 29.741C190.433 30.1843 190.632 30.966 190.632 32.086V37H188.098V32.548C188.098 31.9787 188.025 31.589 187.881 31.379C187.736 31.1643 187.477 31.064 187.104 31.078C186.982 31.078 186.847 31.0967 186.698 31.134C186.548 31.1713 186.399 31.2273 186.25 31.302C186.105 31.3767 185.974 31.47 185.858 31.582V37H183.338ZM195.605 37.112C195.045 37.112 194.597 37.0187 194.261 36.832C193.93 36.6453 193.689 36.3653 193.54 35.992C193.395 35.614 193.323 35.1427 193.323 34.578V30.868H192.427V29.524C192.772 29.426 193.057 29.3257 193.281 29.223C193.505 29.1157 193.668 28.9547 193.771 28.74C193.822 28.6327 193.878 28.5043 193.939 28.355C194 28.2057 194.063 28.0493 194.128 27.886C194.193 27.7227 194.256 27.5687 194.317 27.424H195.857V29.202H197.873V30.868H195.857V33.64C195.857 34.1253 195.883 34.48 195.934 34.704C195.99 34.928 196.083 35.0703 196.214 35.131C196.345 35.1917 196.524 35.222 196.753 35.222C196.87 35.222 197.003 35.208 197.152 35.18C197.301 35.1473 197.444 35.1077 197.579 35.061C197.714 35.0143 197.822 34.9653 197.901 34.914L198.195 36.314C198.074 36.4353 197.88 36.559 197.614 36.685C197.353 36.8063 197.047 36.909 196.697 36.993C196.347 37.0723 195.983 37.112 195.605 37.112Z" fill="white"/>
<path d="M206.675 36.594C206.675 37.266 206.539 37.7537 206.269 38.057C205.998 38.3603 205.601 38.512 205.079 38.512C204.701 38.512 204.306 38.4933 203.896 38.456C203.485 38.4187 203.133 38.358 202.839 38.274V37.084H204.533V33.262C204.533 33.0987 204.554 32.954 204.596 32.828C204.638 32.702 204.705 32.5947 204.799 32.506C204.911 32.3707 205.062 32.2493 205.254 32.142C205.445 32.03 205.648 31.932 205.863 31.848C206.082 31.7593 206.287 31.6847 206.479 31.624V31.764C206.287 31.7033 206.08 31.6287 205.856 31.54C205.636 31.4467 205.429 31.344 205.233 31.232C205.041 31.1153 204.892 30.9893 204.785 30.854C204.705 30.756 204.642 30.6463 204.596 30.525C204.554 30.399 204.533 30.2567 204.533 30.098V26.402H202.839V25.128C203.133 25.086 203.485 25.0487 203.896 25.016C204.306 24.9787 204.701 24.96 205.079 24.96C205.601 24.96 205.998 25.1047 206.269 25.394C206.539 25.6833 206.675 26.164 206.675 26.836V30.042C206.675 30.238 206.773 30.4037 206.969 30.539C207.169 30.6697 207.407 30.7723 207.683 30.847C207.958 30.9217 208.21 30.9707 208.439 30.994V32.38C208.21 32.4033 207.958 32.4593 207.683 32.548C207.407 32.632 207.169 32.7463 206.969 32.891C206.773 33.031 206.675 33.1967 206.675 33.388V36.594Z" fill="#FF0DBB"/>
<path d="M259.486 37.112C258.917 37.112 258.457 37.0303 258.107 36.867C257.762 36.7037 257.498 36.4727 257.316 36.174C257.139 35.8753 257.02 35.5253 256.959 35.124C256.898 34.718 256.868 34.2747 256.868 33.794V29.202H259.388V33.85C259.388 34.242 259.425 34.543 259.5 34.753C259.575 34.9583 259.689 35.1007 259.843 35.18C259.997 35.2547 260.191 35.292 260.424 35.292C260.578 35.292 260.727 35.2733 260.872 35.236C261.021 35.194 261.152 35.145 261.264 35.089C261.381 35.033 261.469 34.9793 261.53 34.928V29.202H264.064V37.112H262.23C262.071 37.112 261.952 37.0863 261.873 37.035C261.794 36.9837 261.754 36.874 261.754 36.706V36.216L261.81 36.342C261.628 36.4913 261.404 36.6243 261.138 36.741C260.872 36.8577 260.592 36.9487 260.298 37.014C260.009 37.0793 259.738 37.112 259.486 37.112ZM266.24 36.482L266.492 34.732C266.567 34.7973 266.721 34.886 266.954 34.998C267.192 35.1053 267.472 35.2033 267.794 35.292C268.116 35.376 268.447 35.418 268.788 35.418C269.194 35.4227 269.483 35.3807 269.656 35.292C269.833 35.1987 269.922 35.054 269.922 34.858C269.922 34.7227 269.859 34.606 269.733 34.508C269.607 34.4053 269.437 34.3097 269.222 34.221C269.007 34.1323 268.769 34.0413 268.508 33.948C267.939 33.7427 267.486 33.5163 267.15 33.269C266.819 33.0217 266.581 32.744 266.436 32.436C266.291 32.1233 266.221 31.7687 266.226 31.372C266.226 30.868 266.371 30.448 266.66 30.112C266.954 29.776 267.346 29.524 267.836 29.356C268.326 29.188 268.867 29.104 269.46 29.104C270.099 29.104 270.634 29.16 271.063 29.272C271.492 29.3793 271.793 29.482 271.966 29.58L271.742 31.358C271.649 31.274 271.502 31.1853 271.301 31.092C271.1 30.9987 270.874 30.9193 270.622 30.854C270.37 30.7887 270.118 30.756 269.866 30.756C269.432 30.756 269.124 30.8003 268.942 30.889C268.765 30.9777 268.676 31.1107 268.676 31.288C268.676 31.498 268.772 31.652 268.963 31.75C269.154 31.848 269.455 31.974 269.866 32.128C270.482 32.352 270.977 32.5783 271.35 32.807C271.728 33.0357 272.001 33.2947 272.169 33.584C272.342 33.8733 272.428 34.2233 272.428 34.634C272.428 35.446 272.127 36.062 271.525 36.482C270.928 36.902 270.132 37.112 269.138 37.112C268.709 37.112 268.3 37.077 267.913 37.007C267.526 36.9417 267.185 36.86 266.891 36.762C266.602 36.664 266.385 36.5707 266.24 36.482ZM277.869 37.112C276.609 37.112 275.648 36.755 274.985 36.041C274.323 35.3223 273.991 34.3307 273.991 33.066C273.991 32.31 274.145 31.6333 274.453 31.036C274.761 30.4387 275.205 29.9673 275.783 29.622C276.367 29.2767 277.071 29.104 277.897 29.104C278.313 29.104 278.714 29.153 279.101 29.251C279.489 29.3443 279.836 29.51 280.144 29.748C280.452 29.9813 280.7 30.3033 280.886 30.714C281.073 31.1247 281.169 31.6427 281.173 32.268C281.173 32.548 281.164 32.814 281.145 33.066C281.131 33.318 281.113 33.528 281.089 33.696H275.293L275.433 32.436H278.821C278.845 32.058 278.826 31.743 278.765 31.491C278.709 31.2343 278.604 31.043 278.45 30.917C278.301 30.791 278.098 30.728 277.841 30.728C277.547 30.728 277.298 30.8097 277.092 30.973C276.892 31.1317 276.74 31.407 276.637 31.799C276.535 32.191 276.488 32.7347 276.497 33.43C276.507 33.8827 276.588 34.249 276.742 34.529C276.901 34.8043 277.125 35.005 277.414 35.131C277.704 35.257 278.051 35.32 278.457 35.32C278.709 35.32 278.973 35.3013 279.248 35.264C279.524 35.2267 279.778 35.1777 280.011 35.117C280.249 35.0563 280.431 34.9933 280.557 34.928L280.949 36.272C280.777 36.412 280.536 36.5473 280.228 36.678C279.925 36.804 279.57 36.909 279.164 36.993C278.763 37.0723 278.331 37.112 277.869 37.112ZM286.363 37.112C285.868 37.112 285.395 37.0747 284.942 37C284.494 36.93 284.104 36.846 283.773 36.748C283.442 36.6453 283.208 36.552 283.073 36.468L283.395 34.438C283.568 34.536 283.801 34.6363 284.095 34.739C284.389 34.8417 284.713 34.9303 285.068 35.005C285.427 35.075 285.789 35.11 286.153 35.11C286.643 35.11 286.998 35.04 287.217 34.9C287.441 34.76 287.553 34.536 287.553 34.228C287.553 34.004 287.485 33.815 287.35 33.661C287.215 33.5023 286.991 33.3413 286.678 33.178C286.37 33.0147 285.957 32.8093 285.439 32.562C285 32.352 284.597 32.1047 284.228 31.82C283.859 31.5307 283.563 31.1853 283.339 30.784C283.115 30.378 283.003 29.8973 283.003 29.342C283.003 28.866 283.092 28.4507 283.269 28.096C283.451 27.7367 283.705 27.438 284.032 27.2C284.363 26.962 284.755 26.7847 285.208 26.668C285.661 26.5467 286.162 26.486 286.713 26.486C287.497 26.486 288.136 26.5583 288.631 26.703C289.126 26.8477 289.466 26.976 289.653 27.088L289.247 29.034C289.037 28.8707 288.713 28.7213 288.274 28.586C287.84 28.446 287.394 28.376 286.937 28.376C286.61 28.376 286.342 28.4133 286.132 28.488C285.922 28.558 285.766 28.6583 285.663 28.789C285.56 28.9197 285.509 29.0713 285.509 29.244C285.509 29.454 285.57 29.6407 285.691 29.804C285.817 29.9627 286.011 30.1213 286.272 30.28C286.538 30.434 286.881 30.6067 287.301 30.798C287.749 30.9987 288.148 31.204 288.498 31.414C288.853 31.624 289.154 31.8527 289.401 32.1C289.648 32.3473 289.835 32.6297 289.961 32.947C290.092 33.2597 290.157 33.6213 290.157 34.032C290.157 34.6527 290.01 35.194 289.716 35.656C289.427 36.118 289 36.4773 288.435 36.734C287.87 36.986 287.18 37.112 286.363 37.112ZM294.758 37.112C294.198 37.112 293.75 37.0187 293.414 36.832C293.083 36.6453 292.842 36.3653 292.693 35.992C292.548 35.614 292.476 35.1427 292.476 34.578V30.868H291.58V29.524C291.925 29.426 292.21 29.3257 292.434 29.223C292.658 29.1157 292.821 28.9547 292.924 28.74C292.975 28.6327 293.031 28.5043 293.092 28.355C293.153 28.2057 293.216 28.0493 293.281 27.886C293.346 27.7227 293.409 27.5687 293.47 27.424H295.01V29.202H297.026V30.868H295.01V33.64C295.01 34.1253 295.036 34.48 295.087 34.704C295.143 34.928 295.236 35.0703 295.367 35.131C295.498 35.1917 295.677 35.222 295.906 35.222C296.023 35.222 296.156 35.208 296.305 35.18C296.454 35.1473 296.597 35.1077 296.732 35.061C296.867 35.0143 296.975 34.9653 297.054 34.914L297.348 36.314C297.227 36.4353 297.033 36.559 296.767 36.685C296.506 36.8063 296.2 36.909 295.85 36.993C295.5 37.0723 295.136 37.112 294.758 37.112ZM301.365 37.112C300.852 37.112 300.404 37.007 300.021 36.797C299.643 36.5823 299.349 36.2883 299.139 35.915C298.934 35.537 298.831 35.1053 298.831 34.62C298.831 34.1627 298.955 33.766 299.202 33.43C299.454 33.0893 299.797 32.828 300.231 32.646C300.544 32.5107 300.885 32.4103 301.253 32.345C301.622 32.275 301.991 32.2283 302.359 32.205C302.733 32.1817 303.083 32.17 303.409 32.17L303.773 32.618L303.409 33.388C303.246 33.3927 303.076 33.4067 302.898 33.43C302.726 33.4487 302.562 33.4767 302.408 33.514C302.254 33.5467 302.131 33.584 302.037 33.626C301.893 33.6867 301.755 33.7777 301.624 33.899C301.498 34.0157 301.435 34.214 301.435 34.494C301.435 34.8627 301.536 35.131 301.736 35.299C301.942 35.4623 302.173 35.544 302.429 35.544C302.565 35.544 302.698 35.5277 302.828 35.495C302.964 35.4623 303.083 35.4227 303.185 35.376C303.288 35.3247 303.363 35.2733 303.409 35.222L303.815 35.74L303.535 36.342C303.321 36.5287 303.036 36.7037 302.681 36.867C302.331 37.0303 301.893 37.112 301.365 37.112ZM305.929 37H303.535V35.838H303.409V31.708C303.409 31.3627 303.314 31.1363 303.122 31.029C302.936 30.9217 302.667 30.868 302.317 30.868C302.019 30.868 301.706 30.8913 301.379 30.938C301.057 30.9847 300.745 31.05 300.441 31.134C300.138 31.2133 299.872 31.3067 299.643 31.414L299.125 29.93C299.317 29.8133 299.592 29.6897 299.951 29.559C300.315 29.4237 300.724 29.3093 301.176 29.216C301.629 29.1227 302.089 29.076 302.555 29.076C303.372 29.076 304.028 29.1717 304.522 29.363C305.017 29.5543 305.374 29.8647 305.593 30.294C305.817 30.7233 305.929 31.2973 305.929 32.016V37ZM310.958 37.112C310.398 37.112 309.95 37.0187 309.614 36.832C309.283 36.6453 309.042 36.3653 308.893 35.992C308.748 35.614 308.676 35.1427 308.676 34.578V30.868H307.78V29.524C308.125 29.426 308.41 29.3257 308.634 29.223C308.858 29.1157 309.021 28.9547 309.124 28.74C309.175 28.6327 309.231 28.5043 309.292 28.355C309.353 28.2057 309.416 28.0493 309.481 27.886C309.546 27.7227 309.609 27.5687 309.67 27.424H311.21V29.202H313.226V30.868H311.21V33.64C311.21 34.1253 311.236 34.48 311.287 34.704C311.343 34.928 311.436 35.0703 311.567 35.131C311.698 35.1917 311.877 35.222 312.106 35.222C312.223 35.222 312.356 35.208 312.505 35.18C312.654 35.1473 312.797 35.1077 312.932 35.061C313.067 35.0143 313.175 34.9653 313.254 34.914L313.548 36.314C313.427 36.4353 313.233 36.559 312.967 36.685C312.706 36.8063 312.4 36.909 312.05 36.993C311.7 37.0723 311.336 37.112 310.958 37.112ZM318.909 37.112C317.649 37.112 316.688 36.755 316.025 36.041C315.363 35.3223 315.031 34.3307 315.031 33.066C315.031 32.31 315.185 31.6333 315.493 31.036C315.801 30.4387 316.245 29.9673 316.823 29.622C317.407 29.2767 318.111 29.104 318.937 29.104C319.353 29.104 319.754 29.153 320.141 29.251C320.529 29.3443 320.876 29.51 321.184 29.748C321.492 29.9813 321.74 30.3033 321.926 30.714C322.113 31.1247 322.209 31.6427 322.213 32.268C322.213 32.548 322.204 32.814 322.185 33.066C322.171 33.318 322.153 33.528 322.129 33.696H316.333L316.473 32.436H319.861C319.885 32.058 319.866 31.743 319.805 31.491C319.749 31.2343 319.644 31.043 319.49 30.917C319.341 30.791 319.138 30.728 318.881 30.728C318.587 30.728 318.338 30.8097 318.132 30.973C317.932 31.1317 317.78 31.407 317.677 31.799C317.575 32.191 317.528 32.7347 317.537 33.43C317.547 33.8827 317.628 34.249 317.782 34.529C317.941 34.8043 318.165 35.005 318.454 35.131C318.744 35.257 319.091 35.32 319.497 35.32C319.749 35.32 320.013 35.3013 320.288 35.264C320.564 35.2267 320.818 35.1777 321.051 35.117C321.289 35.0563 321.471 34.9933 321.597 34.928L321.989 36.272C321.817 36.412 321.576 36.5473 321.268 36.678C320.965 36.804 320.61 36.909 320.204 36.993C319.803 37.0723 319.371 37.112 318.909 37.112Z" fill="white"/>
<path d="M327.417 39.464C327.268 39.3613 327.06 39.1933 326.794 38.96C326.533 38.7267 326.253 38.4163 325.954 38.029C325.656 37.6417 325.371 37.1703 325.1 36.615C324.834 36.055 324.615 35.404 324.442 34.662C324.27 33.92 324.183 33.0753 324.183 32.128C324.183 31.2787 324.265 30.504 324.428 29.804C324.596 29.0993 324.811 28.4693 325.072 27.914C325.338 27.354 325.618 26.871 325.912 26.465C326.211 26.0543 326.493 25.7207 326.759 25.464C327.03 25.2073 327.249 25.0253 327.417 24.918L328.719 25.814C328.551 25.954 328.334 26.192 328.068 26.528C327.802 26.864 327.536 27.298 327.27 27.83C327.004 28.362 326.78 28.9897 326.598 29.713C326.416 30.4363 326.325 31.2553 326.325 32.17C326.325 32.8747 326.377 33.521 326.479 34.109C326.582 34.6923 326.717 35.2243 326.885 35.705C327.058 36.181 327.249 36.6033 327.459 36.972C327.669 37.3407 327.884 37.658 328.103 37.924C328.323 38.19 328.528 38.4047 328.719 38.568L327.417 39.464ZM334.709 37.112C333.953 37.112 333.302 36.9627 332.756 36.664C332.215 36.3653 331.771 35.957 331.426 35.439C331.085 34.921 330.833 34.3353 330.67 33.682C330.511 33.024 330.434 32.338 330.439 31.624C330.453 30.5787 330.658 29.6733 331.055 28.908C331.452 28.138 331.981 27.5453 332.644 27.13C333.311 26.71 334.056 26.5 334.877 26.5C335.642 26.5 336.293 26.64 336.83 26.92C337.371 27.2 337.81 27.585 338.146 28.075C338.487 28.5603 338.734 29.118 338.888 29.748C339.047 30.378 339.124 31.0453 339.119 31.75C339.11 32.8373 338.911 33.7823 338.524 34.585C338.137 35.3877 337.612 36.0107 336.949 36.454C336.291 36.8927 335.544 37.112 334.709 37.112ZM334.765 35.348C335.297 35.348 335.708 35.0703 335.997 34.515C336.286 33.955 336.431 33.052 336.431 31.806C336.431 31.0593 336.37 30.4223 336.249 29.895C336.128 29.3677 335.946 28.964 335.703 28.684C335.46 28.404 335.157 28.264 334.793 28.264C334.261 28.264 333.85 28.5323 333.561 29.069C333.272 29.601 333.127 30.434 333.127 31.568C333.127 32.324 333.188 32.9867 333.309 33.556C333.43 34.1207 333.612 34.5617 333.855 34.879C334.098 35.1917 334.401 35.348 334.765 35.348ZM342.144 24.82C342.293 24.9227 342.498 25.0907 342.76 25.324C343.026 25.5573 343.308 25.8677 343.607 26.255C343.905 26.6423 344.188 27.116 344.454 27.676C344.724 28.2313 344.946 28.88 345.119 29.622C345.291 30.364 345.378 31.2087 345.378 32.156C345.378 33.0053 345.294 33.7823 345.126 34.487C344.962 35.187 344.748 35.817 344.482 36.377C344.22 36.9323 343.94 37.413 343.642 37.819C343.348 38.2297 343.065 38.5633 342.795 38.82C342.529 39.0767 342.312 39.2587 342.144 39.366L340.842 38.47C341.01 38.33 341.227 38.092 341.493 37.756C341.759 37.42 342.025 36.986 342.291 36.454C342.557 35.922 342.781 35.2943 342.963 34.571C343.145 33.8477 343.236 33.0287 343.236 32.114C343.236 31.4093 343.184 30.7653 343.082 30.182C342.979 29.594 342.841 29.062 342.669 28.586C342.501 28.1053 342.312 27.6807 342.102 27.312C341.892 26.9433 341.677 26.626 341.458 26.36C341.238 26.094 341.033 25.8793 340.842 25.716L342.144 24.82ZM347.853 39.786V39.618C347.989 39.5107 348.115 39.296 348.231 38.974C348.353 38.6567 348.413 38.274 348.413 37.826C348.413 37.6207 348.374 37.4177 348.294 37.217C348.22 37.021 348.126 36.8553 348.014 36.72C347.907 36.58 347.802 36.5007 347.699 36.482V35.754L349.491 34.83C349.753 34.928 349.967 35.1053 350.135 35.362C350.308 35.614 350.434 35.8963 350.513 36.209C350.597 36.517 350.639 36.804 350.639 37.07C350.639 37.588 350.553 38.0827 350.38 38.554C350.212 39.03 349.986 39.4407 349.701 39.786C349.417 40.1313 349.099 40.3693 348.749 40.5L347.853 39.786ZM349.015 32.128C348.595 32.128 348.255 31.9903 347.993 31.715C347.732 31.435 347.601 31.092 347.601 30.686C347.601 30.4107 347.667 30.1563 347.797 29.923C347.933 29.685 348.115 29.4937 348.343 29.349C348.577 29.2043 348.838 29.132 349.127 29.132C349.557 29.132 349.897 29.2697 350.149 29.545C350.401 29.8157 350.527 30.154 350.527 30.56C350.527 30.8353 350.46 31.092 350.324 31.33C350.194 31.568 350.014 31.7617 349.785 31.911C349.557 32.0557 349.3 32.128 349.015 32.128Z" fill="#F58219"/>
<path d="M222.984 30.944V28.976H230.2V30.944H222.984ZM222.984 34.912V32.944H230.2V34.912H222.984Z" fill="white"/>
<path d="M21.476 33.178C21.476 32.4173 21.616 31.729 21.896 31.113C22.176 30.497 22.6053 30.0093 23.184 29.65C23.7673 29.286 24.514 29.104 25.424 29.104C25.9513 29.104 26.411 29.1437 26.803 29.223C27.195 29.3023 27.454 29.3887 27.58 29.482L27.3 31.386C27.146 31.302 26.9453 31.2273 26.698 31.162C26.4553 31.0967 26.1473 31.064 25.774 31.064C25.5033 31.064 25.235 31.1223 24.969 31.239C24.7077 31.3557 24.4883 31.5563 24.311 31.841C24.1383 32.121 24.0473 32.506 24.038 32.996C24.0287 33.5327 24.101 33.9597 24.255 34.277C24.4137 34.5943 24.626 34.823 24.892 34.963C25.1627 35.0983 25.4613 35.166 25.788 35.166C26.1193 35.166 26.425 35.138 26.705 35.082C26.9897 35.026 27.216 34.9607 27.384 34.886L27.706 36.482C27.4913 36.706 27.153 36.867 26.691 36.965C26.229 37.063 25.746 37.112 25.242 37.112C24.3833 37.112 23.6763 36.9417 23.121 36.601C22.5657 36.2557 22.1527 35.7867 21.882 35.194C21.6113 34.6013 21.476 33.9293 21.476 33.178ZM32.9267 37.112C32.208 37.112 31.5967 37.0023 31.0927 36.783C30.5934 36.559 30.192 36.2533 29.8887 35.866C29.5854 35.4787 29.366 35.0353 29.2307 34.536C29.0954 34.032 29.03 33.5 29.0347 32.94C29.0487 32.1093 29.2284 31.4093 29.5737 30.84C29.919 30.2707 30.3927 29.839 30.9947 29.545C31.5967 29.251 32.2874 29.104 33.0667 29.104C34.028 29.104 34.7934 29.2953 35.3627 29.678C35.9367 30.0607 36.3474 30.567 36.5947 31.197C36.842 31.827 36.9587 32.5153 36.9447 33.262C36.9354 34.0973 36.758 34.802 36.4127 35.376C36.072 35.9453 35.6007 36.377 34.9987 36.671C34.3967 36.965 33.706 37.112 32.9267 37.112ZM32.9827 35.362C33.482 35.362 33.8274 35.18 34.0187 34.816C34.2147 34.4473 34.3127 33.892 34.3127 33.15C34.3127 32.73 34.273 32.3473 34.1937 32.002C34.1144 31.652 33.9814 31.3743 33.7947 31.169C33.608 30.959 33.3514 30.854 33.0247 30.854C32.516 30.854 32.1614 31.0383 31.9607 31.407C31.7647 31.7757 31.6667 32.3147 31.6667 33.024C31.6667 33.4533 31.7064 33.8453 31.7857 34.2C31.8697 34.5547 32.0074 34.837 32.1987 35.047C32.39 35.257 32.6514 35.362 32.9827 35.362ZM38.9327 37V29.202H41.2427L41.2987 30.112C41.462 29.9487 41.6767 29.79 41.9427 29.636C42.2087 29.482 42.505 29.3537 42.8317 29.251C43.1584 29.1483 43.4967 29.0947 43.8467 29.09C44.64 29.076 45.235 29.293 45.6317 29.741C46.0284 30.1843 46.2267 30.966 46.2267 32.086V37H43.6927V32.548C43.6927 31.9787 43.6204 31.589 43.4757 31.379C43.331 31.1643 43.072 31.064 42.6987 31.078C42.5774 31.078 42.442 31.0967 42.2927 31.134C42.1434 31.1713 41.994 31.2273 41.8447 31.302C41.7 31.3767 41.5694 31.47 41.4527 31.582V37H38.9327ZM48.2879 36.482L48.5399 34.732C48.6145 34.7973 48.7685 34.886 49.0019 34.998C49.2399 35.1053 49.5199 35.2033 49.8419 35.292C50.1639 35.376 50.4952 35.418 50.8359 35.418C51.2419 35.4227 51.5312 35.3807 51.7039 35.292C51.8812 35.1987 51.9699 35.054 51.9699 34.858C51.9699 34.7227 51.9069 34.606 51.7809 34.508C51.6549 34.4053 51.4845 34.3097 51.2699 34.221C51.0552 34.1323 50.8172 34.0413 50.5559 33.948C49.9865 33.7427 49.5339 33.5163 49.1979 33.269C48.8665 33.0217 48.6285 32.744 48.4839 32.436C48.3392 32.1233 48.2692 31.7687 48.2739 31.372C48.2739 30.868 48.4185 30.448 48.7079 30.112C49.0019 29.776 49.3939 29.524 49.8839 29.356C50.3739 29.188 50.9152 29.104 51.5079 29.104C52.1472 29.104 52.6815 29.16 53.1109 29.272C53.5402 29.3793 53.8412 29.482 54.0139 29.58L53.7899 31.358C53.6965 31.274 53.5495 31.1853 53.3489 31.092C53.1482 30.9987 52.9219 30.9193 52.6699 30.854C52.4179 30.7887 52.1659 30.756 51.9139 30.756C51.4799 30.756 51.1719 30.8003 50.9899 30.889C50.8125 30.9777 50.7239 31.1107 50.7239 31.288C50.7239 31.498 50.8195 31.652 51.0109 31.75C51.2022 31.848 51.5032 31.974 51.9139 32.128C52.5299 32.352 53.0245 32.5783 53.3979 32.807C53.7759 33.0357 54.0489 33.2947 54.2169 33.584C54.3895 33.8733 54.4759 34.2233 54.4759 34.634C54.4759 35.446 54.1749 36.062 53.5729 36.482C52.9755 36.902 52.1799 37.112 51.1859 37.112C50.7565 37.112 50.3482 37.077 49.9609 37.007C49.5735 36.9417 49.2329 36.86 48.9389 36.762C48.6495 36.664 48.4325 36.5707 48.2879 36.482ZM58.9649 37.112C58.4049 37.112 57.9569 37.0187 57.6209 36.832C57.2896 36.6453 57.0493 36.3653 56.8999 35.992C56.7553 35.614 56.6829 35.1427 56.6829 34.578V30.868H55.7869V29.524C56.1323 29.426 56.4169 29.3257 56.6409 29.223C56.8649 29.1157 57.0283 28.9547 57.1309 28.74C57.1823 28.6327 57.2383 28.5043 57.2989 28.355C57.3596 28.2057 57.4226 28.0493 57.4879 27.886C57.5533 27.7227 57.6163 27.5687 57.6769 27.424H59.2169V29.202H61.2329V30.868H59.2169V33.64C59.2169 34.1253 59.2426 34.48 59.2939 34.704C59.3499 34.928 59.4433 35.0703 59.5739 35.131C59.7046 35.1917 59.8843 35.222 60.1129 35.222C60.2296 35.222 60.3626 35.208 60.5119 35.18C60.6613 35.1473 60.8036 35.1077 60.9389 35.061C61.0743 35.0143 61.1816 34.9653 61.2609 34.914L61.5549 36.314C61.4336 36.4353 61.2399 36.559 60.9739 36.685C60.7126 36.8063 60.4069 36.909 60.0569 36.993C59.7069 37.0723 59.3429 37.112 58.9649 37.112Z" fill="#F58219"/>
</svg>
