<svg width="25" height="24" viewBox="0 0 25 24" fill="none" xmlns="http://www.w3.org/2000/svg">
<path d="M4 10L4.89806 12.7639H7.80423L5.45308 14.4721L6.35114 17.2361L4 15.5279L1.64886 17.2361L2.54692 14.4721L0.195774 12.7639H3.10194L4 10Z" fill="#D9D9D9"/>
<path d="M12.5 0L13.0613 2.07295H14.8776L13.4082 3.3541L13.9695 5.42705L12.5 4.1459L11.0305 5.42705L11.5918 3.3541L10.1224 2.07295H11.9387L12.5 0Z" fill="#D9D9D9"/>
<path d="M19 13L20.3471 16.8004H24.7063L21.1796 19.1492L22.5267 22.9496L19 20.6008L15.4733 22.9496L16.8204 19.1492L13.2937 16.8004H17.6529L19 13Z" fill="#D9D9D9"/>
</svg>
