<svg width="73" height="72" viewBox="0 0 73 72" fill="none" xmlns="http://www.w3.org/2000/svg">
<g clip-path="url(#clip0_565_164)">
<path d="M1.067 55.5864C0.726125 55.4176 0.5 55.0199 0.5 54.5671C0.5 53.8859 1.00963 53.3763 1.69081 53.3763C1.9175 53.3763 2.14363 53.4331 2.31519 53.5473C3.56056 54.3978 4.92294 54.7932 6.11206 54.7932C7.41706 54.7932 8.15281 54.2262 8.15281 53.3757V53.3195C8.15281 52.2997 6.73531 51.9588 5.20644 51.506C3.27706 50.9396 1.12381 50.1442 1.12381 47.6501V47.5927C1.12381 45.0991 3.16569 43.6248 5.77344 43.6248C7.19094 43.6248 8.60844 44.0225 9.91062 44.7037C10.3083 44.9298 10.6475 45.3252 10.6475 45.8371C10.6475 46.5161 10.0799 47.0262 9.401 47.0262C9.17488 47.0262 9.00331 46.9711 8.77662 46.8569C7.70056 46.2899 6.62394 45.9491 5.71663 45.9491C4.52525 45.9491 3.90144 46.5161 3.90144 47.2541V47.3092C3.90144 48.2739 5.31894 48.6716 6.85006 49.1817C8.77719 49.7482 10.9304 50.6555 10.9304 52.9809V53.0354C10.9304 55.8153 8.77719 57.1754 6.05694 57.1754C4.41106 57.1754 2.59812 56.6652 1.067 55.5864ZM22.6659 50.4294C22.6659 47.8762 20.9654 46.2331 18.9264 46.2331C16.8845 46.2331 15.1272 47.9336 15.1272 50.4294V50.4845C15.1272 52.9809 16.8851 54.6807 18.9264 54.6807C20.9654 54.5671 22.6659 52.9809 22.6659 50.4294ZM12.2354 45.1559C12.2354 44.306 12.8598 43.6248 13.7097 43.6248C13.911 43.6241 14.1104 43.6632 14.2964 43.7399C14.4824 43.8166 14.6514 43.9293 14.7937 44.0717C14.9359 44.214 15.0486 44.3831 15.1251 44.5692C15.2017 44.7553 15.2406 44.9547 15.2397 45.1559V46.0638C16.2039 44.7037 17.564 43.6248 19.6621 43.6248C22.7233 43.6248 25.7292 46.0638 25.7292 50.3726V50.4294C25.7292 54.7364 22.7801 57.1754 19.6621 57.1754C17.5066 57.1754 16.1465 56.0982 15.2392 54.9074V59.4997C15.2392 60.3502 14.5602 60.974 13.7097 60.974C13.5159 60.9752 13.3237 60.9379 13.1444 60.8642C12.965 60.7906 12.8021 60.6821 12.665 60.545C12.5279 60.4079 12.4194 60.245 12.3457 60.0656C12.2721 59.8863 12.2348 59.6941 12.236 59.5002V45.1565M26.9746 45.0991C26.9746 44.2486 27.599 43.5697 28.4489 43.5697C28.6502 43.5687 28.8496 43.6076 29.0357 43.6841C29.2218 43.7606 29.391 43.8732 29.5334 44.0154C29.6758 44.1575 29.7886 44.3265 29.8654 44.5125C29.9421 44.6985 29.9813 44.8979 29.9806 45.0991V45.8371C30.1494 44.7037 31.9651 43.6248 33.2679 43.6248C34.2326 43.6248 34.7422 44.2492 34.7422 45.0986C34.7422 45.8917 34.2326 46.4041 33.5514 46.5161C31.3981 46.9137 29.9232 48.7267 29.9232 51.335V55.6437C29.9232 56.4369 29.2426 57.1181 28.3921 57.1181C28.1983 57.1193 28.0061 57.0821 27.8268 57.0084C27.6474 56.9347 27.4846 56.8261 27.3476 56.6889C27.2106 56.5518 27.1023 56.3887 27.0289 56.2093C26.9555 56.0298 26.9185 55.8376 26.9201 55.6437V45.0991M36.1023 45.0991C36.1016 44.8979 36.1408 44.6985 36.2176 44.5125C36.2943 44.3265 36.4072 44.1575 36.5496 44.0154C36.692 43.8732 36.8611 43.7606 37.0472 43.6841C37.2333 43.6076 37.4328 43.5687 37.634 43.5697C37.8352 43.5688 38.0345 43.6077 38.2206 43.6843C38.4067 43.7608 38.5757 43.8734 38.7181 44.0155C38.8604 44.1577 38.9732 44.3267 39.0499 44.5126C39.1266 44.6986 39.1658 44.8979 39.1651 45.0991V55.6437C39.1651 56.4942 38.4845 57.1181 37.634 57.1181C36.7835 57.1181 36.1023 56.4937 36.1023 55.6437V45.0991ZM40.4684 45.1559C40.4675 44.9546 40.5065 44.7551 40.5832 44.5689C40.6598 44.3828 40.7725 44.2136 40.9149 44.0713C41.0573 43.9289 41.2264 43.8162 41.4126 43.7395C41.5987 43.6629 41.7982 43.6239 41.9996 43.6248C42.8501 43.6248 43.5858 44.3054 43.5858 45.1559V45.7803C44.4363 44.5895 45.7419 43.6248 47.8383 43.6248C50.9011 43.6248 52.6567 45.6087 52.6567 48.6142V55.6437C52.6567 56.4942 51.9777 57.1181 51.1267 57.1181C50.2773 57.1181 49.5387 56.4937 49.5387 55.6437V49.5221C49.5387 47.4807 48.4621 46.3473 46.6475 46.3473C44.834 46.3473 43.5864 47.5381 43.5864 49.5772V55.6437C43.5864 56.4942 42.9074 57.1181 42.0001 57.1181C41.1496 57.1181 40.4684 56.4937 40.4684 55.6437V45.1559ZM60.4811 54.6239C58.3829 54.6239 56.6268 53.0354 56.6268 50.4294V50.3726C56.6268 47.8216 58.3824 46.1757 60.4811 46.1757C62.5792 46.1757 64.3921 47.8762 64.3921 50.372V50.4294C64.3921 52.9235 62.5792 54.6239 60.4811 54.6239ZM65.8664 43.6816C65.6652 43.6809 65.4658 43.7201 65.2798 43.7969C65.0938 43.8737 64.9249 43.9865 64.7827 44.1289C64.6405 44.2713 64.5279 44.4404 64.4514 44.6265C64.3749 44.8127 64.336 45.0121 64.337 45.2133V46.1206C63.3155 44.7582 61.9554 43.6816 59.7447 43.6816C56.57 43.6816 53.5066 46.1206 53.5066 50.4845V50.5419C53.5066 54.8506 56.57 57.3442 59.7447 57.3442C61.9554 57.3442 63.3729 56.2676 64.337 55.0773C64.166 57.4584 62.6917 58.6492 60.0834 58.6492C58.5539 58.6492 57.1938 58.2521 55.9456 57.6277C55.7769 57.5709 55.6053 57.5157 55.3792 57.5157C54.6423 57.5157 54.0742 58.0827 54.0742 58.7617C54.0742 59.3287 54.4145 59.7264 54.9264 59.9525C56.57 60.7456 58.2136 61.1433 60.1408 61.1433C62.5792 61.1433 64.4495 60.5763 65.6971 59.3855C66.8311 58.3089 67.4549 56.6652 67.4549 54.4524V45.1565C67.3981 44.3066 66.7169 43.6827 65.8664 43.6827M39.1651 39.9972C39.1651 40.7904 38.4845 41.4721 37.634 41.4721C36.7835 41.4721 36.1023 40.7909 36.1023 39.9972C36.1023 39.2036 36.7829 38.5235 37.634 38.5235C38.4839 38.5235 39.1651 39.2041 39.1651 39.9972ZM47.102 30.1889C43.7574 34.6119 36.5574 33.1376 31.9077 33.3069C31.9077 33.3069 31.1146 33.3642 30.2641 33.4784C30.2641 33.4784 30.605 33.3642 30.9431 33.1949C34.1752 32.1183 35.7069 31.8899 37.6908 30.8701C41.3757 29.0004 45.0607 24.9751 45.7964 20.7783C44.3789 24.8036 40.1276 28.2618 36.2171 29.6793C33.5508 30.644 28.7324 31.5513 28.7324 31.5513L28.5637 31.4371C25.2742 29.9054 25.1623 22.9338 31.1714 20.7209C33.7798 19.7585 36.2733 20.2681 39.1083 19.6443C42.1121 18.9654 45.6277 16.7531 47.0452 13.8612C48.6331 18.5677 50.5614 25.7682 47.102 30.1889ZM47.1588 12.5011C46.7689 13.3889 46.2741 14.2268 45.6851 14.9969C43.1909 12.5011 39.7321 10.9717 35.8762 10.9717C28.337 10.9717 22.2131 16.9809 22.2131 24.2934C22.2131 28.1476 23.9141 31.6059 26.5792 34.0449L26.8627 34.3284C26.3531 33.9307 26.2957 33.1949 26.6917 32.7399C27.0894 32.2302 27.8251 32.1729 28.337 32.5711C28.8472 32.9682 28.904 33.7046 28.5063 34.1574C28.1086 34.6692 27.3723 34.7238 26.8627 34.3284L27.0894 34.4977C29.5734 36.5147 32.6758 37.6156 35.8756 37.6156C43.0762 37.6156 48.9718 32.1183 49.4836 25.2581C49.9364 21.9117 48.9166 17.603 47.1588 12.5006M71.0257 44.5901H70.5161V45.2707H71.0257C71.1973 45.2707 71.366 45.1565 71.366 44.9304C71.366 44.7042 71.1973 44.5901 71.0257 44.5901ZM71.3092 46.2905L70.7996 45.4974H70.4587V46.2905H70.1752V44.3634H70.9683C71.3092 44.3634 71.5927 44.5901 71.5927 44.9304C71.5978 45.0726 71.5475 45.2113 71.4523 45.3171C71.3571 45.4229 71.2245 45.4875 71.0825 45.4974L71.5927 46.2905H71.3092ZM70.8564 43.8537C70.0633 43.8537 69.3821 44.4753 69.3821 45.2712C69.3821 46.0644 70.0633 46.6882 70.8564 46.6882C71.6495 46.6882 72.3307 46.0638 72.3307 45.2707C72.3307 44.5327 71.6501 43.8532 70.8569 43.8532L70.8564 43.8537ZM70.8564 47.0262C69.8917 47.0262 69.0986 46.2905 69.0986 45.3258C69.0986 44.3639 69.8917 43.6254 70.8564 43.6254C71.8188 43.6254 72.6142 44.3634 72.6142 45.3258C72.6142 46.2331 71.8188 47.0262 70.8564 47.0262Z" fill="#5FB832"/>
</g>
<defs>
<clipPath id="clip0_565_164">
<rect width="72" height="72" fill="white" transform="translate(0.5)"/>
</clipPath>
</defs>
</svg>
